<?xml version="1.0" encoding="UTF-8" standalone="no"?>
<!-- Created with Inkscape (http://www.inkscape.org/) -->

<svg
   xmlns:dc="http://purl.org/dc/elements/1.1/"
   xmlns:cc="http://creativecommons.org/ns#"
   xmlns:rdf="http://www.w3.org/1999/02/22-rdf-syntax-ns#"
   xmlns:svg="http://www.w3.org/2000/svg"
   xmlns="http://www.w3.org/2000/svg"
   xmlns:sodipodi="http://sodipodi.sourceforge.net/DTD/sodipodi-0.dtd"
   xmlns:inkscape="http://www.inkscape.org/namespaces/inkscape"
   width="210mm"
   height="297mm"
   viewBox="0 0 210 297"
   version="1.1"
   id="svg8"
   inkscape:version="0.92.2 (5c3e80d, 2017-08-06)"
   sodipodi:docname="boss2.svg"
   inkscape:export-filename="C:\Users\Asus\Desktop\курсач КПиЯП\Texturs\b2.png"
   inkscape:export-xdpi="96"
   inkscape:export-ydpi="96">
  <defs
     id="defs2" />
  <sodipodi:namedview
     id="base"
     pagecolor="#ffffff"
     bordercolor="#666666"
     borderopacity="1.0"
     inkscape:pageopacity="0.0"
     inkscape:pageshadow="2"
     inkscape:zoom="0.98994949"
     inkscape:cx="312.64324"
     inkscape:cy="668.0111"
     inkscape:document-units="mm"
     inkscape:current-layer="layer1"
     showgrid="false"
     inkscape:snap-global="false"
     inkscape:window-width="1920"
     inkscape:window-height="1017"
     inkscape:window-x="-8"
     inkscape:window-y="-8"
     inkscape:window-maximized="1" />
  <metadata
     id="metadata5">
    <rdf:RDF>
      <cc:Work
         rdf:about="">
        <dc:format>image/svg+xml</dc:format>
        <dc:type
           rdf:resource="http://purl.org/dc/dcmitype/StillImage" />
        <dc:title />
      </cc:Work>
    </rdf:RDF>
  </metadata>
  <g
     inkscape:label="Layer 1"
     inkscape:groupmode="layer"
     id="layer1">
    <path
       style="fill:#717171;fill-opacity:1;stroke:#000000;stroke-width:1.50000024;stroke-linecap:butt;stroke-linejoin:miter;stroke-miterlimit:4;stroke-dasharray:none;stroke-opacity:1"
       d="M 81.79221,116.029 52.325034,136.0561 49.451233,124.78202 71.80223,105.99603 Z"
       id="path1025"
       inkscape:connector-curvature="0"
       sodipodi:nodetypes="ccccc" />
    <path
       style="fill:#717171;fill-opacity:1;stroke:#000000;stroke-width:1.50000024;stroke-linecap:butt;stroke-linejoin:round;stroke-miterlimit:4;stroke-dasharray:none;stroke-opacity:1"
       d="m 88.59292,107.62357 v 0.0594 l -18.87634,2.26024 c -1.13521,29.27412 -8.09876,57.20415 -17.634203,84.54108 l 0.07471,0.0402 c -20.430908,9.01458 -21.711352,3.32373 -8.638657,-8.6473 -5.277991,-17.85012 -29.123399,-9.08643 -38.5578207,-8.14336 18.9034767,1.68666 13.2699667,6.93295 8.1038357,13.18641 -28.300926,35.05137 54.483785,21.54533 75.748879,23.39549 l 0.0278,0.015 c 0.0268,-0.003 0.0575,-0.004 0.0845,-0.006 0.0268,0.003 0.0569,0.004 0.0836,0.006 l -0.021,-0.0118 c 21.213026,-1.87149 109.740666,12.40764 81.418306,-22.67018 -20.11717,-16.55245 -29.02721,-13.46523 2.48362,-24.48615 -9.43447,-0.94308 -32.22611,-1.86997 -37.50414,15.98016 13.09315,11.98969 10.73697,20.41555 -9.78572,11.34095 -9.55877,-27.97878 -16.92076,-56.0781 -17.63454,-84.54052 l -18.876346,-2.26024 v -0.0594 l -0.24822,0.0296 z"
       id="path1009"
       inkscape:connector-curvature="0"
       sodipodi:nodetypes="cccccccccccccccccccccc" />
    <g
       id="g1136"
       transform="matrix(0.65710784,0,0,0.6819155,3.7493603,21.338864)"
       style="stroke-width:1.4938823">
      <g
         transform="translate(-2.6726953,-2.1381562)"
         id="g1130"
         style="stroke-width:1.4938823">
        <path
           style="fill:#40a0a2;fill-opacity:1;stroke:#000000;stroke-width:1.4938823;stroke-linecap:round;stroke-linejoin:round;stroke-miterlimit:4;stroke-dasharray:none;stroke-opacity:1"
           d="m 204.48512,-17.854167 c 26.82664,41.53385 47.38283,49.796203 75.21727,143.252977 l 24.56844,-5.29167 C 275.19136,73.972463 259.71987,-10.231628 204.48512,-17.854167 Z"
           id="path1119"
           inkscape:connector-curvature="0"
           sodipodi:nodetypes="cccc" />
        <path
           inkscape:connector-curvature="0"
           style="fill:#8cd0d2;fill-opacity:1;stroke:#000000;stroke-width:5.64616966;stroke-linecap:round;stroke-linejoin:round;stroke-miterlimit:4;stroke-dasharray:none;stroke-opacity:1"
           d="M 772.85742,-67.480469 C 874.24945,89.497862 951.94155,120.72677 1057.1426,473.94922 l 92.8574,-20 c -0.1187,-0.18834 -0.2349,-0.38359 -0.3535,-0.57227 l -78.9317,17 C 967.06663,122.36823 890.11947,86.914345 790.90234,-64.185547 c -5.88991,-1.338612 -11.8997,-2.446866 -18.04492,-3.294922 z"
           transform="scale(0.26458333)"
           id="path1123" />
      </g>
      <path
         inkscape:connector-curvature="0"
         id="path1117"
         d="M 70.129116,229.65613 C 108.70975,195.22784 177.90717,199.2227 215.75375,167.63064 c 31.85168,-26.58788 43.95447,-41.85007 88.31604,-49.35062"
         style="fill:none;stroke:#301812;stroke-width:11.95105839;stroke-linecap:round;stroke-linejoin:miter;stroke-miterlimit:4;stroke-dasharray:none;stroke-opacity:1" />
    </g>
    <g
       id="g1085"
       transform="matrix(0.63213138,0.18621991,-0.17944534,0.65599612,38.749273,11.189825)"
       style="stroke-width:2.24082351;stroke-miterlimit:4;stroke-dasharray:none">
      <g
         transform="rotate(-43.165781,95.356418,61.354192)"
         id="g1069"
         style="stroke-width:2.24082351;stroke-miterlimit:4;stroke-dasharray:none">
        <g
           id="g1037"
           style="fill:#c6c6c6;fill-opacity:1;stroke-width:2.24082351;stroke-miterlimit:4;stroke-dasharray:none">
          <rect
             rx="6.1010423"
             ry="5.8790903"
             y="167.90883"
             x="5.8799295"
             height="9.2907343"
             width="6.695169"
             id="rect1031"
             style="fill:#c6c6c6;fill-opacity:1;stroke:#000000;stroke-width:2.24082351;stroke-linecap:round;stroke-linejoin:round;stroke-miterlimit:4;stroke-dasharray:none;stroke-opacity:1;paint-order:fill markers stroke" />
          <rect
             style="fill:#c6c6c6;fill-opacity:1;stroke:#000000;stroke-width:2.24082351;stroke-linecap:round;stroke-linejoin:round;stroke-miterlimit:4;stroke-dasharray:none;stroke-opacity:1;paint-order:fill markers stroke"
             id="rect1033"
             width="6.695169"
             height="9.2907343"
             x="5.8799295"
             y="174.7879"
             ry="5.8790903"
             rx="6.1010423" />
        </g>
        <g
           id="g1043"
           transform="translate(6.3500003)"
           style="fill:#c6c6c6;fill-opacity:1;stroke-width:2.24082351;stroke-miterlimit:4;stroke-dasharray:none">
          <rect
             style="fill:#c6c6c6;fill-opacity:1;stroke:#000000;stroke-width:2.24082351;stroke-linecap:round;stroke-linejoin:round;stroke-miterlimit:4;stroke-dasharray:none;stroke-opacity:1;paint-order:fill markers stroke"
             id="rect1039"
             width="6.695169"
             height="9.2907343"
             x="5.8799295"
             y="167.90883"
             ry="5.8790903"
             rx="6.1010423" />
          <rect
             rx="6.1010423"
             ry="5.8790903"
             y="174.7879"
             x="5.8799295"
             height="9.2907343"
             width="6.695169"
             id="rect1041"
             style="fill:#c6c6c6;fill-opacity:1;stroke:#000000;stroke-width:2.24082351;stroke-linecap:round;stroke-linejoin:round;stroke-miterlimit:4;stroke-dasharray:none;stroke-opacity:1;paint-order:fill markers stroke" />
        </g>
        <g
           transform="translate(12.700002)"
           id="g1049"
           style="fill:#c6c6c6;fill-opacity:1;stroke-width:2.24082351;stroke-miterlimit:4;stroke-dasharray:none">
          <rect
             rx="6.1010423"
             ry="5.8790903"
             y="167.90883"
             x="5.8799295"
             height="9.2907343"
             width="6.695169"
             id="rect1045"
             style="fill:#c6c6c6;fill-opacity:1;stroke:#000000;stroke-width:2.24082351;stroke-linecap:round;stroke-linejoin:round;stroke-miterlimit:4;stroke-dasharray:none;stroke-opacity:1;paint-order:fill markers stroke" />
          <rect
             style="fill:#c6c6c6;fill-opacity:1;stroke:#000000;stroke-width:2.24082351;stroke-linecap:round;stroke-linejoin:round;stroke-miterlimit:4;stroke-dasharray:none;stroke-opacity:1;paint-order:fill markers stroke"
             id="rect1047"
             width="6.695169"
             height="9.2907343"
             x="5.8799295"
             y="174.7879"
             ry="5.8790903"
             rx="6.1010423" />
        </g>
        <g
           id="g1055"
           transform="translate(19.050006)"
           style="fill:#c6c6c6;fill-opacity:1;stroke-width:2.24082351;stroke-miterlimit:4;stroke-dasharray:none">
          <rect
             style="fill:#c6c6c6;fill-opacity:1;stroke:#000000;stroke-width:2.24082351;stroke-linecap:round;stroke-linejoin:round;stroke-miterlimit:4;stroke-dasharray:none;stroke-opacity:1;paint-order:fill markers stroke"
             id="rect1051"
             width="6.695169"
             height="9.2907343"
             x="5.8799295"
             y="167.90883"
             ry="5.8790903"
             rx="6.1010423" />
          <rect
             rx="6.1010423"
             ry="5.8790903"
             y="174.7879"
             x="5.8799295"
             height="9.2907343"
             width="6.695169"
             id="rect1053"
             style="fill:#c6c6c6;fill-opacity:1;stroke:#000000;stroke-width:2.24082351;stroke-linecap:round;stroke-linejoin:round;stroke-miterlimit:4;stroke-dasharray:none;stroke-opacity:1;paint-order:fill markers stroke" />
        </g>
      </g>
      <path
         sodipodi:nodetypes="cccccc"
         inkscape:connector-curvature="0"
         id="path1027"
         d="m 64.668768,150.81589 15.7689,11.75985 c 14.776555,10.96279 39.253852,9.93216 43.050342,10.62594 2.47626,17.99268 -23.775017,28.9212 -30.755937,32.97699 -5.839835,-15.70898 -21.464355,-28.08158 -32.339615,-40.12842 z"
         style="fill:#717171;fill-opacity:1;stroke:#000000;stroke-width:2.24082351;stroke-linecap:butt;stroke-linejoin:miter;stroke-miterlimit:4;stroke-dasharray:none;stroke-opacity:1" />
    </g>
    <g
       transform="matrix(0.65710749,-7.0285221e-4,6.7728289e-4,0.68191515,68.00739,0.53194965)"
       id="g1115"
       style="stroke-width:2.24082351;stroke-miterlimit:4;stroke-dasharray:none">
      <g
         id="g1111"
         transform="rotate(-43.165781,95.356418,61.354192)"
         style="stroke-width:2.24082351;stroke-miterlimit:4;stroke-dasharray:none">
        <g
           style="fill:#c6c6c6;fill-opacity:1;stroke-width:2.24082351;stroke-miterlimit:4;stroke-dasharray:none"
           id="g1091">
          <rect
             style="fill:#c6c6c6;fill-opacity:1;stroke:#000000;stroke-width:2.24082351;stroke-linecap:round;stroke-linejoin:round;stroke-miterlimit:4;stroke-dasharray:none;stroke-opacity:1;paint-order:fill markers stroke"
             id="rect1087"
             width="6.695169"
             height="9.2907343"
             x="5.8799295"
             y="167.90883"
             ry="5.8790903"
             rx="6.1010423" />
          <rect
             rx="6.1010423"
             ry="5.8790903"
             y="174.7879"
             x="5.8799295"
             height="9.2907343"
             width="6.695169"
             id="rect1089"
             style="fill:#c6c6c6;fill-opacity:1;stroke:#000000;stroke-width:2.24082351;stroke-linecap:round;stroke-linejoin:round;stroke-miterlimit:4;stroke-dasharray:none;stroke-opacity:1;paint-order:fill markers stroke" />
        </g>
        <g
           style="fill:#c6c6c6;fill-opacity:1;stroke-width:2.24082351;stroke-miterlimit:4;stroke-dasharray:none"
           transform="translate(6.3500003)"
           id="g1097">
          <rect
             rx="6.1010423"
             ry="5.8790903"
             y="167.90883"
             x="5.8799295"
             height="9.2907343"
             width="6.695169"
             id="rect1093"
             style="fill:#c6c6c6;fill-opacity:1;stroke:#000000;stroke-width:2.24082351;stroke-linecap:round;stroke-linejoin:round;stroke-miterlimit:4;stroke-dasharray:none;stroke-opacity:1;paint-order:fill markers stroke" />
          <rect
             style="fill:#c6c6c6;fill-opacity:1;stroke:#000000;stroke-width:2.24082351;stroke-linecap:round;stroke-linejoin:round;stroke-miterlimit:4;stroke-dasharray:none;stroke-opacity:1;paint-order:fill markers stroke"
             id="rect1095"
             width="6.695169"
             height="9.2907343"
             x="5.8799295"
             y="174.7879"
             ry="5.8790903"
             rx="6.1010423" />
        </g>
        <g
           style="fill:#c6c6c6;fill-opacity:1;stroke-width:2.24082351;stroke-miterlimit:4;stroke-dasharray:none"
           id="g1103"
           transform="translate(12.700002)">
          <rect
             style="fill:#c6c6c6;fill-opacity:1;stroke:#000000;stroke-width:2.24082351;stroke-linecap:round;stroke-linejoin:round;stroke-miterlimit:4;stroke-dasharray:none;stroke-opacity:1;paint-order:fill markers stroke"
             id="rect1099"
             width="6.695169"
             height="9.2907343"
             x="5.8799295"
             y="167.90883"
             ry="5.8790903"
             rx="6.1010423" />
          <rect
             rx="6.1010423"
             ry="5.8790903"
             y="174.7879"
             x="5.8799295"
             height="9.2907343"
             width="6.695169"
             id="rect1101"
             style="fill:#c6c6c6;fill-opacity:1;stroke:#000000;stroke-width:2.24082351;stroke-linecap:round;stroke-linejoin:round;stroke-miterlimit:4;stroke-dasharray:none;stroke-opacity:1;paint-order:fill markers stroke" />
        </g>
        <g
           style="fill:#c6c6c6;fill-opacity:1;stroke-width:2.24082351;stroke-miterlimit:4;stroke-dasharray:none"
           transform="translate(19.050006)"
           id="g1109">
          <rect
             rx="6.1010423"
             ry="5.8790903"
             y="167.90883"
             x="5.8799295"
             height="9.2907343"
             width="6.695169"
             id="rect1105"
             style="fill:#c6c6c6;fill-opacity:1;stroke:#000000;stroke-width:2.24082351;stroke-linecap:round;stroke-linejoin:round;stroke-miterlimit:4;stroke-dasharray:none;stroke-opacity:1;paint-order:fill markers stroke" />
          <rect
             style="fill:#c6c6c6;fill-opacity:1;stroke:#000000;stroke-width:2.24082351;stroke-linecap:round;stroke-linejoin:round;stroke-miterlimit:4;stroke-dasharray:none;stroke-opacity:1;paint-order:fill markers stroke"
             id="rect1107"
             width="6.695169"
             height="9.2907343"
             x="5.8799295"
             y="174.7879"
             ry="5.8790903"
             rx="6.1010423" />
        </g>
      </g>
      <path
         style="fill:#717171;fill-opacity:1;stroke:#000000;stroke-width:2.24082351;stroke-linecap:butt;stroke-linejoin:miter;stroke-miterlimit:4;stroke-dasharray:none;stroke-opacity:1"
         d="m 64.668768,150.81589 15.7689,11.75985 c 14.776555,10.96279 39.253852,9.93216 43.050342,10.62594 2.47626,17.99268 -23.775017,28.9212 -30.755937,32.97699 -5.839835,-15.70898 -21.464355,-28.08158 -32.339615,-40.12842 z"
         id="path1113"
         inkscape:connector-curvature="0"
         sodipodi:nodetypes="cccccc" />
    </g>
    <g
       id="g1159"
       transform="matrix(0.65710784,0,0,0.6819155,18.501851,20.245332)"
       style="stroke-width:2.24082351;stroke-miterlimit:4;stroke-dasharray:none">
      <g
         transform="translate(-19.048859,2.3595695)"
         id="g1016"
         style="stroke-width:2.24082351;stroke-miterlimit:4;stroke-dasharray:none">
        <path
           inkscape:connector-curvature="0"
           style="fill:#5e5e5e;fill-opacity:1;stroke:#000000;stroke-width:8.46925449;stroke-linecap:round;stroke-linejoin:round;stroke-miterlimit:4;stroke-dasharray:none;stroke-opacity:1"
           d="m 485.53516,438.94922 v 0.0293 c -77.32701,2.10006 -153.41075,11.64914 -226.96289,36.39843 -40.18783,17.78877 -59.48153,45.22094 -25.71485,97.14258 19.76238,28.14221 50.43984,41.00362 79.28516,56.42969 -83.75337,-158.5561 116.55877,-123.07435 172.14258,-104.28711 l 1.69531,-67.85938 1.69726,67.85938 c 55.58412,-18.78724 255.89788,-54.26899 172.14454,104.28711 28.84531,-15.42607 59.52276,-28.28748 79.28515,-56.42969 33.76668,-51.92164 14.47299,-79.35381 -25.71484,-97.14258 C 639.84036,450.62766 563.7552,441.07858 486.42773,438.97852 v -0.0293 c -0.14923,0.004 -0.29803,0.01 -0.44726,0.0137 -0.14858,-0.004 -0.29673,-0.01 -0.44531,-0.0137 z"
           transform="scale(0.26458333)"
           id="path1002" />
        <g
           id="g1000"
           transform="translate(1.0022607,-15.869129)"
           style="stroke-width:2.24082351;stroke-miterlimit:4;stroke-dasharray:none">
          <path
             transform="matrix(1.1054234,-0.01817753,0.01640333,1.2249868,-6.8854781,-28.839175)"
             inkscape:transform-center-y="-9.604735"
             inkscape:transform-center-x="-0.42811929"
             d="m 129.45684,145.24256 -10.02584,6.99582 -9.75157,-7.37332 3.99903,-11.55278 12.22312,0.23331 z"
             inkscape:randomized="0"
             inkscape:rounded="0"
             inkscape:flatsided="true"
             sodipodi:arg2="0.96156283"
             sodipodi:arg1="0.3332443"
             sodipodi:r2="8.4133711"
             sodipodi:r1="10.399498"
             sodipodi:cy="141.84077"
             sodipodi:cx="119.62946"
             sodipodi:sides="5"
             id="path987"
             style="fill:#7c3131;fill-opacity:1;stroke:#000000;stroke-width:0.6418131;stroke-linecap:round;stroke-linejoin:round;stroke-miterlimit:4;stroke-dasharray:none;stroke-opacity:1;paint-order:fill markers stroke"
             sodipodi:type="star" />
          <g
             transform="translate(0,6.9666666e-6)"
             id="g995"
             style="stroke-width:2.24082351;stroke-miterlimit:4;stroke-dasharray:none">
            <path
               transform="matrix(0.86853287,0.0133423,0.01288812,-0.89914012,21.925358,268.93583)"
               inkscape:transform-center-y="7.0498904"
               inkscape:transform-center-x="-0.33637846"
               d="m 129.45684,145.24256 -10.02584,6.99582 -9.75157,-7.37332 3.99903,-11.55278 12.22312,0.23331 z"
               inkscape:randomized="0"
               inkscape:rounded="0"
               inkscape:flatsided="true"
               sodipodi:arg2="0.96156283"
               sodipodi:arg1="0.3332443"
               sodipodi:r2="8.4133711"
               sodipodi:r1="10.399498"
               sodipodi:cy="141.84077"
               sodipodi:cx="119.62946"
               sodipodi:sides="5"
               id="path989"
               style="fill:#973b3b;fill-opacity:1;stroke:#000000;stroke-width:0.84514606;stroke-linecap:round;stroke-linejoin:round;stroke-miterlimit:4;stroke-dasharray:none;stroke-opacity:1;paint-order:fill markers stroke"
               sodipodi:type="star" />
          </g>
        </g>
      </g>
      <g
         transform="translate(-13.001236,-10.491621)"
         id="g985"
         style="stroke-width:2.24082351;stroke-miterlimit:4;stroke-dasharray:none">
        <path
           style="fill:#000000;fill-opacity:0.96995706;stroke:#000000;stroke-width:2.24082351;stroke-linecap:butt;stroke-linejoin:miter;stroke-miterlimit:4;stroke-dasharray:none;stroke-opacity:1"
           d="M 95.8723,125.84348 C 81.138471,114.97258 69.334595,100.69954 80.508928,90.625001 105.48701,71.595196 136.43952,62.190861 170.46726,57.741071 c -9.92875,12.805994 -6.94459,26.26284 -4.91369,40.06547 2.33352,8.372009 2.89655,16.554329 -8.69345,23.434529 l -7.80088,4.60242 c -21.72396,5.39862 -37.98377,3.41324 -53.18694,-1e-5 z"
           id="path877"
           inkscape:connector-curvature="0"
           sodipodi:nodetypes="ccccccc" />
        <g
           id="g875"
           transform="translate(18.63154,-16.942112)"
           style="stroke-width:2.24082351;stroke-miterlimit:4;stroke-dasharray:none">
          <path
             id="path815"
             transform="scale(0.26458333)"
             d="m 389.91797,280.05273 c -86.47213,5.8e-4 -156.57146,53.81875 -156.57227,120.20704 0.0497,40.50237 26.66263,78.2625 70.79688,100.45117 l -12.20899,38.95117 c 55.42552,14.33918 117.49779,20.44904 201.02149,0 l -16.85352,-39.12109 c 43.9139,-22.22776 70.3564,-59.89878 70.39063,-100.28125 -8.1e-4,-66.38887 -70.10133,-120.20729 -156.57422,-120.20704 z m 82.68555,88.36329 a 38.571427,42.499992 0 0 1 13.53906,32.31836 38.571427,42.499992 0 0 1 -38.57031,42.5 38.571427,42.499992 0 0 1 -35.98633,-27.21876 106.07142,67.5 0 0 0 61.01758,-47.5996 z M 299.25,405.13281 a 106.07142,67.5 0 0 0 69.67773,16.67188 106.07142,67.5 0 0 0 2.13282,-0.0469 38.571427,42.499993 0 0 1 -33.48828,21.47657 A 38.571427,42.499993 0 0 1 299.25,405.13281 Z"
             style="fill:#c6c6c6;fill-opacity:1;stroke:none;stroke-width:8.46925449;stroke-linecap:round;stroke-linejoin:round;stroke-miterlimit:4;stroke-dasharray:none;stroke-opacity:1;paint-order:fill markers stroke"
             inkscape:connector-curvature="0" />
          <path
             inkscape:transform-center-y="-1.1346115"
             inkscape:transform-center-x="0.039319472"
             d="m 107.84326,132.22833 -4.04817,-0.0795 -4.048558,-0.0567 2.092938,-3.46607 2.07338,-3.4778 1.95523,3.54557 z"
             inkscape:randomized="0"
             inkscape:rounded="0"
             inkscape:flatsided="false"
             sodipodi:arg2="1.5876171"
             sodipodi:arg1="0.5404195"
             sodipodi:r2="2.3262458"
             sodipodi:r1="4.6753073"
             sodipodi:cy="129.82291"
             sodipodi:cx="103.83421"
             sodipodi:sides="3"
             id="path871"
             style="fill:#808080;fill-opacity:1;stroke:none;stroke-width:2.24082351;stroke-linecap:round;stroke-linejoin:round;stroke-miterlimit:4;stroke-dasharray:none;stroke-opacity:1;paint-order:fill markers stroke"
             sodipodi:type="star" />
        </g>
        <path
           style="fill:none;fill-opacity:0.74678111;stroke:#000000;stroke-width:2.24082351;stroke-linecap:butt;stroke-linejoin:miter;stroke-miterlimit:4;stroke-dasharray:none;stroke-opacity:1"
           d="M 122.73302,129.38469 C 112.82334,129.21664 103.6451,128.27412 95.8723,125.84348 80.372416,113.41207 69.796058,101.30889 80.508928,90.625001 108.26782,70.084416 138.80437,61.232017 170.46726,57.741071 c -9.41659,13.355157 -7.35986,26.71031 -4.91369,40.06547 3.16492,9.878759 3.21132,19.565609 -16.49433,28.036949 -8.85576,2.8679 -17.59399,3.26743 -26.32622,3.5412 z"
           id="path879"
           inkscape:connector-curvature="0"
           sodipodi:nodetypes="ccccccc" />
        <path
           style="fill:#5e5e5e;fill-opacity:1;stroke:#000000;stroke-width:2.24082351;stroke-linecap:butt;stroke-linejoin:round;stroke-miterlimit:4;stroke-dasharray:none;stroke-opacity:1"
           d="m 170.46726,57.741071 c 6.45152,-7.053342 2.90694,-15.822049 -2.56569,-23.103427 -2.70888,0.158403 -4.99496,0.18744 -9.6217,1.069079 0.0572,-5.690952 -9.1137,-5.794367 -18.97614,-5.479026 -2.91453,-3.149946 -7.66155,-5.078234 -20.31248,-1.737252 C 11.966121,-4.816477 -16.571042,96.787051 47.916548,84.443121 59.01814,81.393998 63.327074,71.537692 66.740055,64.037293 67.599209,59.889495 68.673126,55.655792 62.597378,54.281955 54.815171,53.699151 49.763601,60.12856 45.114152,63.374682 49.201921,63.822684 60.045169,57.378559 55.91564,62.56731 35.307677,80.512224 38.588873,57.713927 49.902075,51.208355 c 23.6038,-8.326839 24.370545,-2.697702 22.71791,4.409947 -4.651686,10.289876 -6.879673,20.579753 -9.488068,30.869629 -4.746283,14.559229 -4.714602,31.515689 1.069078,38.353179 14.026252,14.5614 35.729015,8.61249 58.131125,4.67721 C 95.7312,131.56695 68.226884,105.25888 80.508928,90.625001 108.14166,67.682872 138.95251,60.920204 170.46726,57.741071 Z"
           id="path881"
           inkscape:connector-curvature="0"
           sodipodi:nodetypes="ccccccccccccccccc" />
        <path
           style="fill:none;stroke:#000000;stroke-width:2.24082351;stroke-linecap:round;stroke-linejoin:round;stroke-miterlimit:4;stroke-dasharray:none;stroke-opacity:1"
           d="m 161.35347,35.305819 c -16.00344,2.32581 -32.32993,9.001142 -44.23311,15.768901"
           id="path883"
           inkscape:connector-curvature="0"
           sodipodi:nodetypes="cc" />
        <path
           style="fill:none;stroke:#000000;stroke-width:2.24082351;stroke-linecap:round;stroke-linejoin:round;stroke-miterlimit:4;stroke-dasharray:none;stroke-opacity:1"
           d="m 139.83827,30.227696 c -12.53207,2.560784 -23.00822,6.21806 -30.20146,11.626225"
           id="path885"
           inkscape:connector-curvature="0"
           sodipodi:nodetypes="cc" />
        <path
           style="fill:#5e5e5e;fill-opacity:1;stroke:#000000;stroke-width:2.24082351;stroke-linecap:round;stroke-linejoin:round;stroke-miterlimit:4;stroke-dasharray:none;stroke-opacity:1"
           d="m 170.65625,57.552082 c -10.5426,14.482409 -7.54558,33.026709 -3.2128,51.971728 -0.12377,9.52968 -9.09561,12.89362 -19.65476,15.68601 l -23.62351,4.53571 c 10.48499,2.48348 16.59763,7.39605 35.34077,5.29167 17.31611,-3.43418 26.26753,-9.82061 17.95387,-22.3006 -11.40709,-17.707989 -8.87975,-34.979622 -6.80357,-55.184518 z"
           id="path889"
           inkscape:connector-curvature="0"
           sodipodi:nodetypes="ccccccc" />
        <path
           style="fill:none;stroke:#000000;stroke-width:2.24082351;stroke-linecap:round;stroke-linejoin:miter;stroke-miterlimit:4;stroke-dasharray:none;stroke-opacity:1"
           d="m 104.03466,126.41522 2.47225,-7.08264"
           id="path920"
           inkscape:connector-curvature="0"
           sodipodi:nodetypes="cc" />
        <path
           style="fill:none;stroke:#000000;stroke-width:2.24082351;stroke-linecap:round;stroke-linejoin:miter;stroke-miterlimit:4;stroke-dasharray:none;stroke-opacity:1"
           d="m 113.38909,128.82065 1.40317,-7.55037"
           id="path922"
           inkscape:connector-curvature="0"
           sodipodi:nodetypes="cc" />
        <path
           style="fill:none;stroke:#000000;stroke-width:2.24082351;stroke-linecap:round;stroke-linejoin:miter;stroke-miterlimit:4;stroke-dasharray:none;stroke-opacity:1"
           d="M 123.14443,128.82065 123.0108,121.738"
           id="path924"
           inkscape:connector-curvature="0" />
        <path
           style="fill:none;stroke:#000000;stroke-width:2.24082351;stroke-linecap:round;stroke-linejoin:miter;stroke-miterlimit:4;stroke-dasharray:none;stroke-opacity:1"
           d="m 132.36523,127.0834 -1.40316,-5.94676"
           id="path926"
           inkscape:connector-curvature="0"
           sodipodi:nodetypes="cc" />
        <path
           style="fill:none;stroke:#000000;stroke-width:2.24082351;stroke-linecap:round;stroke-linejoin:miter;stroke-miterlimit:4;stroke-dasharray:none;stroke-opacity:1"
           d="m 140.11604,125.14569 -1.93769,-5.07813"
           id="path928"
           inkscape:connector-curvature="0"
           sodipodi:nodetypes="cc" />
      </g>
    </g>
    <text
       xml:space="preserve"
       style="font-style:normal;font-weight:normal;font-size:2.66160369px;line-height:1.25;font-family:sans-serif;letter-spacing:0px;word-spacing:0px;fill:#000000;fill-opacity:1;stroke:none;stroke-width:0.26458332"
       x="165.52835"
       y="203.19856"
       id="text945"
       transform="scale(0.95775816,1.0441049)"><tspan
         sodipodi:role="line"
         id="tspan943"
         x="165.52835"
         y="203.19856"
         style="stroke-width:0.26458332">NSD</tspan></text>
  </g>
</svg>
