<?xml version="1.0" encoding="UTF-8" standalone="no"?>
<!-- Created with Inkscape (http://www.inkscape.org/) -->

<svg
   xmlns:dc="http://purl.org/dc/elements/1.1/"
   xmlns:cc="http://creativecommons.org/ns#"
   xmlns:rdf="http://www.w3.org/1999/02/22-rdf-syntax-ns#"
   xmlns:svg="http://www.w3.org/2000/svg"
   xmlns="http://www.w3.org/2000/svg"
   xmlns:sodipodi="http://sodipodi.sourceforge.net/DTD/sodipodi-0.dtd"
   xmlns:inkscape="http://www.inkscape.org/namespaces/inkscape"
   width="210mm"
   height="297mm"
   viewBox="0 0 210 297"
   version="1.1"
   id="svg8"
   inkscape:version="0.92.2 (5c3e80d, 2017-08-06)"
   sodipodi:docname="HP.svg">
  <defs
     id="defs2" />
  <sodipodi:namedview
     id="base"
     pagecolor="#ffffff"
     bordercolor="#666666"
     borderopacity="1.0"
     inkscape:pageopacity="0.0"
     inkscape:pageshadow="2"
     inkscape:zoom="0.7"
     inkscape:cx="276.80455"
     inkscape:cy="487.88793"
     inkscape:document-units="mm"
     inkscape:current-layer="layer1"
     showgrid="false"
     inkscape:snap-global="false"
     inkscape:window-width="1920"
     inkscape:window-height="1017"
     inkscape:window-x="-8"
     inkscape:window-y="-8"
     inkscape:window-maximized="1" />
  <metadata
     id="metadata5">
    <rdf:RDF>
      <cc:Work
         rdf:about="">
        <dc:format>image/svg+xml</dc:format>
        <dc:type
           rdf:resource="http://purl.org/dc/dcmitype/StillImage" />
        <dc:title />
      </cc:Work>
    </rdf:RDF>
  </metadata>
  <g
     inkscape:label="Layer 1"
     inkscape:groupmode="layer"
     id="layer1">
    <g
       id="g955"
       transform="matrix(0.89999914,0,0,0.89999912,-63.296593,-39.562026)"
       style="stroke-width:1.11111212">
      <path
         transform="scale(0.26458333)"
         id="path925"
         d="m 461.42773,549.57031 a 188.97638,188.97638 0 0 0 1.83399,0.0918 188.97638,188.97638 0 0 0 188.97656,-188.97656 188.97638,188.97638 0 0 0 -188.97656,-188.97657 188.97638,188.97638 0 0 0 -1.83399,0.0645 z"
         style="fill:#933249;fill-opacity:1;stroke:none;stroke-width:2.09973955;stroke-linecap:round;stroke-linejoin:round;stroke-miterlimit:4;stroke-dasharray:none;stroke-opacity:1;paint-order:fill markers stroke"
         inkscape:connector-curvature="0" />
      <path
         id="path815"
         d="M 122.38305,145.40714 V 45.448389 A 50.299877,50 0 0 0 72.571282,95.431384 50.299877,50 0 0 0 122.38305,145.40714 Z"
         style="fill:#ab3a55;fill-opacity:1;stroke:none;stroke-width:0.55555606;stroke-linecap:round;stroke-linejoin:round;stroke-miterlimit:4;stroke-dasharray:none;stroke-opacity:1;paint-order:fill markers stroke"
         inkscape:connector-curvature="0" />
      <g
         id="g920"
         transform="matrix(0.85889162,0,0,0.84099234,21.216539,-80.40522)"
         style="fill:#4a1925;fill-opacity:1;stroke-width:1.30735242">
        <circle
           r="9"
           cy="219.20833"
           cx="101.98213"
           id="circle896"
           style="fill:#4a1925;fill-opacity:1;stroke:none;stroke-width:0.65367621;stroke-linecap:round;stroke-linejoin:round;stroke-miterlimit:4;stroke-dasharray:none;stroke-opacity:1;paint-order:fill markers stroke" />
        <circle
           style="fill:#4a1925;fill-opacity:1;stroke:none;stroke-width:0.65367621;stroke-linecap:round;stroke-linejoin:round;stroke-miterlimit:4;stroke-dasharray:none;stroke-opacity:1;paint-order:fill markers stroke"
           id="circle898"
           cx="119.9738"
           cy="219.20833"
           r="9" />
        <circle
           r="9"
           cy="219.20833"
           cx="137.96533"
           id="circle900"
           style="fill:#4a1925;fill-opacity:1;stroke:none;stroke-width:0.65367621;stroke-linecap:round;stroke-linejoin:round;stroke-miterlimit:4;stroke-dasharray:none;stroke-opacity:1;paint-order:fill markers stroke" />
        <circle
           style="fill:#4a1925;fill-opacity:1;stroke:none;stroke-width:0.65367621;stroke-linecap:round;stroke-linejoin:round;stroke-miterlimit:4;stroke-dasharray:none;stroke-opacity:1;paint-order:fill markers stroke"
           id="circle902"
           cx="110.97797"
           cy="234.55396"
           r="9" />
        <circle
           r="9"
           cy="234.55396"
           cx="128.96962"
           id="circle904"
           style="fill:#4a1925;fill-opacity:1;stroke:none;stroke-width:0.65367621;stroke-linecap:round;stroke-linejoin:round;stroke-miterlimit:4;stroke-dasharray:none;stroke-opacity:1;paint-order:fill markers stroke" />
        <circle
           style="fill:#4a1925;fill-opacity:1;stroke:none;stroke-width:0.65367621;stroke-linecap:round;stroke-linejoin:round;stroke-miterlimit:4;stroke-dasharray:none;stroke-opacity:1;paint-order:fill markers stroke"
           id="circle906"
           cx="119.97382"
           cy="249.89958"
           r="9" />
        <circle
           style="fill:#4a1925;fill-opacity:1;stroke:none;stroke-width:0.65367621;stroke-linecap:round;stroke-linejoin:round;stroke-miterlimit:4;stroke-dasharray:none;stroke-opacity:1;paint-order:fill markers stroke"
           id="circle908"
           cx="92.986282"
           cy="203.8627"
           r="9" />
        <circle
           r="9"
           cy="203.8627"
           cx="110.97799"
           id="circle910"
           style="fill:#4a1925;fill-opacity:1;stroke:none;stroke-width:0.65367621;stroke-linecap:round;stroke-linejoin:round;stroke-miterlimit:4;stroke-dasharray:none;stroke-opacity:1;paint-order:fill markers stroke" />
        <circle
           style="fill:#4a1925;fill-opacity:1;stroke:none;stroke-width:0.65367621;stroke-linecap:round;stroke-linejoin:round;stroke-miterlimit:4;stroke-dasharray:none;stroke-opacity:1;paint-order:fill markers stroke"
           id="circle912"
           cx="128.96962"
           cy="203.8627"
           r="9" />
        <circle
           r="9"
           cy="203.8627"
           cx="146.96104"
           id="circle914"
           style="fill:#4a1925;fill-opacity:1;stroke:none;stroke-width:0.65367621;stroke-linecap:round;stroke-linejoin:round;stroke-miterlimit:4;stroke-dasharray:none;stroke-opacity:1;paint-order:fill markers stroke" />
        <path
           inkscape:connector-curvature="0"
           id="path916"
           d="m 144.49902,171.89305 a 15.501633,17.305702 47.724642 0 0 -18.37112,3.61948 15.501633,17.305702 47.724642 0 0 -5.34698,17.9444 15.501633,17.305702 47.724642 0 0 18.37142,-3.61835 15.501633,17.305702 47.724642 0 0 5.34668,-17.94553 z"
           style="fill:#4a1925;fill-opacity:1;stroke:none;stroke-width:0.65367621;stroke-linecap:round;stroke-linejoin:round;stroke-miterlimit:4;stroke-dasharray:none;stroke-opacity:1;paint-order:fill markers stroke" />
        <path
           style="fill:#4a1925;fill-opacity:1;stroke:none;stroke-width:0.65367621;stroke-linecap:round;stroke-linejoin:round;stroke-miterlimit:4;stroke-dasharray:none;stroke-opacity:1;paint-order:fill markers stroke"
           d="m 95.381137,171.89305 a 17.305702,15.501633 42.275358 0 1 18.371093,3.61948 17.305702,15.501633 42.275358 0 1 5.34698,17.9444 17.305702,15.501633 42.275358 0 1 -18.37142,-3.61835 17.305702,15.501633 42.275358 0 1 -5.346653,-17.94553 z"
           id="path918"
           inkscape:connector-curvature="0" />
      </g>
      <g
         style="fill:#f3dbe1;fill-opacity:1;stroke-width:1.30735242"
         transform="matrix(0.85889162,0,0,0.84099234,19.099871,-83.580222)"
         id="g894">
        <circle
           style="fill:#f3dbe1;fill-opacity:1;stroke:none;stroke-width:0.65367621;stroke-linecap:round;stroke-linejoin:round;stroke-miterlimit:4;stroke-dasharray:none;stroke-opacity:1;paint-order:fill markers stroke"
           id="path827"
           cx="101.98213"
           cy="219.20833"
           r="9" />
        <circle
           r="9"
           cy="219.20833"
           cx="119.9738"
           id="circle829"
           style="fill:#f3dbe1;fill-opacity:1;stroke:none;stroke-width:0.65367621;stroke-linecap:round;stroke-linejoin:round;stroke-miterlimit:4;stroke-dasharray:none;stroke-opacity:1;paint-order:fill markers stroke" />
        <circle
           style="fill:#f3dbe1;fill-opacity:1;stroke:none;stroke-width:0.65367621;stroke-linecap:round;stroke-linejoin:round;stroke-miterlimit:4;stroke-dasharray:none;stroke-opacity:1;paint-order:fill markers stroke"
           id="circle831"
           cx="137.96533"
           cy="219.20833"
           r="9" />
        <circle
           r="9"
           cy="234.55396"
           cx="110.97797"
           id="circle833"
           style="fill:#f3dbe1;fill-opacity:1;stroke:none;stroke-width:0.65367621;stroke-linecap:round;stroke-linejoin:round;stroke-miterlimit:4;stroke-dasharray:none;stroke-opacity:1;paint-order:fill markers stroke" />
        <circle
           style="fill:#f3dbe1;fill-opacity:1;stroke:none;stroke-width:0.65367621;stroke-linecap:round;stroke-linejoin:round;stroke-miterlimit:4;stroke-dasharray:none;stroke-opacity:1;paint-order:fill markers stroke"
           id="circle835"
           cx="128.96962"
           cy="234.55396"
           r="9" />
        <circle
           r="9"
           cy="249.89958"
           cx="119.97382"
           id="circle837"
           style="fill:#f3dbe1;fill-opacity:1;stroke:none;stroke-width:0.65367621;stroke-linecap:round;stroke-linejoin:round;stroke-miterlimit:4;stroke-dasharray:none;stroke-opacity:1;paint-order:fill markers stroke" />
        <circle
           r="9"
           cy="203.8627"
           cx="92.986282"
           id="circle839"
           style="fill:#f3dbe1;fill-opacity:1;stroke:none;stroke-width:0.65367621;stroke-linecap:round;stroke-linejoin:round;stroke-miterlimit:4;stroke-dasharray:none;stroke-opacity:1;paint-order:fill markers stroke" />
        <circle
           style="fill:#f3dbe1;fill-opacity:1;stroke:none;stroke-width:0.65367621;stroke-linecap:round;stroke-linejoin:round;stroke-miterlimit:4;stroke-dasharray:none;stroke-opacity:1;paint-order:fill markers stroke"
           id="circle841"
           cx="110.97799"
           cy="203.8627"
           r="9" />
        <circle
           r="9"
           cy="203.8627"
           cx="128.96962"
           id="circle843"
           style="fill:#f3dbe1;fill-opacity:1;stroke:none;stroke-width:0.65367621;stroke-linecap:round;stroke-linejoin:round;stroke-miterlimit:4;stroke-dasharray:none;stroke-opacity:1;paint-order:fill markers stroke" />
        <circle
           style="fill:#f3dbe1;fill-opacity:1;stroke:none;stroke-width:0.65367621;stroke-linecap:round;stroke-linejoin:round;stroke-miterlimit:4;stroke-dasharray:none;stroke-opacity:1;paint-order:fill markers stroke"
           id="circle845"
           cx="146.96104"
           cy="203.8627"
           r="9" />
        <path
           style="fill:#f3dbe1;fill-opacity:1;stroke:none;stroke-width:0.65367621;stroke-linecap:round;stroke-linejoin:round;stroke-miterlimit:4;stroke-dasharray:none;stroke-opacity:1;paint-order:fill markers stroke"
           d="m 144.49902,171.89305 a 15.501633,17.305702 47.724642 0 0 -18.37112,3.61948 15.501633,17.305702 47.724642 0 0 -5.34698,17.9444 15.501633,17.305702 47.724642 0 0 18.37142,-3.61835 15.501633,17.305702 47.724642 0 0 5.34668,-17.94553 z"
           id="path847"
           inkscape:connector-curvature="0" />
        <path
           inkscape:connector-curvature="0"
           id="path852"
           d="m 95.381137,171.89305 a 17.305702,15.501633 42.275358 0 1 18.371093,3.61948 17.305702,15.501633 42.275358 0 1 5.34698,17.9444 17.305702,15.501633 42.275358 0 1 -18.37142,-3.61835 17.305702,15.501633 42.275358 0 1 -5.346653,-17.94553 z"
           style="fill:#f3dbe1;fill-opacity:1;stroke:none;stroke-width:0.65367621;stroke-linecap:round;stroke-linejoin:round;stroke-miterlimit:4;stroke-dasharray:none;stroke-opacity:1;paint-order:fill markers stroke" />
      </g>
    </g>
    <g
       id="g983"
       transform="translate(5.8745573,-3.736401)">
      <path
         inkscape:connector-curvature="0"
         style="fill:#aa5f1b;fill-opacity:1;stroke:none;stroke-width:0.49999997;stroke-linecap:round;stroke-linejoin:round;stroke-miterlimit:4;stroke-dasharray:none;stroke-opacity:1;paint-order:fill markers stroke"
         d="m 157.36834,94.970705 a 44.999958,44.999955 0 0 0 0.43672,0.0219 44.999958,44.999955 0 0 0 45,-44.999993 44.999958,44.999955 0 0 0 -45,-45.0000003 44.999958,44.999955 0 0 0 -0.43672,0.01536 z"
         id="path925-5" />
      <path
         inkscape:connector-curvature="0"
         style="fill:#be6e27;fill-opacity:1;stroke:none;stroke-width:0.49999997;stroke-linecap:round;stroke-linejoin:round;stroke-miterlimit:4;stroke-dasharray:none;stroke-opacity:1;paint-order:fill markers stroke"
         d="M 157.74632,94.970705 V 5.0079117 a 45.381639,44.999955 0 0 0 -44.94126,44.9846503 45.381639,44.999955 0 0 0 44.94126,44.978143 z"
         id="path815-0" />
    </g>
    <g
       id="g1001"
       transform="translate(-110.01306,94.159486)">
      <path
         inkscape:connector-curvature="0"
         style="fill:#769332;fill-opacity:1;stroke:none;stroke-width:0.49999997;stroke-linecap:round;stroke-linejoin:round;stroke-miterlimit:4;stroke-dasharray:none;stroke-opacity:1;paint-order:fill markers stroke"
         d="m 157.36834,94.970705 a 44.999958,44.999955 0 0 0 0.43672,0.0219 44.999958,44.999955 0 0 0 45,-44.999993 44.999958,44.999955 0 0 0 -45,-45.0000003 44.999958,44.999955 0 0 0 -0.43672,0.01536 z"
         id="path997" />
      <path
         inkscape:connector-curvature="0"
         style="fill:#8bab3a;fill-opacity:1;stroke:none;stroke-width:0.49999997;stroke-linecap:round;stroke-linejoin:round;stroke-miterlimit:4;stroke-dasharray:none;stroke-opacity:1;paint-order:fill markers stroke"
         d="M 157.36834,94.970705 V 5.0079117 a 44.999958,44.999955 0 0 0 -44.56328,44.9846503 44.999958,44.999955 0 0 0 44.56328,44.978143 z"
         id="path999" />
    </g>
    <g
       id="g999"
       transform="matrix(0.84579291,0,0,0.85460292,160.15048,-3.3536735)"
       style="stroke-width:1.17621255">
      <path
         style="fill:#44551d;fill-opacity:1;stroke:none;stroke-width:0.58810622;stroke-linecap:round;stroke-linejoin:round;stroke-miterlimit:4;stroke-dasharray:none;stroke-opacity:1;paint-order:fill markers stroke"
         d="m -138.63138,137.13983 a 9.9235305,8.8343857 33.640865 0 0 -5.0438,1.66104 9.9235305,8.8343857 33.640865 0 0 5.23943,9.43449 9.9235305,8.8343857 33.640865 0 0 10.64119,-0.1956 9.9235305,8.8343857 33.640865 0 0 -5.23983,-9.43372 9.9235305,8.8343857 33.640865 0 0 -5.59699,-1.46621 z m 12.81947,5.90219 c -0.12053,0.003 -0.24012,0.0122 -0.35911,0.0273 -0.0789,3.5351 -1.86111,6.41755 -3.06929,9.51997 2.40591,-2.74482 4.15708,-5.79388 9.15671,-7.33374 -1.94563,-1.01914 -3.92034,-2.26175 -5.72831,-2.21357 z m -12.42162,8.72796 a 24.084507,24.712598 0 0 0 -24.08473,24.71266 24.084507,24.712598 0 0 0 24.08473,24.71265 24.084507,24.712598 0 0 0 8.75963,-1.69454 24.084507,24.712598 0 0 0 8.69456,1.69454 24.084507,24.712598 0 0 0 24.084319,-24.71265 24.084507,24.712598 0 0 0 -24.084319,-24.71266 24.084507,24.712598 0 0 0 -8.76003,1.69454 24.084507,24.712598 0 0 0 -8.69416,-1.69454 z"
         id="path1037"
         inkscape:connector-curvature="0" />
      <path
         inkscape:connector-curvature="0"
         id="path1009"
         d="m -142.33557,135.02315 a 9.9235305,8.8343857 33.640865 0 0 -5.0438,1.66104 9.9235305,8.8343857 33.640865 0 0 5.23943,9.43449 9.9235305,8.8343857 33.640865 0 0 10.64119,-0.1956 9.9235305,8.8343857 33.640865 0 0 -5.23983,-9.43372 9.9235305,8.8343857 33.640865 0 0 -5.59699,-1.46621 z m 12.81947,5.90219 c -0.12053,0.003 -0.24012,0.0122 -0.35911,0.0273 -0.0789,3.5351 -1.86111,6.41755 -3.06929,9.51997 2.40591,-2.74482 4.15708,-5.79388 9.15671,-7.33374 -1.94563,-1.01914 -3.92034,-2.26175 -5.72831,-2.21357 z m -12.42162,8.72796 a 24.084507,24.712598 0 0 0 -24.08473,24.71266 24.084507,24.712598 0 0 0 24.08473,24.71265 24.084507,24.712598 0 0 0 8.75963,-1.69454 24.084507,24.712598 0 0 0 8.69456,1.69454 24.084507,24.712598 0 0 0 24.08434,-24.71265 24.084507,24.712598 0 0 0 -24.08434,-24.71266 24.084507,24.712598 0 0 0 -8.76003,1.69454 24.084507,24.712598 0 0 0 -8.69416,-1.69454 z"
         style="fill:#f3dbe1;fill-opacity:1;stroke:none;stroke-width:0.58810622;stroke-linecap:round;stroke-linejoin:round;stroke-miterlimit:4;stroke-dasharray:none;stroke-opacity:1;paint-order:fill markers stroke" />
    </g>
    <g
       id="g1035"
       transform="matrix(0.55146615,-0.0409824,0.03894201,0.52401026,94.172847,-153.54924)"
       style="stroke-width:1.85513175">
      <path
         style="fill:#57391d;fill-opacity:1;stroke:none;stroke-width:0.49083689px;stroke-linecap:butt;stroke-linejoin:miter;stroke-opacity:1"
         d="m 134.18319,325.70219 c -4.60967,-2.29552 -11.69173,0.46978 -15.32102,11.63638 1.27835,5.05547 0.87587,11.65637 -2.27577,20.0202 0.0244,0.80655 0.0578,1.62782 0.10397,2.46929 0.69499,-0.41028 1.36683,-0.82058 2.02298,-1.23085 5.30808,-8.40249 10.91701,-12.7956 16.18983,-14.5256 5.9681,-8.9089 3.82949,-16.10361 -0.71999,-18.36942 z m -25.59033,3.13483 c -9.663041,-5.06938 -22.830955,-1.10843 -20.073328,7.93214 1.29602,4.2488 13.359628,3.95448 16.726348,7.42765 3.64236,3.75756 7.56579,13.66611 9.09552,18.08735 7.85856,-18.84673 2.25796,-29.24677 -5.74854,-33.44714 z m 37.80987,18.88332 c -8.16778,-3.87752 -19.84605,-2.10704 -30.1922,15.49732 4.45354,-1.43303 14.73135,-4.24908 19.92345,-3.59446 4.79914,0.60508 11.81126,10.42635 15.98654,8.91008 8.88408,-3.22637 4.13987,-16.13315 -5.71779,-20.81294 z m -31.71764,15.15945 -0.0201,0.0402 c -14.45208,-4.6448 -28.670178,6.62658 -32.534009,24.0793 l -12.300966,65.69326 -0.445619,0.89225 0.34994,-0.38262 -0.09567,0.50962 0.445619,-0.89226 45.129425,-49.29781 c 11.63147,-13.57334 12.10072,-31.71129 -0.29445,-40.47474 l 0.0201,-0.0402 c -0.0454,-0.016 -0.0915,-0.0282 -0.1373,-0.0431 -0.0395,-0.0276 -0.0772,-0.0565 -0.11697,-0.0838 z"
         id="path1031"
         inkscape:connector-curvature="0" />
      <path
         inkscape:connector-curvature="0"
         id="path1004"
         d="m 130.479,322.52717 c -4.60967,-2.29552 -11.69173,0.46978 -15.32102,11.63638 1.27835,5.05547 0.87587,11.65637 -2.27577,20.0202 0.0244,0.80655 0.0578,1.62782 0.10397,2.46929 0.69499,-0.41028 1.36683,-0.82058 2.02298,-1.23085 5.30808,-8.40249 10.91701,-12.7956 16.18983,-14.5256 5.9681,-8.9089 3.82949,-16.10361 -0.71999,-18.36942 z m -25.59033,3.13483 c -9.66302,-5.06938 -22.830934,-1.10843 -20.073307,7.93214 1.29602,4.2488 13.359623,3.95448 16.726327,7.42765 3.64236,3.75756 7.56579,13.66611 9.09552,18.08735 7.85856,-18.84673 2.25796,-29.24677 -5.74854,-33.44714 z m 37.80987,18.88332 c -8.16778,-3.87752 -19.84605,-2.10704 -30.1922,15.49732 4.45354,-1.43303 14.73135,-4.24908 19.92345,-3.59446 4.79914,0.60508 11.81126,10.42635 15.98654,8.91008 8.88408,-3.22637 4.13987,-16.13315 -5.71779,-20.81294 z m -31.71764,15.15945 -0.0201,0.0402 c -14.452057,-4.6448 -28.670157,6.62658 -32.533988,24.0793 l -12.300966,65.69326 -0.445619,0.89225 0.34994,-0.38262 -0.09567,0.50962 0.445619,-0.89226 45.129404,-49.29781 c 11.63147,-13.57334 12.10072,-31.71129 -0.29445,-40.47474 l 0.0201,-0.0402 c -0.0454,-0.016 -0.0915,-0.0282 -0.1373,-0.0431 -0.0395,-0.0276 -0.0772,-0.0565 -0.11697,-0.0838 z"
         style="fill:#f3dbe1;fill-opacity:1;stroke:none;stroke-width:0.49083689px;stroke-linecap:butt;stroke-linejoin:miter;stroke-opacity:1" />
    </g>
    <g
       id="g1116">
      <g
         transform="translate(5.8745573,192.58507)"
         id="g995">
        <path
           id="path991"
           d="m 157.36834,94.970705 a 44.999958,44.999955 0 0 0 0.43672,0.0219 44.999958,44.999955 0 0 0 45,-44.999993 44.999958,44.999955 0 0 0 -45,-45.0000003 44.999958,44.999955 0 0 0 -0.43672,0.01536 z"
           style="fill:#93328d;fill-opacity:1;stroke:none;stroke-width:0.49999997;stroke-linecap:round;stroke-linejoin:round;stroke-miterlimit:4;stroke-dasharray:none;stroke-opacity:1;paint-order:fill markers stroke"
           inkscape:connector-curvature="0" />
        <path
           id="path993"
           d="M 157.76925,94.970705 V 5.0079117 a 45.404791,44.999955 0 0 0 -44.96419,44.9846503 45.404791,44.999955 0 0 0 44.96419,44.978143 z"
           style="fill:#ab3aa4;fill-opacity:1;stroke:none;stroke-width:0.49999997;stroke-linecap:round;stroke-linejoin:round;stroke-miterlimit:4;stroke-dasharray:none;stroke-opacity:1;paint-order:fill markers stroke"
           inkscape:connector-curvature="0" />
      </g>
      <g
         id="g1099"
         transform="matrix(0.17384629,0,0,0.17107227,187.05967,193.88481)"
         style="stroke-width:5.79865789">
        <path
           inkscape:connector-curvature="0"
           id="path1089"
           d="m -67.478686,340.43202 a 50,50 0 0 0 -43.091844,56.0629 50,50 0 0 0 56.062469,43.09243 50,50 0 0 0 15.109578,-4.55055 50,50 0 0 0 15.848028,0.50095 50,50 0 0 0 43.091845,-56.06293 50,50 0 0 0 -56.06247,-43.0924 50,50 0 0 0 -15.109138,4.54995 50,50 0 0 0 -15.848468,-0.50035 z"
           style="fill:#5f205a;fill-opacity:1;stroke:none;stroke-width:2.89932895;stroke-linecap:round;stroke-linejoin:round;stroke-miterlimit:4;stroke-dasharray:none;stroke-opacity:1;paint-order:fill markers stroke" />
        <path
           inkscape:connector-curvature="0"
           style="fill:#5f205a;fill-opacity:1;stroke:none;stroke-width:2.89932895;stroke-linecap:round;stroke-linejoin:round;stroke-miterlimit:4;stroke-dasharray:none;stroke-opacity:1;paint-order:fill markers stroke"
           d="m -193.0939,334.94127 a 50,50 0 0 0 -55.72927,43.52276 50,50 0 0 0 43.52249,55.72951 50,50 0 0 0 15.76738,-0.63235 50,50 0 0 0 15.22067,4.44349 50,50 0 0 0 55.72931,-43.52279 50,50 0 0 0 -43.52253,-55.72948 50,50 0 0 0 -15.76679,0.63188 50,50 0 0 0 -15.22126,-4.44302 z"
           id="path1091" />
        <path
           sodipodi:nodetypes="ccc"
           inkscape:connector-curvature="0"
           id="path1093"
           d="m -188.69228,391.54871 c 11.20563,-63.96667 22.33087,-127.95489 71.09369,-181.8529 49.789115,59.05339 64.070847,120.78405 80.715395,182.33655"
           style="fill:none;stroke:#5f205a;stroke-width:5.79865789;stroke-linecap:butt;stroke-linejoin:miter;stroke-miterlimit:4;stroke-dasharray:none;stroke-opacity:1" />
        <path
           inkscape:connector-curvature="0"
           id="path1095"
           d="m -18.863893,124.27957 a 60.317794,68.377485 59.577279 0 0 -73.87289,13.83845 60.317794,68.377485 59.577279 0 0 -21.500937,68.60749 60.317794,68.377485 59.577279 0 0 73.874027,-13.83416 60.317794,68.377485 59.577279 0 0 21.4998,-68.61178 z"
           style="fill:#5f205a;fill-opacity:1;stroke:none;stroke-width:2.89932871;stroke-linecap:round;stroke-linejoin:round;stroke-miterlimit:4;stroke-dasharray:none;stroke-opacity:1;paint-order:fill markers stroke" />
        <path
           style="fill:#5f205a;fill-opacity:1;stroke:none;stroke-width:2.89932871;stroke-linecap:round;stroke-linejoin:round;stroke-miterlimit:4;stroke-dasharray:none;stroke-opacity:1;paint-order:fill markers stroke"
           d="m -216.36613,124.27957 a 68.377485,60.317794 30.422721 0 1 73.87318,13.83845 68.377485,60.317794 30.422721 0 1 21.50111,68.60749 68.377485,60.317794 30.422721 0 1 -73.87449,-13.83416 68.377485,60.317794 30.422721 0 1 -21.4998,-68.61178 z"
           id="path1097"
           inkscape:connector-curvature="0" />
      </g>
      <g
         style="stroke-width:5.79865789"
         transform="matrix(0.17384629,0,0,0.17107227,184.33842,191.27829)"
         id="g1075">
        <path
           style="fill:#f3dbe1;fill-opacity:1;stroke:none;stroke-width:2.89932895;stroke-linecap:round;stroke-linejoin:round;stroke-miterlimit:4;stroke-dasharray:none;stroke-opacity:1;paint-order:fill markers stroke"
           d="m -67.478686,340.43202 a 50,50 0 0 0 -43.091844,56.0629 50,50 0 0 0 56.062469,43.09243 50,50 0 0 0 15.109578,-4.55055 50,50 0 0 0 15.848028,0.50095 50,50 0 0 0 43.091845,-56.06293 50,50 0 0 0 -56.06247,-43.0924 50,50 0 0 0 -15.109138,4.54995 50,50 0 0 0 -15.848468,-0.50035 z"
           id="path1040"
           inkscape:connector-curvature="0" />
        <path
           id="path1049"
           d="m -193.0939,334.94127 a 50,50 0 0 0 -55.72927,43.52276 50,50 0 0 0 43.52249,55.72951 50,50 0 0 0 15.76738,-0.63235 50,50 0 0 0 15.22067,4.44349 50,50 0 0 0 55.72931,-43.52279 50,50 0 0 0 -43.52253,-55.72948 50,50 0 0 0 -15.76679,0.63188 50,50 0 0 0 -15.22126,-4.44302 z"
           style="fill:#f3dbe1;fill-opacity:1;stroke:none;stroke-width:2.89932895;stroke-linecap:round;stroke-linejoin:round;stroke-miterlimit:4;stroke-dasharray:none;stroke-opacity:1;paint-order:fill markers stroke"
           inkscape:connector-curvature="0" />
        <path
           style="fill:none;stroke:#f3dbe1;stroke-width:5.79865789;stroke-linecap:butt;stroke-linejoin:miter;stroke-miterlimit:4;stroke-dasharray:none;stroke-opacity:1"
           d="m -188.69228,391.54871 c 11.20563,-63.96667 22.33087,-127.95489 71.09369,-181.8529 49.789115,59.05339 64.070847,120.78405 80.715395,182.33655"
           id="path1051"
           inkscape:connector-curvature="0"
           sodipodi:nodetypes="ccc" />
        <path
           style="fill:#f3dbe1;fill-opacity:1;stroke:none;stroke-width:2.89932871;stroke-linecap:round;stroke-linejoin:round;stroke-miterlimit:4;stroke-dasharray:none;stroke-opacity:1;paint-order:fill markers stroke"
           d="m -18.863893,124.27957 a 60.317794,68.377485 59.577279 0 0 -73.87289,13.83845 60.317794,68.377485 59.577279 0 0 -21.500937,68.60749 60.317794,68.377485 59.577279 0 0 73.874027,-13.83416 60.317794,68.377485 59.577279 0 0 21.4998,-68.61178 z"
           id="path847-8"
           inkscape:connector-curvature="0" />
        <path
           inkscape:connector-curvature="0"
           id="path1068"
           d="m -216.36613,124.27957 a 68.377485,60.317794 30.422721 0 1 73.87318,13.83845 68.377485,60.317794 30.422721 0 1 21.50111,68.60749 68.377485,60.317794 30.422721 0 1 -73.87449,-13.83416 68.377485,60.317794 30.422721 0 1 -21.4998,-68.61178 z"
           style="fill:#f3dbe1;fill-opacity:1;stroke:none;stroke-width:2.89932871;stroke-linecap:round;stroke-linejoin:round;stroke-miterlimit:4;stroke-dasharray:none;stroke-opacity:1;paint-order:fill markers stroke" />
      </g>
    </g>
    <g
       id="g1186">
      <g
         id="g1007"
         transform="translate(-110.01306,192.58507)">
        <path
           inkscape:connector-curvature="0"
           style="fill:#324993;fill-opacity:1;stroke:none;stroke-width:0.49999997;stroke-linecap:round;stroke-linejoin:round;stroke-miterlimit:4;stroke-dasharray:none;stroke-opacity:1;paint-order:fill markers stroke"
           d="m 157.36834,94.970705 a 44.999958,44.999955 0 0 0 0.43672,0.0219 44.999958,44.999955 0 0 0 45,-44.999993 44.999958,44.999955 0 0 0 -45,-45.0000003 44.999958,44.999955 0 0 0 -0.43672,0.01536 z"
           id="path1003" />
        <path
           inkscape:connector-curvature="0"
           style="fill:#3a55ab;fill-opacity:1;stroke:none;stroke-width:0.49999997;stroke-linecap:round;stroke-linejoin:round;stroke-miterlimit:4;stroke-dasharray:none;stroke-opacity:1;paint-order:fill markers stroke"
           d="M 157.90289,94.970705 V 5.0079117 a 45.539737,44.999955 0 0 0 -45.09783,44.9846503 45.539737,44.999955 0 0 0 45.09783,44.978143 z"
           id="path1005" />
      </g>
      <g
         transform="rotate(11.300412,56.348136,233.17101)"
         id="g1172">
        <g
           transform="translate(2.4568453,-0.15119036)"
           id="g1162"
           style="fill:#182448;fill-opacity:1">
          <path
             style="fill:#182448;fill-opacity:1;stroke:none;stroke-width:1;stroke-linecap:round;stroke-linejoin:round;stroke-miterlimit:4;stroke-dasharray:none;stroke-opacity:1;paint-order:fill markers stroke"
             d="m 44.209484,223.67258 a 14.632541,23.056546 0 0 0 -14.632699,23.05647 14.632541,23.056546 0 0 0 14.632699,23.05647 14.632541,23.056546 0 0 0 3.869015,-0.82372 14.632541,23.056546 0 0 0 3.812686,0.82372 14.632541,23.056546 0 0 0 14.632699,-23.05647 14.632541,23.056546 0 0 0 -1.842265,-11.18536 13.263391,11.833867 27.857721 0 1 -10.038146,-2.1115 13.263391,11.833867 27.857721 0 1 -6.204272,-9.09247 14.632541,23.056546 0 0 0 -0.417029,0.15658 14.632541,23.056546 0 0 0 -3.812688,-0.82372 z"
             id="path1156"
             inkscape:connector-curvature="0" />
          <path
             style="fill:#182448;fill-opacity:1;stroke:none;stroke-width:0.26458332px;stroke-linecap:butt;stroke-linejoin:miter;stroke-opacity:1"
             d="m 47.2919,218.18234 c 0.6748,1.8824 0.56036,3.89635 0.75595,5.85862 0.2193,-2.61745 0.39724,-5.25214 1.13393,-7.65401 -0.91438,0.33077 -1.72343,0.76068 -1.88988,1.79539 z"
             id="path1158"
             inkscape:connector-curvature="0"
             sodipodi:nodetypes="cccc" />
          <path
             inkscape:connector-curvature="0"
             id="path1160"
             d="m 49.47257,219.61541 a 13.263391,11.833867 27.857721 0 1 14.455423,0.45929 13.263391,11.833867 27.857721 0 1 6.229121,12.75742 13.263391,11.833867 27.857721 0 1 -14.455534,-0.45841 13.263391,11.833867 27.857721 0 1 -6.22901,-12.7583 z"
             style="fill:#182448;fill-opacity:1;stroke:none;stroke-width:0.49999997;stroke-linecap:round;stroke-linejoin:round;stroke-miterlimit:4;stroke-dasharray:none;stroke-opacity:1;paint-order:fill markers stroke" />
        </g>
        <g
           id="g1154"
           transform="translate(-0.1889881,-2.2678571)">
          <path
             inkscape:connector-curvature="0"
             id="path1118"
             d="m 44.209484,223.67258 a 14.632541,23.056546 0 0 0 -14.632699,23.05647 14.632541,23.056546 0 0 0 14.632699,23.05647 14.632541,23.056546 0 0 0 3.869015,-0.82372 14.632541,23.056546 0 0 0 3.812686,0.82372 14.632541,23.056546 0 0 0 14.632699,-23.05647 14.632541,23.056546 0 0 0 -1.842265,-11.18536 13.263391,11.833867 27.857721 0 1 -10.038146,-2.1115 13.263391,11.833867 27.857721 0 1 -6.204272,-9.09247 14.632541,23.056546 0 0 0 -0.417029,0.15658 14.632541,23.056546 0 0 0 -3.812688,-0.82372 z"
             style="fill:#f3dbe1;fill-opacity:1;stroke:none;stroke-width:1;stroke-linecap:round;stroke-linejoin:round;stroke-miterlimit:4;stroke-dasharray:none;stroke-opacity:1;paint-order:fill markers stroke" />
          <path
             sodipodi:nodetypes="cccc"
             inkscape:connector-curvature="0"
             id="path1125"
             d="m 47.2919,218.18234 c 0.6748,1.8824 0.56036,3.89635 0.75595,5.85862 0.2193,-2.61745 0.39724,-5.25214 1.13393,-7.65401 -0.91438,0.33077 -1.72343,0.76068 -1.88988,1.79539 z"
             style="fill:#f3dbe1;fill-opacity:1;stroke:none;stroke-width:0.26458332px;stroke-linecap:butt;stroke-linejoin:miter;stroke-opacity:1" />
          <path
             style="fill:#f3dbe1;fill-opacity:1;stroke:none;stroke-width:0.49999997;stroke-linecap:round;stroke-linejoin:round;stroke-miterlimit:4;stroke-dasharray:none;stroke-opacity:1;paint-order:fill markers stroke"
             d="m 49.47257,219.61541 a 13.263391,11.833867 27.857721 0 1 14.455423,0.45929 13.263391,11.833867 27.857721 0 1 6.229121,12.75742 13.263391,11.833867 27.857721 0 1 -14.455534,-0.45841 13.263391,11.833867 27.857721 0 1 -6.22901,-12.7583 z"
             id="path852-7"
             inkscape:connector-curvature="0" />
        </g>
      </g>
    </g>
    <g
       id="g1261">
      <g
         id="g989"
         transform="translate(5.8745573,94.159486)">
        <path
           inkscape:connector-curvature="0"
           style="fill:#32938d;fill-opacity:1;stroke:none;stroke-width:0.49999997;stroke-linecap:round;stroke-linejoin:round;stroke-miterlimit:4;stroke-dasharray:none;stroke-opacity:1;paint-order:fill markers stroke"
           d="m 157.36834,94.970705 a 44.999958,44.999955 0 0 0 0.43672,0.0219 44.999958,44.999955 0 0 0 45,-44.999993 44.999958,44.999955 0 0 0 -45,-45.0000003 44.999958,44.999955 0 0 0 -0.43672,0.01536 z"
           id="path985" />
        <path
           inkscape:connector-curvature="0"
           style="fill:#3aaba4;fill-opacity:1;stroke:none;stroke-width:0.49999997;stroke-linecap:round;stroke-linejoin:round;stroke-miterlimit:4;stroke-dasharray:none;stroke-opacity:1;paint-order:fill markers stroke"
           d="M 157.90289,94.970705 V 5.0079117 a 45.539737,44.999955 0 0 0 -45.09783,44.9846503 45.539737,44.999955 0 0 0 45.09783,44.978143 z"
           id="path987" />
      </g>
      <path
         style="fill:#236763;fill-opacity:1;stroke:none;stroke-width:1;stroke-linecap:round;stroke-linejoin:round;stroke-miterlimit:4;stroke-dasharray:none;stroke-opacity:1;paint-order:fill markers stroke"
         d="m 164.30081,122.22679 c -1.63397,0.0101 -3.24601,0.0673 -4.84548,0.15083 1.85957,1.77425 3.61123,3.58642 4.19901,5.80602 a 27.3318,23.96177 0 0 0 -16.00962,16.29928 l -17.12811,-13.24224 c 4.69994,8.45828 3.42476,17.52538 -0.17578,26.82949 l 17.27344,-13.40958 a 27.3318,23.96177 0 0 0 17.5126,16.89171 c 0.14263,1.76783 -0.1856,4.0542 -2.06838,8.05107 6.238,-0.52848 12.48797,-0.95902 18.42575,-3.96565 3.00655,-1.63175 4.4379,-3.53021 5.35064,-5.51647 a 27.3318,23.96177 0 0 0 13.8107,-15.50797 27.3318,23.96177 0 0 0 -16.79537,-16.67041 c -0.65003,-1.61344 -1.66243,-3.08448 -4.00375,-4.03316 -5.54487,-1.3293 -10.64372,-1.71439 -15.54565,-1.68292 z"
         id="path1254"
         inkscape:connector-curvature="0" />
      <path
         inkscape:connector-curvature="0"
         id="path1233"
         d="m 162.18413,120.63928 c -1.63397,0.0101 -3.24601,0.0673 -4.84548,0.15083 1.85957,1.77425 3.61123,3.58642 4.19901,5.80602 a 27.3318,23.96177 0 0 0 -16.00962,16.29928 l -17.12811,-13.24224 c 4.69994,8.45828 3.42476,17.52538 -0.17578,26.82949 l 17.27344,-13.40958 a 27.3318,23.96177 0 0 0 17.5126,16.89171 c 0.14263,1.76783 -0.1856,4.0542 -2.06838,8.05107 6.238,-0.52848 12.48797,-0.95902 18.42575,-3.96565 3.00655,-1.63175 4.4379,-3.53021 5.35064,-5.51647 a 27.3318,23.96177 0 0 0 13.8107,-15.50797 27.3318,23.96177 0 0 0 -16.79537,-16.67041 c -0.65003,-1.61344 -1.66243,-3.08448 -4.00375,-4.03316 -5.54487,-1.3293 -10.64372,-1.71439 -15.54565,-1.68292 z"
         style="fill:#f3dbe1;fill-opacity:1;stroke:none;stroke-width:1;stroke-linecap:round;stroke-linejoin:round;stroke-miterlimit:4;stroke-dasharray:none;stroke-opacity:1;paint-order:fill markers stroke" />
    </g>
  </g>
</svg>
