<?xml version="1.0" encoding="UTF-8" standalone="no"?>
<!-- Created with Inkscape (http://www.inkscape.org/) -->

<svg
   xmlns:dc="http://purl.org/dc/elements/1.1/"
   xmlns:cc="http://creativecommons.org/ns#"
   xmlns:rdf="http://www.w3.org/1999/02/22-rdf-syntax-ns#"
   xmlns:svg="http://www.w3.org/2000/svg"
   xmlns="http://www.w3.org/2000/svg"
   xmlns:sodipodi="http://sodipodi.sourceforge.net/DTD/sodipodi-0.dtd"
   xmlns:inkscape="http://www.inkscape.org/namespaces/inkscape"
   width="210mm"
   height="297mm"
   viewBox="0 0 210 297"
   version="1.1"
   id="svg8"
   inkscape:version="0.92.2 (5c3e80d, 2017-08-06)"
   sodipodi:docname="textur3.svg">
  <defs
     id="defs2" />
  <sodipodi:namedview
     id="base"
     pagecolor="#ffffff"
     bordercolor="#666666"
     borderopacity="1.0"
     inkscape:pageopacity="0.0"
     inkscape:pageshadow="2"
     inkscape:zoom="0.7"
     inkscape:cx="327.49557"
     inkscape:cy="334.52328"
     inkscape:document-units="mm"
     inkscape:current-layer="layer1"
     showgrid="false"
     inkscape:snap-global="false"
     inkscape:window-width="1920"
     inkscape:window-height="1017"
     inkscape:window-x="-8"
     inkscape:window-y="-8"
     inkscape:window-maximized="1" />
  <metadata
     id="metadata5">
    <rdf:RDF>
      <cc:Work
         rdf:about="">
        <dc:format>image/svg+xml</dc:format>
        <dc:type
           rdf:resource="http://purl.org/dc/dcmitype/StillImage" />
        <dc:title />
      </cc:Work>
    </rdf:RDF>
  </metadata>
  <g
     inkscape:label="Layer 1"
     inkscape:groupmode="layer"
     id="layer1">
    <g
       id="g1219"
       transform="matrix(1.2707913,0,0,1.1952714,151.24631,0.10250144)"
       style="stroke-width:0.81138992"
       inkscape:export-filename="C:\Users\Asus\Desktop\курсач КПиЯП\Texturs\Новая папка\Animation\собака\2.png"
       inkscape:export-xdpi="96"
       inkscape:export-ydpi="96">
      <rect
         transform="rotate(90)"
         ry="4.3127809"
         rx="3.4738247"
         y="70.927231"
         x="191.96042"
         height="43.65625"
         width="8.5044641"
         id="rect1194-7"
         style="fill:#9f4231;fill-opacity:1;stroke:none;stroke-width:2.43416977;stroke-linecap:round;stroke-linejoin:round;stroke-miterlimit:4;stroke-dasharray:none;stroke-opacity:1;paint-order:fill markers stroke" />
      <g
         transform="translate(51.744941,-0.77485113)"
         id="g1192"
         style="stroke-width:0.81138992">
        <rect
           style="fill:#cc6b59;fill-opacity:1;stroke:none;stroke-width:2.43416977;stroke-linecap:round;stroke-linejoin:round;stroke-miterlimit:4;stroke-dasharray:none;stroke-opacity:1;paint-order:fill markers stroke"
           id="rect1186"
           width="29.860117"
           height="35.151787"
           x="-158.8445"
           y="166.22023"
           rx="7.5801816"
           ry="10.593578" />
        <rect
           ry="10.593578"
           rx="7.5801816"
           y="166.22023"
           x="-153.9308"
           height="29.576637"
           width="20.032736"
           id="rect1188"
           style="fill:#dc998d;fill-opacity:1;stroke:none;stroke-width:2.43416977;stroke-linecap:round;stroke-linejoin:round;stroke-miterlimit:4;stroke-dasharray:none;stroke-opacity:1;paint-order:fill markers stroke" />
      </g>
      <rect
         ry="4.5852714"
         rx="3.2673843"
         y="176.33109"
         x="-109.42411"
         height="25.418898"
         width="8.5044641"
         id="rect1194"
         style="fill:#b84d39;fill-opacity:1;stroke:none;stroke-width:2.43416977;stroke-linecap:round;stroke-linejoin:round;stroke-miterlimit:4;stroke-dasharray:none;stroke-opacity:1;paint-order:fill markers stroke" />
      <rect
         style="fill:#b84d39;fill-opacity:1;stroke:none;stroke-width:2.43416977;stroke-linecap:round;stroke-linejoin:round;stroke-miterlimit:4;stroke-dasharray:none;stroke-opacity:1;paint-order:fill markers stroke"
         id="rect1196"
         width="8.5044641"
         height="25.22991"
         x="-84.553268"
         y="176.33109"
         rx="3.2673843"
         ry="4.5852714" />
    </g>
    <rect
       style="fill:#f12600;fill-opacity:1;stroke:none;stroke-width:3;stroke-linecap:round;stroke-linejoin:round;stroke-miterlimit:4;stroke-dasharray:none;stroke-opacity:1;paint-order:fill markers stroke"
       id="rect1156"
       width="6.9647679"
       height="11.633441"
       x="94.462265"
       y="205.64232"
       rx="4.2466683"
       ry="3.3072915"
       inkscape:export-filename="C:\Users\Asus\Desktop\курсач КПиЯП\Texturs\Новая папка\Animation\собака\4.png"
       inkscape:export-xdpi="96"
       inkscape:export-ydpi="96" />
    <g
       id="g1014"
       transform="matrix(0.46412954,0,0,0.46312175,-24.283408,-38.74681)"
       style="stroke-width:2.156914">
      <rect
         y="223.67821"
         x="114.43507"
         height="44.412205"
         width="14.670658"
         id="rect938"
         style="fill:#651c13;fill-opacity:1;stroke:none;stroke-width:4.31382799;stroke-linecap:round;stroke-linejoin:round;stroke-miterlimit:4;stroke-dasharray:none;stroke-opacity:1;paint-order:fill markers stroke" />
      <rect
         style="fill:#90281b;fill-opacity:1;stroke:none;stroke-width:4.31382799;stroke-linecap:round;stroke-linejoin:round;stroke-miterlimit:4;stroke-dasharray:none;stroke-opacity:1;paint-order:fill markers stroke"
         id="rect940"
         width="6.166194"
         height="44.412205"
         x="114.43507"
         y="223.67821" />
      <path
         transform="scale(0.26458333)"
         id="path865"
         d="M 450.22852,335.9043 C 344.20164,474.71538 233.38794,549.41123 229.30469,709.10742 c -4e-4,59.72716 35.57636,112.57332 90.28711,145.77735 2.53231,-0.10099 5.06033,-0.14022 7.59179,-0.26563 8.049,-0.39876 16.08643,-0.92741 24.07227,-1.62891 7.98583,-0.70149 15.92005,-1.57687 23.75976,-2.66601 7.83972,-1.08914 15.58467,-2.39338 23.19532,-3.95508 7.61065,-1.56169 15.08614,-3.38084 22.38476,-5.5 3.64932,-1.05958 7.2548,-2.19334 10.81055,-3.4082 3.55575,-1.21487 7.06185,-2.50986 10.51367,-3.89063 3.45183,-1.38076 6.84802,-2.84702 10.18555,-4.40429 3.33753,-1.55728 6.61721,-3.20677 9.83008,-4.95118 3.21286,-1.7444 6.35967,-3.58324 9.4375,-5.52539 3.07782,-1.94214 6.08515,-3.98622 9.01757,-6.13672 2.93243,-2.15049 5.78976,-4.40787 8.56641,-6.77734 2.77665,-2.36946 5.47348,-4.85213 8.08399,-7.45117 2.6105,-2.59905 5.13436,-5.31506 7.56836,-8.1543 2.43399,-2.83924 4.77827,-5.80057 7.02539,-8.89062 2.24711,-3.09005 4.39739,-6.30869 6.44726,-9.66016 2.04987,-3.35147 3.99955,-6.83548 5.8418,-10.45898 1.84225,-3.62351 3.57691,-7.38682 5.20117,-11.29297 1.62426,-3.90616 3.1373,-7.95684 4.5332,-12.15625 1.39591,-4.19942 2.67486,-8.54749 3.83203,-13.05078 1.15718,-4.5033 2.19348,-9.16074 3.10157,-13.97852 0.90808,-4.81778 1.68731,-9.79657 2.33593,-14.93945 0.64862,-5.14289 1.16614,-10.45109 1.54493,-15.92969 0.64751,-19.41879 1.08965,-37.97421 1.18945,-55.75195 0.0499,-8.88888 0.0136,-17.58323 -0.125,-26.09375 -0.1386,-8.51053 -0.37877,-16.83679 -0.74023,-24.99024 -0.36147,-8.15344 -0.84418,-16.13353 -1.4629,-23.95117 -0.61871,-7.81764 -1.37481,-15.47345 -2.28515,-22.97656 -0.91035,-7.50311 -1.97459,-14.85265 -3.21094,-22.0625 -1.23635,-7.20985 -2.64351,-14.27894 -4.24023,-21.2168 -1.59673,-6.93786 -3.38352,-13.74449 -5.375,-20.43164 -1.99149,-6.68715 -4.18876,-13.25518 -6.60938,-19.71289 -2.42062,-6.45771 -5.06314,-12.80515 -7.94726,-19.05469 -2.88413,-6.24954 -6.00861,-12.40024 -9.39063,-18.46289 -3.38202,-6.06265 -7.02322,-12.03852 -10.9375,-17.93554 -3.91428,-5.89703 -8.10306,-11.71608 -12.58398,-17.46876 -4.48092,-5.75267 -9.254,-11.43875 -14.33594,-17.06835 -5.08194,-5.62961 -10.47212,-11.20267 -16.18945,-16.73047 z"
         style="fill:#aed837;fill-opacity:1;stroke:none;stroke-width:16.30423164;stroke-linecap:round;stroke-linejoin:round;stroke-miterlimit:4;stroke-dasharray:none;stroke-opacity:1;paint-order:fill markers stroke"
         inkscape:connector-curvature="0" />
      <path
         transform="scale(0.26458333)"
         id="path815"
         d="m 450.22852,335.9043 c 5.71733,5.5278 11.10751,11.10086 16.18945,16.73047 5.08194,5.6296 9.85502,11.31568 14.33594,17.06835 4.48092,5.75268 8.6697,11.57173 12.58398,17.46876 3.91428,5.89702 7.55548,11.87289 10.9375,17.93554 3.38202,6.06265 6.5065,12.21335 9.39063,18.46289 2.88412,6.24954 5.52664,12.59698 7.94726,19.05469 2.42062,6.45771 4.61789,13.02574 6.60938,19.71289 1.99148,6.68715 3.77827,13.49378 5.375,20.43164 1.59672,6.93786 3.00388,14.00695 4.24023,21.2168 1.23635,7.20985 2.30059,14.55939 3.21094,22.0625 0.91034,7.50311 1.66644,15.15892 2.28515,22.97656 0.61872,7.81764 1.10143,15.79773 1.4629,23.95117 0.36146,8.15345 0.60163,16.47971 0.74023,24.99024 0.1386,8.51052 0.1749,17.20487 0.125,26.09375 -0.0998,17.77774 -0.54194,36.33316 -1.18945,55.75195 -0.37879,5.4786 -0.89631,10.7868 -1.54493,15.92969 -0.64862,5.14288 -1.42785,10.12167 -2.33593,14.93945 -0.90809,4.81778 -1.94439,9.47522 -3.10157,13.97852 -1.15717,4.50329 -2.43612,8.85136 -3.83203,13.05078 -1.3959,4.19941 -2.90894,8.25009 -4.5332,12.15625 -1.62426,3.90615 -3.35892,7.66946 -5.20117,11.29297 -1.84225,3.6235 -3.79193,7.10751 -5.8418,10.45898 -2.04987,3.35147 -4.20015,6.57011 -6.44726,9.66016 -2.24712,3.09005 -4.5914,6.05138 -7.02539,8.89062 -2.434,2.83924 -4.95786,5.55525 -7.56836,8.1543 -2.61051,2.59904 -5.30734,5.08171 -8.08399,7.45117 -2.77665,2.36947 -5.63398,4.62685 -8.56641,6.77734 -2.93242,2.1505 -5.93975,4.19458 -9.01757,6.13672 -3.07783,1.94215 -6.22464,3.78099 -9.4375,5.52539 -3.21287,1.74441 -6.49255,3.3939 -9.83008,4.95118 -3.33753,1.55727 -6.73372,3.02353 -10.18555,4.40429 -3.45182,1.38077 -6.95792,2.67576 -10.51367,3.89063 -3.55575,1.21486 -7.16123,2.34862 -10.81055,3.4082 -7.29862,2.11916 -14.77411,3.93831 -22.38476,5.5 -7.61065,1.5617 -15.3556,2.86594 -23.19532,3.95508 -7.83971,1.08914 -15.77393,1.96452 -23.75976,2.66601 -7.98584,0.7015 -16.02327,1.23015 -24.07227,1.62891 -2.53146,0.12541 -5.05948,0.16464 -7.59179,0.26563 37.40697,22.70234 83.67303,36.31056 133.96679,36.31054 123.85248,4e-5 224.25459,-81.52392 224.25391,-182.08789 C 682.99264,553.75712 541.70586,424.34913 450.22852,335.9043 Z"
         style="fill:#8bb022;fill-opacity:1;stroke:none;stroke-width:16.30423164;stroke-linecap:round;stroke-linejoin:round;stroke-miterlimit:4;stroke-dasharray:none;stroke-opacity:1;paint-order:fill markers stroke"
         inkscape:connector-curvature="0" />
      <ellipse
         ry="4.3467264"
         rx="4.6302085"
         cy="120.86308"
         cx="111.21949"
         id="path891"
         style="fill:#b03122;fill-opacity:1;stroke:none;stroke-width:4.31382799;stroke-linecap:round;stroke-linejoin:round;stroke-miterlimit:4;stroke-dasharray:none;stroke-opacity:1;paint-order:fill markers stroke" />
      <ellipse
         ry="4.3467264"
         rx="4.6302085"
         cy="177.74852"
         cx="169.33333"
         id="path891-5"
         style="fill:#93291c;fill-opacity:1;stroke:none;stroke-width:4.31382799;stroke-linecap:round;stroke-linejoin:round;stroke-miterlimit:4;stroke-dasharray:none;stroke-opacity:1;paint-order:fill markers stroke" />
      <ellipse
         ry="4.3467264"
         rx="4.6302085"
         cy="134.47025"
         cx="147.97768"
         id="path891-7"
         style="fill:#93291c;fill-opacity:1;stroke:none;stroke-width:4.31382799;stroke-linecap:round;stroke-linejoin:round;stroke-miterlimit:4;stroke-dasharray:none;stroke-opacity:1;paint-order:fill markers stroke" />
      <ellipse
         ry="4.3467264"
         rx="4.6302085"
         cy="155.44791"
         cx="80.886909"
         id="path891-4"
         style="fill:#b03122;fill-opacity:1;stroke:none;stroke-width:4.31382799;stroke-linecap:round;stroke-linejoin:round;stroke-miterlimit:4;stroke-dasharray:none;stroke-opacity:1;paint-order:fill markers stroke" />
      <ellipse
         ry="4.3467264"
         rx="4.6302085"
         cy="165.2753"
         cx="124.35417"
         id="path891-8"
         style="fill:#b03122;fill-opacity:1;stroke:none;stroke-width:4.31382799;stroke-linecap:round;stroke-linejoin:round;stroke-miterlimit:4;stroke-dasharray:none;stroke-opacity:1;paint-order:fill markers stroke" />
      <ellipse
         ry="4.3467264"
         rx="4.6302085"
         cy="194.56845"
         cx="94.872025"
         id="path891-76"
         style="fill:#b03122;fill-opacity:1;stroke:none;stroke-width:4.31382799;stroke-linecap:round;stroke-linejoin:round;stroke-miterlimit:4;stroke-dasharray:none;stroke-opacity:1;paint-order:fill markers stroke" />
      <ellipse
         ry="4.3467264"
         rx="4.6302085"
         cy="209.30952"
         cx="140.60715"
         id="path891-9"
         style="fill:#93291c;fill-opacity:1;stroke:none;stroke-width:4.31382799;stroke-linecap:round;stroke-linejoin:round;stroke-miterlimit:4;stroke-dasharray:none;stroke-opacity:1;paint-order:fill markers stroke" />
    </g>
    <g
       id="g1086"
       transform="translate(-1.6036172,0.80180858)">
      <rect
         y="65.075127"
         x="96.061646"
         height="20.568258"
         width="6.8090858"
         id="rect938-5"
         style="fill:#651c13;fill-opacity:1;stroke:none;stroke-width:2;stroke-linecap:round;stroke-linejoin:round;stroke-miterlimit:4;stroke-dasharray:none;stroke-opacity:1;paint-order:fill markers stroke" />
      <rect
         style="fill:#90281b;fill-opacity:1;stroke:none;stroke-width:2;stroke-linecap:round;stroke-linejoin:round;stroke-miterlimit:4;stroke-dasharray:none;stroke-opacity:1;paint-order:fill markers stroke"
         id="rect940-3"
         width="2.8619127"
         height="20.568258"
         x="96.061646"
         y="65.075127" />
      <path
         id="path865-7"
         d="M 98.237439,2.6446789 C 85.217239,19.653796 71.609212,28.806599 71.107785,48.374858 c -4.9e-5,7.318625 4.368811,13.794092 11.087342,17.862724 0.310971,-0.01237 0.621414,-0.01718 0.932279,-0.03255 0.988425,-0.04886 1.975429,-0.11364 2.956098,-0.199598 0.980667,-0.08596 1.954997,-0.19322 2.917721,-0.326677 0.962725,-0.133457 1.913812,-0.293272 2.848407,-0.484633 0.934595,-0.191361 1.852592,-0.414269 2.748869,-0.673939 0.44814,-0.129835 0.890897,-0.268759 1.327546,-0.417621 0.436649,-0.148864 0.867202,-0.307544 1.291089,-0.476736 0.423888,-0.16919 0.840943,-0.348857 1.250795,-0.539676 0.409852,-0.190821 0.812599,-0.39294 1.207143,-0.60669 0.394546,-0.213749 0.780976,-0.43907 1.158936,-0.67705 0.37796,-0.237978 0.74726,-0.488448 1.10736,-0.751958 0.36011,-0.263509 0.71099,-0.540115 1.05197,-0.830457 0.34097,-0.29034 0.67215,-0.594552 0.99272,-0.913024 0.32057,-0.318472 0.6305,-0.651277 0.9294,-0.999181 0.2989,-0.347904 0.58678,-0.710769 0.86272,-1.089406 0.27595,-0.378637 0.54001,-0.773031 0.79173,-1.183701 0.25173,-0.41067 0.49115,-0.83758 0.71738,-1.281583 0.22623,-0.444004 0.43925,-0.905139 0.63871,-1.383776 0.19946,-0.478639 0.38526,-0.974986 0.55668,-1.489558 0.17142,-0.514573 0.32848,-1.04736 0.47058,-1.599168 0.1421,-0.551808 0.26936,-1.122505 0.38088,-1.712848 0.11151,-0.590343 0.2072,-1.200416 0.28685,-1.830595 0.0797,-0.63018 0.1432,-1.280617 0.18972,-1.951933 0.0795,-2.379468 0.13381,-4.653143 0.14606,-6.831526 0.006,-1.089192 0.002,-2.154548 -0.0154,-3.197379 -0.017,-1.042831 -0.0465,-2.063084 -0.0909,-3.062161 -0.0444,-0.999076 -0.10366,-1.976911 -0.17964,-2.93484 -0.076,-0.957929 -0.16883,-1.896028 -0.28062,-2.815416 -0.11179,-0.919388 -0.24248,-1.819959 -0.39431,-2.703413 -0.15182,-0.883454 -0.32462,-1.74966 -0.5207,-2.599785 -0.19608,-0.850126 -0.4155,-1.684172 -0.66006,-2.503577 -0.24455,-0.819405 -0.51438,-1.624214 -0.81163,-2.415505 -0.29726,-0.791291 -0.62176,-1.56907 -0.97594,-2.334853 -0.35417,-0.765783 -0.73786,-1.519454 -1.15317,-2.262337 C 104.45908,10.38155 104.01194,9.6493006 103.53126,8.9267134 103.05063,8.204127 102.53625,7.4910939 101.98599,6.7861933 101.43572,6.081294 100.84959,5.3845542 100.22552,4.6947352 99.601452,4.0049149 98.939533,3.322024 98.237439,2.6446789 Z"
         style="fill:#95bd25;fill-opacity:1;stroke:none;stroke-width:2;stroke-linecap:round;stroke-linejoin:round;stroke-miterlimit:4;stroke-dasharray:none;stroke-opacity:1;paint-order:fill markers stroke"
         inkscape:connector-curvature="0" />
      <path
         id="path815-8"
         d="m 98.237439,2.6446789 c 0.702094,0.6773451 1.364013,1.360236 1.988081,2.0500563 0.62407,0.689819 1.2102,1.3865588 1.76047,2.0914581 0.55026,0.7049006 1.06464,1.4179337 1.54532,2.1405221 0.48068,0.7225872 0.92782,1.4548366 1.34314,2.1977186 0.41531,0.742883 0.799,1.496554 1.15317,2.262337 0.35418,0.765783 0.67868,1.543562 0.97594,2.334853 0.29725,0.791291 0.56708,1.5961 0.81163,2.415505 0.24456,0.819405 0.46398,1.653451 0.66006,2.503577 0.19608,0.850125 0.36888,1.716331 0.5207,2.599785 0.15183,0.883454 0.28252,1.784025 0.39431,2.703413 0.11179,0.919388 0.20464,1.857487 0.28062,2.815416 0.076,0.957929 0.13525,1.935764 0.17964,2.93484 0.0444,0.999077 0.0739,2.01933 0.0909,3.062161 0.017,1.042831 0.0215,2.108187 0.0154,3.197379 -0.0123,2.178383 -0.0666,4.452058 -0.14606,6.831526 -0.0465,0.671316 -0.11007,1.321753 -0.18972,1.951933 -0.0797,0.630179 -0.17534,1.240252 -0.28685,1.830595 -0.11152,0.590343 -0.23878,1.16104 -0.38088,1.712848 -0.1421,0.551808 -0.29916,1.084595 -0.47058,1.599168 -0.17142,0.514572 -0.35722,1.010919 -0.55668,1.489558 -0.19946,0.478637 -0.41248,0.939772 -0.63871,1.383776 -0.22623,0.444003 -0.46565,0.870913 -0.71738,1.281583 -0.25172,0.41067 -0.51578,0.805064 -0.79173,1.183701 -0.27594,0.378637 -0.56382,0.741502 -0.86272,1.089406 -0.2989,0.347904 -0.60883,0.680709 -0.9294,0.999181 -0.32057,0.318472 -0.65175,0.622684 -0.99272,0.913024 -0.34098,0.290342 -0.69186,0.566948 -1.05197,0.830457 -0.3601,0.26351 -0.7294,0.51398 -1.10736,0.751958 -0.37796,0.23798 -0.76439,0.463301 -1.158936,0.67705 -0.394544,0.21375 -0.797291,0.415869 -1.207143,0.60669 -0.409852,0.190819 -0.826907,0.370486 -1.250795,0.539676 -0.423887,0.169192 -0.85444,0.327872 -1.291089,0.476736 -0.436649,0.148862 -0.879406,0.287786 -1.327546,0.417621 -0.896277,0.25967 -1.814274,0.482578 -2.748869,0.673939 -0.934595,0.191361 -1.885682,0.351176 -2.848407,0.484633 -0.962724,0.133457 -1.937054,0.240721 -2.917721,0.326677 -0.980669,0.08596 -1.967673,0.150736 -2.956098,0.199598 -0.310865,0.01537 -0.621308,0.02017 -0.932279,0.03255 4.593612,2.781815 10.275127,4.449289 16.451248,4.449287 15.209205,4e-6 27.538675,-9.989476 27.538595,-22.312011 C 126.82109,29.33912 109.47094,13.482203 98.237439,2.6446789 Z"
         style="fill:#6e8b1b;fill-opacity:1;stroke:none;stroke-width:2;stroke-linecap:round;stroke-linejoin:round;stroke-miterlimit:4;stroke-dasharray:none;stroke-opacity:1;paint-order:fill markers stroke"
         inkscape:connector-curvature="0" />
      <ellipse
         ry="2.0130634"
         rx="2.1490166"
         cy="14.920146"
         cx="101.25094"
         id="path891-0"
         style="fill:#b03122;fill-opacity:1;stroke:none;stroke-width:2;stroke-linecap:round;stroke-linejoin:round;stroke-miterlimit:4;stroke-dasharray:none;stroke-opacity:1;paint-order:fill markers stroke" />
      <ellipse
         ry="2.0130634"
         rx="2.1490166"
         cy="44.472263"
         cx="112.98892"
         id="path891-5-4"
         style="fill:#93291c;fill-opacity:1;stroke:none;stroke-width:2;stroke-linecap:round;stroke-linejoin:round;stroke-miterlimit:4;stroke-dasharray:none;stroke-opacity:1;paint-order:fill markers stroke" />
      <ellipse
         ry="2.0130634"
         rx="2.1490166"
         cy="23.760979"
         cx="114.4361"
         id="path891-7-4"
         style="fill:#93291c;fill-opacity:1;stroke:none;stroke-width:2;stroke-linecap:round;stroke-linejoin:round;stroke-miterlimit:4;stroke-dasharray:none;stroke-opacity:1;paint-order:fill markers stroke" />
      <ellipse
         ry="2.0130634"
         rx="2.1490166"
         cy="43.766068"
         cx="78.21917"
         id="path891-4-0"
         style="fill:#b03122;fill-opacity:1;stroke:none;stroke-width:2;stroke-linecap:round;stroke-linejoin:round;stroke-miterlimit:4;stroke-dasharray:none;stroke-opacity:1;paint-order:fill markers stroke" />
      <ellipse
         ry="2.0130634"
         rx="2.1490166"
         cy="31.078463"
         cx="92.51368"
         id="path891-8-0"
         style="fill:#b03122;fill-opacity:1;stroke:none;stroke-width:2;stroke-linecap:round;stroke-linejoin:round;stroke-miterlimit:4;stroke-dasharray:none;stroke-opacity:1;paint-order:fill markers stroke" />
      <ellipse
         ry="2.0130634"
         rx="2.1490166"
         cy="56.137348"
         cx="96.336296"
         id="path891-76-4"
         style="fill:#b03122;fill-opacity:1;stroke:none;stroke-width:2;stroke-linecap:round;stroke-linejoin:round;stroke-miterlimit:4;stroke-dasharray:none;stroke-opacity:1;paint-order:fill markers stroke" />
      <ellipse
         ry="2.0130634"
         rx="2.1490166"
         cy="64.300606"
         cx="113.82156"
         id="path891-9-7"
         style="fill:#93291c;fill-opacity:1;stroke:none;stroke-width:2;stroke-linecap:round;stroke-linejoin:round;stroke-miterlimit:4;stroke-dasharray:none;stroke-opacity:1;paint-order:fill markers stroke" />
    </g>
    <g
       id="g1250"
       transform="matrix(1.8121827,0,0,1.8814021,-19.933498,-126.54924)"
       style="stroke-width:0.54157448">
      <rect
         ry="1.2807461"
         rx="1.851104"
         y="155.82588"
         x="80.036453"
         height="15.497025"
         width="4.5357141"
         id="rect1230"
         style="fill:#e09a9a;fill-opacity:1;stroke:#e09a9a;stroke-width:1.08314896;stroke-linecap:round;stroke-linejoin:round;stroke-miterlimit:4;stroke-dasharray:none;stroke-opacity:1;paint-order:fill markers stroke" />
      <rect
         style="fill:#e09a9a;fill-opacity:1;stroke:#e09a9a;stroke-width:1.08314896;stroke-linecap:round;stroke-linejoin:round;stroke-miterlimit:4;stroke-dasharray:none;stroke-opacity:1;paint-order:fill markers stroke"
         id="rect1232"
         width="4.5357141"
         height="15.497025"
         x="101.73232"
         y="155.82588"
         rx="1.851104"
         ry="1.2807461" />
      <path
         inkscape:connector-curvature="0"
         id="path1088"
         d="m 95.572734,120.53154 a 9.200104,8.9464392 0 0 0 -8.732137,6.15055 9.200104,8.9464392 0 0 0 -4.631206,-1.22615 9.200104,8.9464392 0 0 0 -9.200085,8.9461 9.200104,8.9464392 0 0 0 0.631031,3.25575 9.200104,8.9464392 0 0 0 -7.615493,8.81148 9.200104,8.9464392 0 0 0 7.838823,8.83667 9.200104,8.9464392 0 0 0 8.748235,6.21276 9.200104,8.9464392 0 0 0 1.863495,-0.19524 9.4015667,9.2932009 0 0 0 8.679677,5.74344 9.4015667,9.2932009 0 0 0 8.307806,-4.95443 9.4015667,9.2932009 0 0 0 4.85454,1.34843 9.4015667,9.2932009 0 0 0 9.4016,-9.29312 9.4015667,9.2932009 0 0 0 -0.0172,-0.48381 9.4015667,9.2932009 0 0 0 6.86708,-8.94825 9.4015667,9.2932009 0 0 0 -7.11741,-9.00294 9.4015667,9.2932009 0 0 0 0.066,-1.05344 9.4015667,9.2932009 0 0 0 -9.40158,-9.29312 9.4015667,9.2932009 0 0 0 -2.23226,0.27622 9.200104,8.9464392 0 0 0 -8.310925,-5.1309 z"
         style="fill:#eff0ed;fill-opacity:1;stroke:none;stroke-width:1.08314884;stroke-linecap:round;stroke-linejoin:round;stroke-miterlimit:4;stroke-dasharray:none;stroke-opacity:1;paint-order:fill markers stroke" />
    </g>
    <g
       id="g1245"
       transform="matrix(1.8121827,0,0,1.8814021,2.1756515,-238.53697)"
       style="stroke-width:0.54157448">
      <path
         inkscape:connector-curvature="0"
         id="path865-7-7"
         d="m 109.95117,151.72565 -7e-5,-5e-5 c -1.35346,-2.8768 -1.53943,-5.1573 -4.28585,-6.86063 -1.04257,-0.61625 -2.32387,-0.67677 -3.45539,-0.27394 -0.77364,0.27543 -1.4779,0.76538 -1.98526,1.45063 -1.249408,1.68745 -0.839248,3.89658 0.91617,4.93416 2.65944,1.67347 6.34372,1.08364 8.8104,0.74983 z m -4.65948,-0.93043 c -0.14267,-0.0722 -0.28681,-0.14807 -0.43278,-0.22725 0.14622,0.0789 0.2901,0.155 0.43278,0.22725 z m -1.80515,-1.02907 c -0.16059,-0.0979 -0.32314,-0.20006 -0.48919,-0.30487 -0.0463,-0.0304 -0.0903,-0.0624 -0.13426,-0.093 0.044,0.0305 0.0887,0.0615 0.13426,0.0929 0.16637,0.10433 0.32976,0.20548 0.48926,0.3049 z"
         style="fill:#655f90;fill-opacity:1;stroke:none;stroke-width:1.08314896;stroke-linecap:round;stroke-linejoin:round;stroke-miterlimit:4;stroke-dasharray:none;stroke-opacity:1;paint-order:fill markers stroke" />
      <path
         style="fill:#655f90;fill-opacity:1;stroke:none;stroke-width:1.08314896;stroke-linecap:round;stroke-linejoin:round;stroke-miterlimit:4;stroke-dasharray:none;stroke-opacity:1;paint-order:fill markers stroke"
         d="m 77.805558,151.72565 7e-5,-5e-5 c 1.353462,-2.8768 1.539432,-5.1573 4.285834,-6.86063 1.042564,-0.61625 2.323858,-0.67677 3.455372,-0.27394 0.773634,0.27543 1.477891,0.76538 1.985248,1.45063 1.249394,1.68745 0.839234,3.89658 -0.916164,4.93416 -2.659425,1.67347 -6.343684,1.08364 -8.81036,0.74983 z m 4.659464,-0.93043 c 0.142667,-0.0722 0.286807,-0.14807 0.432777,-0.22725 -0.14622,0.0789 -0.2901,0.155 -0.432777,0.22725 z m 1.805138,-1.02907 c 0.16059,-0.0979 0.32314,-0.20006 0.489187,-0.30487 0.0463,-0.0304 0.0903,-0.0624 0.13426,-0.093 -0.044,0.0305 -0.0887,0.0615 -0.13426,0.0929 -0.166367,0.10433 -0.329757,0.20548 -0.489257,0.3049 z"
         id="path1209"
         inkscape:connector-curvature="0" />
      <g
         transform="translate(1.5119047,-0.66145833)"
         id="g1166"
         style="stroke-width:0.54157448">
        <rect
           style="fill:#e8b4b4;fill-opacity:1;stroke:none;stroke-width:1.08314884;stroke-linecap:round;stroke-linejoin:round;stroke-miterlimit:4;stroke-dasharray:none;stroke-opacity:1;paint-order:fill markers stroke"
           id="rect1149"
           width="15.501634"
           height="20.019506"
           x="84.250732"
           y="139.97263"
           ry="5.9230728"
           rx="5.6849432" />
        <path
           style="fill:#fcfcfc;fill-opacity:1;stroke:none;stroke-width:1.08314884;stroke-linecap:round;stroke-linejoin:round;stroke-miterlimit:4;stroke-dasharray:none;stroke-opacity:1;paint-order:fill markers stroke"
           d="m 92.874333,130.54884 a 8.4240975,7.6849517 0 0 0 -8.108335,5.62851 6.2480922,6.5339822 0 0 0 -0.749388,-0.0523 6.2480922,6.5339822 0 0 0 -6.24801,6.53415 6.2480922,6.5339822 0 0 0 6.24801,6.53416 6.2480922,6.5339822 0 0 0 5.687866,-3.84434 8.4240975,7.6849517 0 0 0 3.169857,0.56925 8.4240975,7.6849517 0 0 0 3.233521,-0.59575 6.2480922,6.5339822 0 0 0 5.745106,3.98359 6.2480922,6.5339822 0 0 0 6.248,-6.53416 6.2480922,6.5339822 0 0 0 -6.248,-6.53416 6.2480922,6.5339822 0 0 0 -0.83058,0.0659 8.4240975,7.6849517 0 0 0 -8.148047,-5.75481 z"
           id="path1151"
           inkscape:connector-curvature="0" />
      </g>
      <g
         transform="translate(-1.0583333)"
         id="g1182"
         style="stroke-width:0.54157448">
        <ellipse
           style="fill:#000000;fill-opacity:1;stroke:none;stroke-width:1.08314896;stroke-linecap:round;stroke-linejoin:round;stroke-miterlimit:4;stroke-dasharray:none;stroke-opacity:1;paint-order:fill markers stroke"
           id="path1168"
           cx="91.730103"
           cy="149.92001"
           rx="1.1575521"
           ry="1.1811756" />
        <ellipse
           ry="0.51971728"
           rx="0.47247028"
           cy="149.4948"
           cx="91.422997"
           id="ellipse1170"
           style="fill:#ffffff;fill-opacity:1;stroke:none;stroke-width:1.08314896;stroke-linecap:round;stroke-linejoin:round;stroke-miterlimit:4;stroke-dasharray:none;stroke-opacity:1;paint-order:fill markers stroke" />
      </g>
      <g
         transform="translate(5.2916669)"
         id="g1188"
         style="stroke-width:0.54157448">
        <ellipse
           ry="1.1811756"
           rx="1.1575521"
           cy="149.92001"
           cx="91.730103"
           id="ellipse1184"
           style="fill:#000000;fill-opacity:1;stroke:none;stroke-width:1.08314896;stroke-linecap:round;stroke-linejoin:round;stroke-miterlimit:4;stroke-dasharray:none;stroke-opacity:1;paint-order:fill markers stroke" />
        <ellipse
           style="fill:#ffffff;fill-opacity:1;stroke:none;stroke-width:1.08314896;stroke-linecap:round;stroke-linejoin:round;stroke-miterlimit:4;stroke-dasharray:none;stroke-opacity:1;paint-order:fill markers stroke"
           id="ellipse1186"
           cx="91.422997"
           cy="149.4948"
           rx="0.47247028"
           ry="0.51971728" />
      </g>
    </g>
    <g
       id="g1228"
       transform="matrix(1.8121827,0,0,1.8814021,2.2365406,-216.50633)"
       style="stroke-width:0.54157448">
      <path
         transform="matrix(0.39677128,0.00589393,-0.00454296,0.33453965,67.778581,98.864862)"
         inkscape:transform-center-y="0.2495638"
         inkscape:transform-center-x="0.006424453"
         d="m 66.951011,170.58152 -2.704176,-4.45231 5.2079,-0.11573 z"
         inkscape:randomized="0"
         inkscape:rounded="0"
         inkscape:flatsided="true"
         sodipodi:arg2="2.5957753"
         sodipodi:arg1="1.5485778"
         sodipodi:r2="1.5037622"
         sodipodi:r1="3.0075245"
         sodipodi:cy="167.57474"
         sodipodi:cx="66.884193"
         sodipodi:sides="3"
         id="path1211"
         style="fill:#722323;fill-opacity:1;stroke:none;stroke-width:2.97269607;stroke-linecap:round;stroke-linejoin:round;stroke-miterlimit:4;stroke-dasharray:none;stroke-opacity:1;paint-order:fill markers stroke"
         sodipodi:type="star" />
      <path
         inkscape:connector-curvature="0"
         id="path1213"
         d="m 93.558182,156.06037 c -0.133013,1.76911 1.60795,2.41326 2.341038,0.85179"
         style="fill:none;stroke:#722323;stroke-width:0.14329158px;stroke-linecap:butt;stroke-linejoin:miter;stroke-opacity:1" />
      <path
         style="fill:none;stroke:#722323;stroke-width:0.14329158px;stroke-linecap:butt;stroke-linejoin:miter;stroke-opacity:1"
         d="m 93.551105,156.06037 c 0.133013,1.76911 -1.60795,2.41326 -2.341038,0.85179"
         id="path1223"
         inkscape:connector-curvature="0" />
    </g>
    <g
       id="g1184"
       transform="matrix(1.2707913,0,0,1.1952714,159.93976,-23.986761)"
       style="stroke-width:0.81138992"
       inkscape:export-filename="C:\Users\Asus\Desktop\курсач КПиЯП\Texturs\Новая папка\Animation\собака\1.png"
       inkscape:export-xdpi="96"
       inkscape:export-ydpi="96">
      <path
         inkscape:connector-curvature="0"
         id="path1148"
         d="m -96.952021,134.96785 c 0.208693,-3.13523 -0.400902,-6.08016 -0.400902,-9.15398 0,-4.57518 -1.436169,-8.33527 -5.345397,-10.28988 -12.74951,-6.37476 -24.78262,12.90017 -17.37251,17.84024 7.6616,5.10774 9.36257,-7.9472 14.69982,-5.27857 3.25427,1.62713 5.799476,9.02542 8.418989,6.88219 z"
         style="fill:#b84d39;fill-opacity:1;stroke:none;stroke-width:0.21468024px;stroke-linecap:butt;stroke-linejoin:miter;stroke-opacity:1" />
      <path
         style="fill:#b84d39;fill-opacity:1;stroke:none;stroke-width:0.21468024px;stroke-linecap:butt;stroke-linejoin:miter;stroke-opacity:1"
         d="m -86.312788,134.96785 c -0.20869,-3.13523 0.400897,-6.08016 0.400897,-9.15398 0,-4.57518 1.436161,-8.33527 5.34537,-10.28988 12.749438,-6.37476 24.782526,12.90017 17.372416,17.84024 -7.661563,5.10774 -9.362521,-7.9472 -14.699741,-5.27857 -3.254252,1.62713 -5.799447,9.02542 -8.418942,6.88219 z"
         id="path1150"
         inkscape:connector-curvature="0" />
      <rect
         rx="12.190398"
         ry="11.853823"
         y="129.46205"
         x="-107.57202"
         height="39.6875"
         width="30.994047"
         id="rect1108"
         style="fill:#cc6b59;fill-opacity:1;stroke:none;stroke-width:0.81138992;stroke-linecap:round;stroke-linejoin:round;stroke-miterlimit:4;stroke-dasharray:none;stroke-opacity:1;paint-order:fill markers stroke" />
      <g
         id="g1176"
         style="stroke-width:0.81138992">
        <path
           style="fill:#b84d39;fill-opacity:1;stroke:none;stroke-width:0.81138992;stroke-linecap:round;stroke-linejoin:round;stroke-miterlimit:4;stroke-dasharray:none;stroke-opacity:1;paint-order:fill markers stroke"
           d="m -101.71547,154.56238 a 12.122009,9.2331461 0 0 0 -12.12195,9.23316 12.122009,9.2331461 0 0 0 12.12195,9.23314 12.122009,9.2331461 0 0 0 9.753339,-3.7682 12.122009,9.2331461 0 0 0 9.753344,3.7682 12.122009,9.2331461 0 0 0 12.121956,-9.23314 12.122009,9.2331461 0 0 0 -12.121956,-9.23316 12.122009,9.2331461 0 0 0 -9.753724,3.7678 12.122009,9.2331461 0 0 0 -9.752959,-3.7678 z"
           id="path1103"
           inkscape:connector-curvature="0" />
        <path
           sodipodi:type="star"
           style="fill:#b84d39;fill-opacity:1;stroke:#000000;stroke-width:2.81476927;stroke-linecap:round;stroke-linejoin:round;stroke-miterlimit:4;stroke-dasharray:none;stroke-opacity:1;paint-order:fill markers stroke"
           id="path1152"
           sodipodi:sides="3"
           sodipodi:cx="-130.09344"
           sodipodi:cy="143.05275"
           sodipodi:r1="3.0743258"
           sodipodi:r2="1.5371629"
           sodipodi:arg1="1.5490606"
           sodipodi:arg2="2.5962582"
           inkscape:flatsided="true"
           inkscape:rounded="0"
           inkscape:randomized="0"
           d="m -130.02663,146.12635 -2.76204,-4.55253 5.32363,-0.11574 z"
           inkscape:transform-center-x="0.034464707"
           inkscape:transform-center-y="0.53597319"
           transform="matrix(1.0317925,0,0,0.72480919,42.323199,53.368078)" />
      </g>
    </g>
    <g
       id="g1172"
       transform="matrix(1.2707913,0,0,1.1952714,209.28137,56.496996)"
       style="stroke-width:0.81138992"
       inkscape:export-filename="C:\Users\Asus\Desktop\курсач КПиЯП\Texturs\Новая папка\Animation\собака\3.png"
       inkscape:export-xdpi="96"
       inkscape:export-ydpi="96">
      <g
         transform="translate(-0.66145833,4.3950901)"
         id="g1140"
         style="stroke-width:0.81138992">
        <rect
           style="fill:#000000;fill-opacity:1;stroke:none;stroke-width:0.81138992;stroke-linecap:round;stroke-linejoin:round;stroke-miterlimit:4;stroke-dasharray:none;stroke-opacity:1;paint-order:fill markers stroke"
           id="rect1133"
           width="6.7090774"
           height="8.9769344"
           x="-100.54166"
           y="138.62798"
           rx="3.3417511"
           ry="2.9994943" />
        <rect
           style="fill:#ffffff;fill-opacity:1;stroke:none;stroke-width:0.81138992;stroke-linecap:round;stroke-linejoin:round;stroke-miterlimit:4;stroke-dasharray:none;stroke-opacity:1;paint-order:fill markers stroke"
           id="rect1135"
           width="2.6458333"
           height="3.3072915"
           x="-99.785721"
           y="140.23438"
           rx="3.3417511"
           ry="2.7669795" />
      </g>
      <g
         id="g1162"
         style="stroke-width:0.81138992">
        <rect
           style="fill:#b84d39;fill-opacity:1;stroke:none;stroke-width:2.43416977;stroke-linecap:round;stroke-linejoin:round;stroke-miterlimit:4;stroke-dasharray:none;stroke-opacity:1;paint-order:fill markers stroke"
           id="rect1154"
           width="10.772322"
           height="14.363094"
           x="-91.517487"
           y="139.8564"
           rx="3.3417511"
           ry="2.7669795" />
        <g
           id="g1146"
           transform="translate(10.97076,4.3950901)"
           style="stroke-width:0.81138992">
          <rect
             style="fill:#000000;fill-opacity:1;stroke:none;stroke-width:0.81138992;stroke-linecap:round;stroke-linejoin:round;stroke-miterlimit:4;stroke-dasharray:none;stroke-opacity:1;paint-order:fill markers stroke"
             id="rect1142"
             width="6.7090774"
             height="8.9769344"
             x="-100.54166"
             y="138.62798"
             rx="3.3417511"
             ry="2.9994943" />
          <rect
             style="fill:#ffffff;fill-opacity:1;stroke:none;stroke-width:0.81138992;stroke-linecap:round;stroke-linejoin:round;stroke-miterlimit:4;stroke-dasharray:none;stroke-opacity:1;paint-order:fill markers stroke"
             id="rect1144"
             width="2.6458333"
             height="3.3072915"
             x="-99.785721"
             y="140.23438"
             rx="3.3417511"
             ry="2.7669795" />
        </g>
      </g>
    </g>
    <g
       id="g1455"
       transform="matrix(1.4212545,0,0,1.4452386,266.88853,-68.159113)"
       style="stroke-width:0.69774109"
       inkscape:export-filename="C:\Users\Asus\Desktop\курсач КПиЯП\Texturs\Новая папка\Animation\птичка1\1.png"
       inkscape:export-xdpi="96"
       inkscape:export-ydpi="96">
      <g
         id="g1437"
         style="stroke-width:0.69774109">
        <path
           transform="matrix(2.4921931,0.45577191,-1.1324017,1.0030642,210.49374,40.683433)"
           inkscape:transform-center-y="-0.78056413"
           inkscape:transform-center-x="0.088551651"
           d="m -15.780502,190.6942 -5.146533,2.2154 0.654674,-5.56473 z"
           inkscape:randomized="0"
           inkscape:rounded="0"
           inkscape:flatsided="true"
           sodipodi:arg2="1.1643063"
           sodipodi:arg1="0.11710874"
           sodipodi:r2="1.6174775"
           sodipodi:r1="3.2349551"
           sodipodi:cy="190.31622"
           sodipodi:cx="-18.993299"
           sodipodi:sides="3"
           id="path1261-1"
           style="fill:#76256f;fill-opacity:1;stroke:none;stroke-width:0.20088729;stroke-linecap:round;stroke-linejoin:round;stroke-miterlimit:4;stroke-dasharray:none;stroke-opacity:1;paint-order:fill markers stroke"
           sodipodi:type="star" />
        <path
           style="fill:#53c957;fill-opacity:1;stroke:none;stroke-width:1.31856585;stroke-linecap:round;stroke-linejoin:round;stroke-miterlimit:4;stroke-dasharray:none;stroke-opacity:1;paint-order:fill markers stroke"
           d="m -250.05469,848.76758 a 56.316003,113.8947 0 0 1 -0.0879,0.12695 56.316003,113.8947 0 0 1 -4.88281,5.66602 56.316003,113.8947 0 0 1 -5.13867,4.65039 56.316003,113.8947 0 0 1 -5.3418,3.58984 56.316003,113.8947 0 0 1 -5.49219,2.49219 56.316003,113.8947 0 0 1 -5.58789,1.37305 56.316003,113.8947 0 0 1 -3.98437,0.28515 56.316003,113.8947 0 0 1 -1.84375,-0.18555 c 1.51328,26.45512 7.78084,52.91013 19.77344,79.36524 38.86546,-1.7967 69.67702,-43.94274 69.70117,-95.3418 -5.9e-4,-0.68482 -0.0881,-1.34008 -0.0996,-2.02148 z"
           id="path1370"
           transform="scale(0.26458333)"
           inkscape:connector-curvature="0" />
        <path
           style="fill:#ebe066;fill-opacity:1;stroke:none;stroke-width:1.31856585;stroke-linecap:round;stroke-linejoin:round;stroke-miterlimit:4;stroke-dasharray:none;stroke-opacity:1;paint-order:fill markers stroke"
           d="m -250.05469,848.76758 h 57.01563 c -0.54197,-32.13025 -13.06781,-60.4035 -32.03125,-77.18164 a 56.316003,113.8947 0 0 1 -0.30664,4.09765 56.316003,113.8947 0 0 1 -1.39258,11.03125 56.316003,113.8947 0 0 1 -1.92969,10.69336 56.316003,113.8947 0 0 1 -2.44922,10.25196 56.316003,113.8947 0 0 1 -2.9414,9.70507 56.316003,113.8947 0 0 1 -3.40625,9.06446 56.316003,113.8947 0 0 1 -3.83789,8.33008 56.316003,113.8947 0 0 1 -4.22852,7.51367 56.316003,113.8947 0 0 1 -4.49219,6.49414 z"
           id="path1360"
           transform="scale(0.26458333)"
           inkscape:connector-curvature="0" />
        <path
           style="fill:#1e6121;fill-opacity:1;stroke:none;stroke-width:1.31856585;stroke-linecap:round;stroke-linejoin:round;stroke-miterlimit:4;stroke-dasharray:none;stroke-opacity:1;paint-order:fill markers stroke"
           d="m -282.63086,848.94922 c -0.1345,5.93883 -0.12291,11.87757 0.2168,17.8164 a 56.316003,113.8947 0 0 0 1.84375,0.18555 56.316003,113.8947 0 0 0 3.98437,-0.28515 56.316003,113.8947 0 0 0 5.58789,-1.37305 56.316003,113.8947 0 0 0 5.49219,-2.49219 56.316003,113.8947 0 0 0 5.3418,-3.58984 56.316003,113.8947 0 0 0 5.13867,-4.65039 56.316003,113.8947 0 0 0 4.83594,-5.61133 z"
           id="path1426"
           transform="scale(0.26458333)"
           inkscape:connector-curvature="0" />
        <path
           style="fill:#d373cb;fill-opacity:1;stroke:none;stroke-width:1.31856585;stroke-linecap:round;stroke-linejoin:round;stroke-miterlimit:4;stroke-dasharray:none;stroke-opacity:1;paint-order:fill markers stroke"
           d="m -282.63086,848.94922 h 32.44141 a 56.316003,113.8947 0 0 0 0.0469,-0.0547 56.316003,113.8947 0 0 0 4.58008,-6.62109 56.316003,113.8947 0 0 0 4.22852,-7.51367 56.316003,113.8947 0 0 0 3.83789,-8.33008 56.316003,113.8947 0 0 0 3.40625,-9.06446 56.316003,113.8947 0 0 0 2.9414,-9.70507 56.316003,113.8947 0 0 0 2.44922,-10.25196 56.316003,113.8947 0 0 0 1.92969,-10.69336 56.316003,113.8947 0 0 0 1.39258,-11.03125 56.316003,113.8947 0 0 0 0.30664,-4.09765 c -10.80769,-9.56223 -23.65434,-15.44654 -37.57031,-16.08985 -12.26183,31.15098 -19.28476,62.30213 -19.99024,93.45313 z"
           id="path1346"
           transform="scale(0.26458333)"
           inkscape:connector-curvature="0" />
        <path
           style="fill:#8bda8d;fill-opacity:1;stroke:none;stroke-width:0.34887055;stroke-linecap:round;stroke-linejoin:round;stroke-miterlimit:4;stroke-dasharray:none;stroke-opacity:1;paint-order:fill markers stroke"
           d="m -59.642575,234.61035 c 0.0699,1.42504 1.176514,2.55127 2.544545,2.55127 1.368039,0 2.474651,-1.12622 2.544548,-2.55127 z"
           id="rect1282-5-3"
           inkscape:connector-curvature="0" />
        <path
           style="fill:#8bda8d;fill-opacity:1;stroke:none;stroke-width:0.34887055;stroke-linecap:round;stroke-linejoin:round;stroke-miterlimit:4;stroke-dasharray:none;stroke-opacity:1;paint-order:fill markers stroke"
           d="m -64.650759,227.38154 c 0.0699,1.42504 1.176514,2.55127 2.544545,2.55127 1.368039,0 2.474651,-1.12622 2.544548,-2.55127 z"
           id="rect1282-1-8"
           inkscape:connector-curvature="0" />
        <path
           style="fill:#8bda8d;fill-opacity:1;stroke:none;stroke-width:0.34887055;stroke-linecap:round;stroke-linejoin:round;stroke-miterlimit:4;stroke-dasharray:none;stroke-opacity:1;paint-order:fill markers stroke"
           d="m -66.587887,241.79189 c 0.0699,1.42504 1.176514,2.55127 2.544545,2.55127 1.368039,0 2.474651,-1.12622 2.544548,-2.55127 z"
           id="rect1282-9-7"
           inkscape:connector-curvature="0" />
        <ellipse
           cy="214.22321"
           cx="-62.082588"
           id="path1259-3"
           style="fill:#000000;fill-opacity:1;stroke:none;stroke-width:0.34887052;stroke-linecap:round;stroke-linejoin:round;stroke-miterlimit:4;stroke-dasharray:none;stroke-opacity:1;paint-order:fill markers stroke"
           rx="2.75"
           ry="2.6990991" />
      </g>
      <path
         inkscape:transform-center-y="-0.374132"
         inkscape:transform-center-x="-0.43867136"
         d="m -70.209076,202.78945 1.296022,-5.28397 3.928044,3.76437 z"
         inkscape:randomized="0"
         inkscape:rounded="0"
         inkscape:flatsided="true"
         sodipodi:arg2="3.3821187"
         sodipodi:arg1="2.3349211"
         sodipodi:r2="1.5705638"
         sodipodi:r1="3.1411276"
         sodipodi:cy="200.52159"
         sodipodi:cx="-68.035713"
         sodipodi:sides="3"
         id="path1439"
         style="fill:#d373cb;fill-opacity:1;stroke:none;stroke-width:0.34887055;stroke-linecap:round;stroke-linejoin:round;stroke-miterlimit:4;stroke-dasharray:none;stroke-opacity:1;paint-order:fill markers stroke"
         sodipodi:type="star" />
      <path
         transform="matrix(1.3384322,-0.28312959,0.61750048,0.61368335,-98.88747,57.519439)"
         inkscape:transform-center-y="0.33218614"
         inkscape:transform-center-x="-0.24085219"
         d="m -68.980651,202.22247 -3.908843,2.06778 0.163669,-4.41905 z"
         inkscape:randomized="0"
         inkscape:rounded="0"
         inkscape:flatsided="true"
         sodipodi:arg2="1.0842177"
         sodipodi:arg1="0.037020116"
         sodipodi:r2="1.2765442"
         sodipodi:r1="2.5530884"
         sodipodi:cy="202.12798"
         sodipodi:cx="-71.53199"
         sodipodi:sides="3"
         id="path1441"
         style="fill:#d373cb;fill-opacity:1;stroke:none;stroke-width:0.34953421;stroke-linecap:round;stroke-linejoin:round;stroke-miterlimit:4;stroke-dasharray:none;stroke-opacity:1;paint-order:fill markers stroke"
         sodipodi:type="star" />
    </g>
    <g
       id="g1335"
       transform="matrix(1.5158762,0,0,1.4452386,218.30502,-23.760299)"
       style="stroke-width:0.67561352"
       inkscape:export-filename="C:\Users\Asus\Desktop\курсач КПиЯП\Texturs\Новая папка\Animation\птичка1\2.png"
       inkscape:export-xdpi="96"
       inkscape:export-ydpi="96">
      <g
         id="g1280"
         style="stroke-width:0.67561352">
        <path
           style="fill:#143f15;fill-opacity:1;stroke:none;stroke-width:0.33780673;stroke-linecap:round;stroke-linejoin:round;stroke-miterlimit:4;stroke-dasharray:none;stroke-opacity:1;paint-order:fill markers stroke"
           d="m -48.154148,195.65236 a 18.236901,38.08254 0 0 1 0.438024,8.07813 18.236901,38.08254 0 0 1 -1.518045,15.101 26.163999,49.776568 0 0 1 -1.019884,-0.069 26.163999,49.776568 0 0 1 -2.596567,-0.59996 26.163999,49.776568 0 0 1 -2.551965,-1.0897 26.163999,49.776568 0 0 1 -2.481793,-1.5685 26.163999,49.776568 0 0 1 -2.387089,-2.033 26.163999,49.776568 0 0 1 -2.268295,-2.47561 26.163999,49.776568 0 0 1 -2.127476,-2.89381 26.163999,49.776568 0 0 1 -1.965088,-3.28424 26.163999,49.776568 0 0 1 -1.782663,-3.64021 26.163999,49.776568 0 0 1 -1.582698,-3.96079 26.163999,49.776568 0 0 1 -0.504185,-1.5643 z"
           id="path1276"
           inkscape:connector-curvature="0" />
        <path
           inkscape:connector-curvature="0"
           id="path1257"
           d="m -48.064237,195.65236 a 14.493424,38.08254 0 0 1 0.348111,8.07813 14.493424,38.08254 0 0 1 -1.206437,15.101 20.793332,49.776568 0 0 1 -0.810533,-0.069 20.793332,49.776568 0 0 1 -2.063571,-0.59996 20.793332,49.776568 0 0 1 -2.028125,-1.0897 20.793332,49.776568 0 0 1 -1.972357,-1.5685 20.793332,49.776568 0 0 1 -1.897092,-2.033 20.793332,49.776568 0 0 1 -1.802684,-2.47561 20.793332,49.776568 0 0 1 -1.69077,-2.89381 20.793332,49.776568 0 0 1 -1.561716,-3.28424 20.793332,49.776568 0 0 1 -1.416737,-3.64021 20.793332,49.776568 0 0 1 -1.257818,-3.96079 20.793332,49.776568 0 0 1 -0.400692,-1.5643 z"
           style="fill:#1a531c;fill-opacity:1;stroke:none;stroke-width:0.33780673;stroke-linecap:round;stroke-linejoin:round;stroke-miterlimit:4;stroke-dasharray:none;stroke-opacity:1;paint-order:fill markers stroke" />
      </g>
      <rect
         transform="rotate(23.665295)"
         ry="1.0634348"
         rx="2.7867451"
         y="211.70776"
         x="36.232662"
         height="5.6126595"
         width="1.6036171"
         id="rect1320"
         style="fill:#216b24;fill-opacity:1;stroke:none;stroke-width:0.33780676;stroke-linecap:round;stroke-linejoin:round;stroke-miterlimit:4;stroke-dasharray:none;stroke-opacity:1;paint-order:fill markers stroke" />
      <rect
         style="fill:#216b24;fill-opacity:1;stroke:none;stroke-width:0.33780676;stroke-linecap:round;stroke-linejoin:round;stroke-miterlimit:4;stroke-dasharray:none;stroke-opacity:1;paint-order:fill markers stroke"
         id="rect1322"
         width="1.6036171"
         height="5.6126595"
         x="114.63542"
         y="179.65518"
         rx="2.8054483"
         ry="1.0335962"
         transform="rotate(47.176593)" />
      <rect
         transform="rotate(71.487531)"
         ry="1.0317253"
         rx="2.8974271"
         y="116.78223"
         x="175.33176"
         height="5.6126595"
         width="1.6036171"
         id="rect1324"
         style="fill:#216b24;fill-opacity:1;stroke:none;stroke-width:0.33780676;stroke-linecap:round;stroke-linejoin:round;stroke-miterlimit:4;stroke-dasharray:none;stroke-opacity:1;paint-order:fill markers stroke" />
      <rect
         style="fill:#216b24;fill-opacity:1;stroke:none;stroke-width:0.33780676;stroke-linecap:round;stroke-linejoin:round;stroke-miterlimit:4;stroke-dasharray:none;stroke-opacity:1;paint-order:fill markers stroke"
         id="rect1326"
         width="1.6036171"
         height="5.6126595"
         x="201.13408"
         y="51.521088"
         rx="2.9381917"
         ry="1.0357089"
         transform="rotate(91.197105)" />
    </g>
  </g>
</svg>
