<?xml version="1.0" encoding="UTF-8" standalone="no"?>
<!-- Created with Inkscape (http://www.inkscape.org/) -->

<svg
   xmlns:dc="http://purl.org/dc/elements/1.1/"
   xmlns:cc="http://creativecommons.org/ns#"
   xmlns:rdf="http://www.w3.org/1999/02/22-rdf-syntax-ns#"
   xmlns:svg="http://www.w3.org/2000/svg"
   xmlns="http://www.w3.org/2000/svg"
   xmlns:sodipodi="http://sodipodi.sourceforge.net/DTD/sodipodi-0.dtd"
   xmlns:inkscape="http://www.inkscape.org/namespaces/inkscape"
   width="210mm"
   height="297mm"
   viewBox="0 0 210 297"
   version="1.1"
   id="svg8"
   inkscape:version="0.92.2 (5c3e80d, 2017-08-06)"
   sodipodi:docname="герой.svg">
  <defs
     id="defs2" />
  <sodipodi:namedview
     id="base"
     pagecolor="#ffffff"
     bordercolor="#666666"
     borderopacity="1.0"
     inkscape:pageopacity="0.0"
     inkscape:pageshadow="2"
     inkscape:zoom="0.99156995"
     inkscape:cx="393.57913"
     inkscape:cy="574.22329"
     inkscape:document-units="mm"
     inkscape:current-layer="layer1"
     showgrid="false"
     inkscape:snap-global="false"
     inkscape:window-width="1920"
     inkscape:window-height="1017"
     inkscape:window-x="-8"
     inkscape:window-y="-8"
     inkscape:window-maximized="1" />
  <metadata
     id="metadata5">
    <rdf:RDF>
      <cc:Work
         rdf:about="">
        <dc:format>image/svg+xml</dc:format>
        <dc:type
           rdf:resource="http://purl.org/dc/dcmitype/StillImage" />
        <dc:title></dc:title>
      </cc:Work>
    </rdf:RDF>
  </metadata>
  <g
     inkscape:label="Layer 1"
     inkscape:groupmode="layer"
     id="layer1">
    <rect
       ry="26.226414"
       rx="16.981133"
       y="152.22385"
       x="152.97241"
       height="46.841488"
       width="33.962265"
       id="rect919"
       style="fill:#000000;fill-opacity:1;stroke:#000000;stroke-width:1.99999988;stroke-linecap:round;stroke-linejoin:round;stroke-miterlimit:4;stroke-dasharray:none;stroke-opacity:1;paint-order:fill markers stroke" />
    <g
       id="g951"
       transform="translate(-156.58504,15.756541)"
       style="fill:#f0faff;fill-opacity:1">
      <path
         style="fill:#f0faff;fill-opacity:1;stroke:#000000;stroke-width:7.55905533;stroke-linecap:round;stroke-linejoin:round;stroke-miterlimit:4;stroke-dasharray:none;stroke-opacity:1;paint-order:fill markers stroke"
         d="M 437.85352 334.25 A 233.90283 262.42757 0 0 0 306.17969 380.10156 A 233.90283 262.42757 0 0 0 203.95117 596.67773 A 233.90283 262.42757 0 0 0 437.85352 859.10547 A 233.90283 262.42757 0 0 0 671.75586 596.67773 A 233.90283 262.42757 0 0 0 629.72852 447.125 A 233.90283 262.42757 0 0 0 437.85352 334.25 z M 276.88086 461.48633 A 185.56432 256.15942 0 0 0 273.14062 481.70703 A 185.56432 256.15942 0 0 1 276.88086 461.48633 z M 639.64453 558.16992 A 185.56432 256.15942 0 0 1 636.87109 583.48828 A 185.56432 256.15942 0 0 0 639.64453 558.16992 z "
         transform="matrix(0.26458333,0,0,0.26458333,156.58504,-15.756541)"
         id="path947" />
    </g>
    <rect
       style="fill:#000000;fill-opacity:1;stroke:#000000;stroke-width:2;stroke-linecap:round;stroke-linejoin:round;stroke-miterlimit:4;stroke-dasharray:none;stroke-opacity:1;paint-order:fill markers stroke"
       id="rect917"
       width="33.962265"
       height="53.245476"
       x="59.697674"
       y="140.0489"
       rx="16.981133"
       ry="26.226414"
       transform="rotate(6.8922202)" />
    <path
       style="fill:#000000;fill-opacity:1;stroke:#000000;stroke-width:2;stroke-linecap:round;stroke-linejoin:round;stroke-miterlimit:4;stroke-dasharray:none;stroke-opacity:1;paint-order:fill markers stroke"
       d="m 79.084946,239.68229 c 10.778491,5.69767 24.332444,1.20561 30.273834,-10.03338 0.46625,-0.90071 0.87488,-1.82995 1.22321,-2.78163 -0.16003,-0.0789 -0.32041,-0.15592 -0.47932,-0.23992 -9.09298,-9.1351 -20.508794,-16.29579 -36.697455,-19.39957 -0.495894,-0.26215 -0.973546,-0.54361 -1.435007,-0.84038 -0.603776,0.83908 -1.152989,1.71694 -1.643904,2.62762 -5.94138,11.23923 -2.020009,24.96947 8.758619,30.66731 z"
       id="path921"
       inkscape:connector-curvature="0"
       sodipodi:nodetypes="ccccccccc" />
    <path
       sodipodi:nodetypes="ccccccccc"
       inkscape:connector-curvature="0"
       id="path955"
       d="m 153.70683,239.68229 c -10.7785,5.69767 -24.33246,1.20561 -30.27385,-10.03338 -0.46625,-0.90071 -0.87488,-1.82995 -1.22321,-2.78163 0.16003,-0.0789 0.32041,-0.15592 0.47932,-0.23992 9.09298,-9.1351 20.5088,-16.29579 36.6975,-19.39957 0.49589,-0.26215 0.97354,-0.54361 1.435,-0.84038 0.60378,0.83908 1.15299,1.71694 1.64391,2.62762 5.94138,11.23923 2.02001,24.96947 -8.75864,30.66731 z"
       style="fill:#000000;fill-opacity:1;stroke:#000000;stroke-width:2;stroke-linecap:round;stroke-linejoin:round;stroke-miterlimit:4;stroke-dasharray:none;stroke-opacity:1;paint-order:fill markers stroke" />
    <g
       id="g971">
      <g
         id="g896"
         transform="matrix(-0.9484764,-0.31684777,-0.31684777,0.9484764,206.92639,25.31786)">
        <path
           transform="scale(0.26458333)"
           id="path890"
           d="m 188.36133,263.92578 c 1.64596,-0.06 3.28137,-0.16784 4.8457,-0.48633 1.90986,-0.38883 3.75088,-0.96216 5.50391,-1.70117 1.75302,-0.73901 3.41709,-1.64285 4.97461,-2.69336 1.55752,-1.05051 3.00868,-2.24696 4.33203,-3.57031 1.32335,-1.32335 2.5198,-2.77451 3.57031,-4.33203 1.05051,-1.55752 1.95435,-3.22159 2.69336,-4.97461 0.73901,-1.75302 1.31234,-3.59405 1.70117,-5.50391 0.38884,-1.90986 0.59375,-3.88993 0.59375,-5.91797 v -40.51367 c 0,-2.02803 -0.20491,-4.00615 -0.59375,-5.91601 -0.38883,-1.90987 -0.96216,-3.75089 -1.70117,-5.50391 -0.73901,-1.75302 -1.64285,-3.41709 -2.69336,-4.97461 -1.05051,-1.55752 -2.24696,-3.00868 -3.57031,-4.33203 -1.32335,-1.32335 -2.77451,-2.5198 -4.33203,-3.57031 -1.55752,-1.05051 -3.22159,-1.95436 -4.97461,-2.69336 -1.75303,-0.73901 -3.59405,-1.31234 -5.50391,-1.70117 -1.90986,-0.38884 -3.88798,-0.59375 -5.91601,-0.59375 h -14.29297 c -2.02804,0 -4.00811,0.20491 -5.91797,0.59375 -1.90986,0.38883 -3.75088,0.96216 -5.50391,1.70117 -1.75302,0.739 -3.41709,1.64285 -4.97461,2.69336 -1.55752,1.05051 -3.00868,2.24696 -4.33203,3.57031 -1.32335,1.32335 -2.5198,2.77451 -3.57031,4.33203 -1.05051,1.55752 -1.95435,3.22159 -2.69336,4.97461 -0.73901,1.75302 -1.31234,3.59404 -1.70117,5.50391 -0.38884,1.90986 -0.59375,3.88798 -0.59375,5.91601 v 40.51367 c 0,2.02804 0.20491,4.00811 0.59375,5.91797 0.38883,1.90986 0.96216,3.75089 1.70117,5.50391 0.73901,1.75302 1.64285,3.41709 2.69336,4.97461 1.05051,1.55752 2.24696,3.00868 3.57031,4.33203 1.32335,1.32335 2.77451,2.5198 4.33203,3.57031 1.55752,1.05051 3.22159,1.95435 4.97461,2.69336 1.75303,0.73901 3.59405,1.31234 5.50391,1.70117 1.56445,0.31851 3.20157,0.42638 4.84765,0.48633 z"
           style="fill:#f0faff;fill-opacity:1;stroke:#000000;stroke-width:7.55905533;stroke-linecap:round;stroke-linejoin:round;stroke-miterlimit:4;stroke-dasharray:none;stroke-opacity:1;paint-order:fill markers stroke"
           inkscape:connector-curvature="0" />
        <path
           transform="scale(0.26458333)"
           id="path892"
           d="m 144.81055,134.13672 c -16.22428,0 -29.28516,13.06283 -29.28516,29.28711 v 71.21484 c 0,16.22428 13.06088,29.28711 29.28516,29.28711 h 27.11718 c -1.64608,-0.0599 -3.2832,-0.16782 -4.84765,-0.48633 -1.90986,-0.38883 -3.75088,-0.96216 -5.50391,-1.70117 -1.75302,-0.73901 -3.41709,-1.64285 -4.97461,-2.69336 -1.55752,-1.05051 -3.00868,-2.24696 -4.33203,-3.57031 -1.32335,-1.32335 -2.5198,-2.77451 -3.57031,-4.33203 -1.05051,-1.55752 -1.95435,-3.22159 -2.69336,-4.97461 -0.73901,-1.75302 -1.31234,-3.59405 -1.70117,-5.50391 -0.38884,-1.90986 -0.59375,-3.88993 -0.59375,-5.91797 v -40.51367 c 0,-2.02803 0.20491,-4.00615 0.59375,-5.91601 0.38883,-1.90987 0.96216,-3.75089 1.70117,-5.50391 0.73901,-1.75302 1.64285,-3.41709 2.69336,-4.97461 1.05051,-1.55752 2.24696,-3.00868 3.57031,-4.33203 1.32335,-1.32335 2.77451,-2.5198 4.33203,-3.57031 1.55752,-1.05051 3.22159,-1.95436 4.97461,-2.69336 1.75303,-0.73901 3.59405,-1.31234 5.50391,-1.70117 1.90986,-0.38884 3.88993,-0.59375 5.91797,-0.59375 h 14.29297 c 2.02803,0 4.00615,0.20491 5.91601,0.59375 1.90986,0.38883 3.75088,0.96216 5.50391,1.70117 1.75302,0.739 3.41709,1.64285 4.97461,2.69336 1.55752,1.05051 3.00868,2.24696 4.33203,3.57031 1.32335,1.32335 2.5198,2.77451 3.57031,4.33203 1.05051,1.55752 1.95435,3.22159 2.69336,4.97461 0.73901,1.75302 1.31234,3.59404 1.70117,5.50391 0.38884,1.90986 0.59375,3.88798 0.59375,5.91601 v 40.51367 c 0,2.02804 -0.20491,4.00811 -0.59375,5.91797 -0.38883,1.90986 -0.96216,3.75089 -1.70117,5.50391 -0.73901,1.75302 -1.64285,3.41709 -2.69336,4.97461 -1.05051,1.55752 -2.24696,3.00868 -3.57031,4.33203 -1.32335,1.32335 -2.77451,2.5198 -4.33203,3.57031 -1.55752,1.05051 -3.22159,1.95435 -4.97461,2.69336 -1.75303,0.73901 -3.59405,1.31234 -5.50391,1.70117 -1.56433,0.31849 -3.19974,0.42636 -4.8457,0.48633 h 26.24023 c 16.22428,0 29.28516,-13.06283 29.28516,-29.28711 v -71.21484 c 0,-16.22428 -13.06088,-29.28711 -29.28516,-29.28711 z"
           style="fill:#010101;fill-opacity:1;stroke:#000000;stroke-width:7.55905533;stroke-linecap:round;stroke-linejoin:round;stroke-miterlimit:4;stroke-dasharray:none;stroke-opacity:1;paint-order:fill markers stroke"
           inkscape:connector-curvature="0" />
        <path
           sodipodi:nodetypes="ccccc"
           inkscape:connector-curvature="0"
           id="path894"
           d="m 39.952829,50.632074 c 0.423823,-1.7365 0.67369,-3.192513 3.207549,-4.292453 2.504736,-0.987634 4.132204,-1.464879 9.009433,-0.283018 1.212977,0.715977 2.517152,1.734107 2.924529,3.396227 2.598625,11.173845 -4.20643,-7.074313 -15.141511,1.179244 z"
           style="fill:#b9b9b9;fill-opacity:1;stroke:none;stroke-width:0.26458332px;stroke-linecap:butt;stroke-linejoin:miter;stroke-opacity:1" />
      </g>
      <g
         transform="rotate(-34.660154,82.171186,35.264138)"
         id="g888">
        <path
           inkscape:connector-curvature="0"
           style="fill:#f0faff;fill-opacity:1;stroke:#000000;stroke-width:7.55905533;stroke-linecap:round;stroke-linejoin:round;stroke-miterlimit:4;stroke-dasharray:none;stroke-opacity:1;paint-order:fill markers stroke"
           d="m 188.36133,263.92578 c 1.64596,-0.06 3.28137,-0.16784 4.8457,-0.48633 1.90986,-0.38883 3.75088,-0.96216 5.50391,-1.70117 1.75302,-0.73901 3.41709,-1.64285 4.97461,-2.69336 1.55752,-1.05051 3.00868,-2.24696 4.33203,-3.57031 1.32335,-1.32335 2.5198,-2.77451 3.57031,-4.33203 1.05051,-1.55752 1.95435,-3.22159 2.69336,-4.97461 0.73901,-1.75302 1.31234,-3.59405 1.70117,-5.50391 0.38884,-1.90986 0.59375,-3.88993 0.59375,-5.91797 v -40.51367 c 0,-2.02803 -0.20491,-4.00615 -0.59375,-5.91601 -0.38883,-1.90987 -0.96216,-3.75089 -1.70117,-5.50391 -0.73901,-1.75302 -1.64285,-3.41709 -2.69336,-4.97461 -1.05051,-1.55752 -2.24696,-3.00868 -3.57031,-4.33203 -1.32335,-1.32335 -2.77451,-2.5198 -4.33203,-3.57031 -1.55752,-1.05051 -3.22159,-1.95436 -4.97461,-2.69336 -1.75303,-0.73901 -3.59405,-1.31234 -5.50391,-1.70117 -1.90986,-0.38884 -3.88798,-0.59375 -5.91601,-0.59375 h -14.29297 c -2.02804,0 -4.00811,0.20491 -5.91797,0.59375 -1.90986,0.38883 -3.75088,0.96216 -5.50391,1.70117 -1.75302,0.739 -3.41709,1.64285 -4.97461,2.69336 -1.55752,1.05051 -3.00868,2.24696 -4.33203,3.57031 -1.32335,1.32335 -2.5198,2.77451 -3.57031,4.33203 -1.05051,1.55752 -1.95435,3.22159 -2.69336,4.97461 -0.73901,1.75302 -1.31234,3.59404 -1.70117,5.50391 -0.38884,1.90986 -0.59375,3.88798 -0.59375,5.91601 v 40.51367 c 0,2.02804 0.20491,4.00811 0.59375,5.91797 0.38883,1.90986 0.96216,3.75089 1.70117,5.50391 0.73901,1.75302 1.64285,3.41709 2.69336,4.97461 1.05051,1.55752 2.24696,3.00868 3.57031,4.33203 1.32335,1.32335 2.77451,2.5198 4.33203,3.57031 1.55752,1.05051 3.22159,1.95435 4.97461,2.69336 1.75303,0.73901 3.59405,1.31234 5.50391,1.70117 1.56445,0.31851 3.20157,0.42638 4.84765,0.48633 z"
           id="path881"
           transform="scale(0.26458333)" />
        <path
           inkscape:connector-curvature="0"
           style="fill:#010101;fill-opacity:1;stroke:#000000;stroke-width:7.55905533;stroke-linecap:round;stroke-linejoin:round;stroke-miterlimit:4;stroke-dasharray:none;stroke-opacity:1;paint-order:fill markers stroke"
           d="m 144.81055,134.13672 c -16.22428,0 -29.28516,13.06283 -29.28516,29.28711 v 71.21484 c 0,16.22428 13.06088,29.28711 29.28516,29.28711 h 27.11718 c -1.64608,-0.0599 -3.2832,-0.16782 -4.84765,-0.48633 -1.90986,-0.38883 -3.75088,-0.96216 -5.50391,-1.70117 -1.75302,-0.73901 -3.41709,-1.64285 -4.97461,-2.69336 -1.55752,-1.05051 -3.00868,-2.24696 -4.33203,-3.57031 -1.32335,-1.32335 -2.5198,-2.77451 -3.57031,-4.33203 -1.05051,-1.55752 -1.95435,-3.22159 -2.69336,-4.97461 -0.73901,-1.75302 -1.31234,-3.59405 -1.70117,-5.50391 -0.38884,-1.90986 -0.59375,-3.88993 -0.59375,-5.91797 v -40.51367 c 0,-2.02803 0.20491,-4.00615 0.59375,-5.91601 0.38883,-1.90987 0.96216,-3.75089 1.70117,-5.50391 0.73901,-1.75302 1.64285,-3.41709 2.69336,-4.97461 1.05051,-1.55752 2.24696,-3.00868 3.57031,-4.33203 1.32335,-1.32335 2.77451,-2.5198 4.33203,-3.57031 1.55752,-1.05051 3.22159,-1.95436 4.97461,-2.69336 1.75303,-0.73901 3.59405,-1.31234 5.50391,-1.70117 1.90986,-0.38884 3.88993,-0.59375 5.91797,-0.59375 h 14.29297 c 2.02803,0 4.00615,0.20491 5.91601,0.59375 1.90986,0.38883 3.75088,0.96216 5.50391,1.70117 1.75302,0.739 3.41709,1.64285 4.97461,2.69336 1.55752,1.05051 3.00868,2.24696 4.33203,3.57031 1.32335,1.32335 2.5198,2.77451 3.57031,4.33203 1.05051,1.55752 1.95435,3.22159 2.69336,4.97461 0.73901,1.75302 1.31234,3.59404 1.70117,5.50391 0.38884,1.90986 0.59375,3.88798 0.59375,5.91601 v 40.51367 c 0,2.02804 -0.20491,4.00811 -0.59375,5.91797 -0.38883,1.90986 -0.96216,3.75089 -1.70117,5.50391 -0.73901,1.75302 -1.64285,3.41709 -2.69336,4.97461 -1.05051,1.55752 -2.24696,3.00868 -3.57031,4.33203 -1.32335,1.32335 -2.77451,2.5198 -4.33203,3.57031 -1.55752,1.05051 -3.22159,1.95435 -4.97461,2.69336 -1.75303,0.73901 -3.59405,1.31234 -5.50391,1.70117 -1.56433,0.31849 -3.19974,0.42636 -4.8457,0.48633 h 26.24023 c 16.22428,0 29.28516,-13.06283 29.28516,-29.28711 v -71.21484 c 0,-16.22428 -13.06088,-29.28711 -29.28516,-29.28711 z"
           id="rect876"
           transform="scale(0.26458333)" />
        <path
           style="fill:#b9b9b9;fill-opacity:1;stroke:none;stroke-width:0.26458332px;stroke-linecap:butt;stroke-linejoin:miter;stroke-opacity:1"
           d="m 39.952829,50.632074 c 0.423823,-1.7365 0.67369,-3.192513 3.207549,-4.292453 2.504736,-0.987634 4.132204,-1.464879 9.009433,-0.283018 1.212977,0.715977 2.517152,1.734107 2.924529,3.396227 2.598625,11.173845 -4.20643,-7.074313 -15.141511,1.179244 z"
           id="path883"
           inkscape:connector-curvature="0"
           sodipodi:nodetypes="ccccc" />
      </g>
      <ellipse
         ry="27.083523"
         rx="45.228149"
         cy="158.38039"
         cx="119.94132"
         id="path953"
         style="fill:#eaeaea;fill-opacity:1;stroke:none;stroke-width:2;stroke-linecap:round;stroke-linejoin:round;stroke-miterlimit:4;stroke-dasharray:none;stroke-opacity:1;paint-order:fill markers stroke" />
      <ellipse
         ry="57.436394"
         rx="71.62825"
         cy="119.55486"
         cx="118.11932"
         id="path853"
         style="fill:#f0faff;fill-opacity:1;stroke:#000000;stroke-width:2;stroke-linecap:round;stroke-linejoin:round;stroke-miterlimit:4;stroke-dasharray:none;stroke-opacity:1;paint-order:fill markers stroke" />
      <path
         inkscape:connector-curvature="0"
         id="path855"
         d="M 107.25424,84.024617 A 28.605876,24.203156 0 0 0 78.648268,108.22784 28.605876,24.203156 0 0 0 107.25424,132.4311 28.605876,24.203156 0 0 0 135.86022,108.22784 28.605876,24.203156 0 0 0 107.25424,84.024617 Z m 0,10.084546 a 16.686761,14.118507 0 0 1 16.68697,14.118677 16.686761,14.118507 0 0 1 -16.68697,14.1187 16.686761,14.118507 0 0 1 -16.686982,-14.1187 16.686761,14.118507 0 0 1 16.686982,-14.118677 z"
         style="fill:#000000;fill-opacity:1;stroke:#000000;stroke-width:1.99999988;stroke-linecap:round;stroke-linejoin:round;stroke-miterlimit:4;stroke-dasharray:none;stroke-opacity:1;paint-order:fill markers stroke" />
      <path
         transform="scale(0.26458333)"
         id="path861"
         d="M 712.5625 412.62891 A 270.72095 217.08243 0 0 0 707.29102 393.79102 A 270.72095 217.08243 0 0 0 698.75781 373.19922 A 270.72095 217.08243 0 0 0 697.79492 371.47266 A 52.772991 48.949111 0 0 1 648.92383 402.02734 A 52.772991 48.949111 0 0 1 596.15039 353.07812 A 52.772991 48.949111 0 0 1 644.68359 304.30859 A 270.72095 217.08243 0 0 0 640.63867 300.61719 A 270.72095 217.08243 0 0 0 620.83789 285.82617 A 270.72095 217.08243 0 0 0 608.32031 278.19727 A 90.467981 83.912765 0 0 0 558.45508 353.07812 A 90.467981 83.912765 0 0 0 648.92383 436.99219 A 90.467981 83.912765 0 0 0 712.5625 412.62891 z "
         style="fill:#000000;fill-opacity:1;stroke:#000000;stroke-width:7.55905485;stroke-linecap:round;stroke-linejoin:round;stroke-miterlimit:4;stroke-dasharray:none;stroke-opacity:1;paint-order:fill markers stroke" />
      <path
         sodipodi:nodetypes="cccc"
         inkscape:connector-curvature="0"
         id="path874"
         d="m 143.85213,123.85966 c 4.51806,1.33313 5.73911,4.71267 6.67082,8.27181 -0.78947,-4.9009 1.03176,-7.71324 4.00249,-9.60598 -4.18477,-0.80929 -7.61769,-0.11487 -10.67331,1.33417 z"
         style="fill:#000000;fill-opacity:1;stroke:#000000;stroke-width:0.26458332px;stroke-linecap:butt;stroke-linejoin:miter;stroke-opacity:1" />
    </g>
  </g>
</svg>
