<?xml version="1.0" encoding="UTF-8" standalone="no"?>
<!-- Created with Inkscape (http://www.inkscape.org/) -->

<svg
   xmlns:dc="http://purl.org/dc/elements/1.1/"
   xmlns:cc="http://creativecommons.org/ns#"
   xmlns:rdf="http://www.w3.org/1999/02/22-rdf-syntax-ns#"
   xmlns:svg="http://www.w3.org/2000/svg"
   xmlns="http://www.w3.org/2000/svg"
   xmlns:sodipodi="http://sodipodi.sourceforge.net/DTD/sodipodi-0.dtd"
   xmlns:inkscape="http://www.inkscape.org/namespaces/inkscape"
   width="210mm"
   height="297mm"
   viewBox="0 0 210 297"
   version="1.1"
   id="svg8"
   sodipodi:docname="дом1.svg"
   inkscape:export-filename="C:\Users\Asus\Desktop\курсач КПиЯП\Texturs\8.png"
   inkscape:export-xdpi="96"
   inkscape:export-ydpi="96"
   inkscape:version="0.92.2 (5c3e80d, 2017-08-06)">
  <defs
     id="defs2" />
  <sodipodi:namedview
     id="base"
     pagecolor="#ffffff"
     bordercolor="#666666"
     borderopacity="1.0"
     inkscape:pageopacity="0.0"
     inkscape:pageshadow="2"
     inkscape:zoom="0.7"
     inkscape:cx="263.30434"
     inkscape:cy="594.13332"
     inkscape:document-units="mm"
     inkscape:current-layer="layer1"
     showgrid="false"
     inkscape:snap-global="false"
     inkscape:window-width="1920"
     inkscape:window-height="1017"
     inkscape:window-x="-8"
     inkscape:window-y="-8"
     inkscape:window-maximized="1" />
  <metadata
     id="metadata5">
    <rdf:RDF>
      <cc:Work
         rdf:about="">
        <dc:format>image/svg+xml</dc:format>
        <dc:type
           rdf:resource="http://purl.org/dc/dcmitype/StillImage" />
      </cc:Work>
    </rdf:RDF>
  </metadata>
  <g
     inkscape:label="Layer 1"
     inkscape:groupmode="layer"
     id="layer1">
    <path
       style="fill:#7bacc7;fill-opacity:1;stroke:none;stroke-width:0.5;stroke-linecap:round;stroke-linejoin:round;stroke-miterlimit:4;stroke-dasharray:none;stroke-opacity:1;paint-order:fill markers stroke"
       d="m 24.997748,36.342706 -6.072214,16.536202 3.694155,-0.0145 c -0.0049,0.225625 -0.01062,0.448389 -0.01062,0.695254 v 0.390282 c 0,0.171811 0.0048,0.321687 0.0073,0.48388 h -1.1459 l 0.276356,13.719956 c 0.01447,0.719153 0.309331,1.360402 0.773335,1.815673 0.290745,0.59077 0.800337,1.064825 1.459746,1.279641 l 10.941132,3.564343 0.221947,11.014579 c 0.02166,1.075993 0.669774,1.978439 1.575531,2.341691 0.182178,0.161969 0.390106,0.299458 0.62172,0.404442 l 13.569007,6.150218 c 1.252866,0.567876 2.700796,-0.02509 3.246277,-1.329376 l 0.702013,-1.678554 c 0.545481,-1.304309 -0.02408,-2.811687 -1.276947,-3.379565 L 42.818267,83.458689 42.563143,70.791802 c -0.0252,-1.251783 -0.898345,-2.269525 -2.038669,-2.475353 -0.184227,-0.123975 -0.386422,-0.22638 -0.606458,-0.298064 L 29.39822,64.591159 29.193524,54.433819 h -1.215903 v -1.221617 c 0,-0.126321 -0.0015,-0.247183 -0.003,-0.368523 l 3.380972,-0.01312 z m 2.558205,16.5027 c -0.0014,0.120798 -0.003,0.241067 -0.003,0.366796 v 1.221617 H 22.99589 c 0.0024,-0.162193 0.0073,-0.312069 0.0073,-0.483881 v -0.390281 c 0,-0.247356 -0.0057,-0.470613 -0.01062,-0.696637 z"
       id="rect996"
       inkscape:connector-curvature="0" />
    <path
       style="fill:#32756f;fill-opacity:1;stroke:none;stroke-width:0.49999997;stroke-linecap:round;stroke-linejoin:round;stroke-miterlimit:4;stroke-dasharray:none;stroke-opacity:1;paint-order:fill markers stroke"
       d="m 184.06381,55.483336 -5.6469,10.210184 3.05949,-0.0039 v 1.580468 c -0.40831,-0.02662 -0.80241,-0.08493 -1.17708,-0.170964 v 14.079844 h -10.44614 c -1.50044,0 -2.7085,0.906628 -2.7085,2.032573 v 3.613041 c 0,1.125945 1.20806,2.032573 2.7085,2.032573 h 15.47596 c 1.50043,0 2.70849,-0.906628 2.70849,-2.032573 v -0.130209 c 0.0835,-0.196086 0.12906,-0.40532 0.12906,-0.622723 V 67.225634 c -0.30947,0.039 -0.6279,0.06148 -0.95481,0.06148 h -0.43991 v -1.603953 l 2.96196,-0.0039 z m 1.82899,10.200858 v 1.602919 h -3.53689 v -1.598428 z"
       id="rect976"
       inkscape:connector-curvature="0" />
    <rect
       ry="0.19964312"
       rx="0.19964312"
       y="58.795628"
       x="47.198986"
       height="79.903549"
       width="122.70732"
       id="rect887"
       style="fill:#d9c7a4;fill-opacity:1;stroke:none;stroke-width:0.49999997;stroke-linecap:round;stroke-linejoin:round;stroke-miterlimit:4;stroke-dasharray:none;stroke-opacity:1;paint-order:fill markers stroke" />
    <g
       id="g917"
       transform="matrix(0.64199589,0,0,0.66835507,37.007301,-24.762683)"
       style="stroke-width:1.52661753">
      <path
         style="fill:#dd6060;fill-opacity:1;stroke:none;stroke-width:0.76330876;stroke-linecap:round;stroke-linejoin:round;stroke-miterlimit:4;stroke-dasharray:none;stroke-opacity:1;paint-order:fill markers stroke"
         d="m 12.530666,125.94726 v 18.33114 c 0,4.31447 3.455689,7.78765 7.748365,7.78765 4.292675,0 7.748364,-3.47318 7.748364,-7.78765 v -18.33114 z"
         id="path889"
         inkscape:connector-curvature="0" />
      <path
         inkscape:connector-curvature="0"
         id="path891"
         d="m 27.876509,125.94726 v 18.33114 c 0,4.31447 3.455689,7.78765 7.748365,7.78765 4.292675,0 7.748364,-3.47318 7.748364,-7.78765 v -18.33114 z"
         style="fill:#c6fdff;fill-opacity:1;stroke:none;stroke-width:0.76330876;stroke-linecap:round;stroke-linejoin:round;stroke-miterlimit:4;stroke-dasharray:none;stroke-opacity:1;paint-order:fill markers stroke" />
      <path
         inkscape:connector-curvature="0"
         id="path893"
         d="m 43.222352,125.94726 v 18.33114 c 0,4.31447 3.455689,7.78765 7.748365,7.78765 4.292675,0 7.748364,-3.47318 7.748364,-7.78765 v -18.33114 z"
         style="fill:#dd6060;fill-opacity:1;stroke:none;stroke-width:0.76330876;stroke-linecap:round;stroke-linejoin:round;stroke-miterlimit:4;stroke-dasharray:none;stroke-opacity:1;paint-order:fill markers stroke" />
      <path
         style="fill:#c6fdff;fill-opacity:1;stroke:none;stroke-width:0.76330876;stroke-linecap:round;stroke-linejoin:round;stroke-miterlimit:4;stroke-dasharray:none;stroke-opacity:1;paint-order:fill markers stroke"
         d="m 58.568195,125.94726 v 18.33114 c 0,4.31447 3.455689,7.78765 7.748365,7.78765 4.292675,0 7.748364,-3.47318 7.748364,-7.78765 v -18.33114 z"
         id="path895"
         inkscape:connector-curvature="0" />
      <path
         inkscape:connector-curvature="0"
         id="path897"
         d="m 73.914038,125.94726 v 18.33114 c 0,4.31447 3.455689,7.78765 7.748365,7.78765 4.292675,0 7.748364,-3.47318 7.748364,-7.78765 v -18.33114 z"
         style="fill:#dd6060;fill-opacity:1;stroke:none;stroke-width:0.76330876;stroke-linecap:round;stroke-linejoin:round;stroke-miterlimit:4;stroke-dasharray:none;stroke-opacity:1;paint-order:fill markers stroke" />
      <path
         style="fill:#c6fdff;fill-opacity:1;stroke:none;stroke-width:0.76330876;stroke-linecap:round;stroke-linejoin:round;stroke-miterlimit:4;stroke-dasharray:none;stroke-opacity:1;paint-order:fill markers stroke"
         d="m 89.259881,125.94726 v 18.33114 c 0,4.31447 3.455689,7.78765 7.748367,7.78765 4.292682,0 7.748382,-3.47318 7.748382,-7.78765 v -18.33114 z"
         id="path899"
         inkscape:connector-curvature="0" />
      <path
         style="fill:#dd6060;fill-opacity:1;stroke:none;stroke-width:0.76330876;stroke-linecap:round;stroke-linejoin:round;stroke-miterlimit:4;stroke-dasharray:none;stroke-opacity:1;paint-order:fill markers stroke"
         d="m 104.60575,125.94726 v 18.33114 c 0,4.31447 3.45571,7.78765 7.74841,7.78765 4.2927,0 7.7484,-3.47318 7.7484,-7.78765 v -18.33114 z"
         id="path901"
         inkscape:connector-curvature="0" />
      <path
         inkscape:connector-curvature="0"
         id="path903"
         d="m 119.95168,125.94726 v 18.33114 c 0,4.31447 3.45571,7.78765 7.74841,7.78765 4.2927,0 7.7484,-3.47318 7.7484,-7.78765 v -18.33114 z"
         style="fill:#c6fdff;fill-opacity:1;stroke:none;stroke-width:0.76330876;stroke-linecap:round;stroke-linejoin:round;stroke-miterlimit:4;stroke-dasharray:none;stroke-opacity:1;paint-order:fill markers stroke" />
      <path
         style="fill:#dd6060;fill-opacity:1;stroke:none;stroke-width:0.76330876;stroke-linecap:round;stroke-linejoin:round;stroke-miterlimit:4;stroke-dasharray:none;stroke-opacity:1;paint-order:fill markers stroke"
         d="m 135.29761,125.94726 v 18.33114 c 0,4.31447 3.45571,7.78765 7.74841,7.78765 4.2927,0 7.7484,-3.47318 7.7484,-7.78765 v -18.33114 z"
         id="path905"
         inkscape:connector-curvature="0" />
      <path
         inkscape:connector-curvature="0"
         id="path907"
         d="m 150.64354,125.94726 v 18.33114 c 0,4.31447 3.45571,7.78765 7.74841,7.78765 4.2927,0 7.7484,-3.47318 7.7484,-7.78765 v -18.33114 z"
         style="fill:#c6fdff;fill-opacity:1;stroke:none;stroke-width:0.76330876;stroke-linecap:round;stroke-linejoin:round;stroke-miterlimit:4;stroke-dasharray:none;stroke-opacity:1;paint-order:fill markers stroke" />
      <path
         inkscape:connector-curvature="0"
         id="path909"
         d="m 165.98947,125.94726 v 18.33114 c 0,4.31447 3.45571,7.78765 7.74841,7.78765 4.2927,0 7.7484,-3.47318 7.7484,-7.78765 v -18.33114 z"
         style="fill:#dd6060;fill-opacity:1;stroke:none;stroke-width:0.76330876;stroke-linecap:round;stroke-linejoin:round;stroke-miterlimit:4;stroke-dasharray:none;stroke-opacity:1;paint-order:fill markers stroke" />
      <path
         style="fill:#c6fdff;fill-opacity:1;stroke:none;stroke-width:0.76330876;stroke-linecap:round;stroke-linejoin:round;stroke-miterlimit:4;stroke-dasharray:none;stroke-opacity:1;paint-order:fill markers stroke"
         d="m 181.3354,125.94726 v 18.33114 c 0,4.31447 3.45571,7.78765 7.74841,7.78765 4.2927,0 7.7484,-3.47318 7.7484,-7.78765 v -18.33114 z"
         id="path911"
         inkscape:connector-curvature="0" />
      <path
         inkscape:connector-curvature="0"
         id="path913"
         d="m 196.68133,125.94726 v 18.33114 c 0,4.31447 3.45571,7.78765 7.74841,7.78765 4.2927,0 7.7484,-3.47318 7.7484,-7.78765 v -18.33114 z"
         style="fill:#dd6060;fill-opacity:1;stroke:none;stroke-width:0.76330876;stroke-linecap:round;stroke-linejoin:round;stroke-miterlimit:4;stroke-dasharray:none;stroke-opacity:1;paint-order:fill markers stroke" />
      <rect
         style="fill:#c67777;fill-opacity:1;stroke:none;stroke-width:0.76330876;stroke-linecap:round;stroke-linejoin:round;stroke-miterlimit:4;stroke-dasharray:none;stroke-opacity:1;paint-order:fill markers stroke"
         id="rect915"
         width="199.65034"
         height="9.0871639"
         x="12.520758"
         y="117.33216"
         ry="0.29870829"
         rx="0.31097272" />
    </g>
    <rect
       style="fill:#d9c7a4;fill-opacity:1;stroke:none;stroke-width:0.49999997;stroke-linecap:round;stroke-linejoin:round;stroke-miterlimit:4;stroke-dasharray:none;stroke-opacity:1;paint-order:fill markers stroke"
       id="rect815"
       width="122.70732"
       height="79.903549"
       x="47.542156"
       y="140.07271"
       rx="0.19964312"
       ry="0.19964312" />
    <g
       id="g862"
       transform="matrix(0.64199589,0,0,0.66835507,37.350473,56.5144)"
       style="stroke-width:1.52661753">
      <path
         inkscape:connector-curvature="0"
         id="rect819"
         d="m 12.530666,125.94726 v 18.33114 c 0,4.31447 3.455689,7.78765 7.748365,7.78765 4.292675,0 7.748364,-3.47318 7.748364,-7.78765 v -18.33114 z"
         style="fill:#dd6060;fill-opacity:1;stroke:none;stroke-width:0.76330876;stroke-linecap:round;stroke-linejoin:round;stroke-miterlimit:4;stroke-dasharray:none;stroke-opacity:1;paint-order:fill markers stroke" />
      <path
         style="fill:#c6fdff;fill-opacity:1;stroke:none;stroke-width:0.76330876;stroke-linecap:round;stroke-linejoin:round;stroke-miterlimit:4;stroke-dasharray:none;stroke-opacity:1;paint-order:fill markers stroke"
         d="m 27.876509,125.94726 v 18.33114 c 0,4.31447 3.455689,7.78765 7.748365,7.78765 4.292675,0 7.748364,-3.47318 7.748364,-7.78765 v -18.33114 z"
         id="path824"
         inkscape:connector-curvature="0" />
      <path
         style="fill:#dd6060;fill-opacity:1;stroke:none;stroke-width:0.76330876;stroke-linecap:round;stroke-linejoin:round;stroke-miterlimit:4;stroke-dasharray:none;stroke-opacity:1;paint-order:fill markers stroke"
         d="m 43.222352,125.94726 v 18.33114 c 0,4.31447 3.455689,7.78765 7.748365,7.78765 4.292675,0 7.748364,-3.47318 7.748364,-7.78765 v -18.33114 z"
         id="path826"
         inkscape:connector-curvature="0" />
      <path
         inkscape:connector-curvature="0"
         id="path828"
         d="m 58.568195,125.94726 v 18.33114 c 0,4.31447 3.455689,7.78765 7.748365,7.78765 4.292675,0 7.748364,-3.47318 7.748364,-7.78765 v -18.33114 z"
         style="fill:#c6fdff;fill-opacity:1;stroke:none;stroke-width:0.76330876;stroke-linecap:round;stroke-linejoin:round;stroke-miterlimit:4;stroke-dasharray:none;stroke-opacity:1;paint-order:fill markers stroke" />
      <path
         style="fill:#dd6060;fill-opacity:1;stroke:none;stroke-width:0.76330876;stroke-linecap:round;stroke-linejoin:round;stroke-miterlimit:4;stroke-dasharray:none;stroke-opacity:1;paint-order:fill markers stroke"
         d="m 73.914038,125.94726 v 18.33114 c 0,4.31447 3.455689,7.78765 7.748365,7.78765 4.292675,0 7.748364,-3.47318 7.748364,-7.78765 v -18.33114 z"
         id="path830"
         inkscape:connector-curvature="0" />
      <path
         inkscape:connector-curvature="0"
         id="path832"
         d="m 89.259881,125.94726 v 18.33114 c 0,4.31447 3.455689,7.78765 7.748367,7.78765 4.292682,0 7.748382,-3.47318 7.748382,-7.78765 v -18.33114 z"
         style="fill:#c6fdff;fill-opacity:1;stroke:none;stroke-width:0.76330876;stroke-linecap:round;stroke-linejoin:round;stroke-miterlimit:4;stroke-dasharray:none;stroke-opacity:1;paint-order:fill markers stroke" />
      <path
         inkscape:connector-curvature="0"
         id="path834"
         d="m 104.60575,125.94726 v 18.33114 c 0,4.31447 3.45571,7.78765 7.74841,7.78765 4.2927,0 7.7484,-3.47318 7.7484,-7.78765 v -18.33114 z"
         style="fill:#dd6060;fill-opacity:1;stroke:none;stroke-width:0.76330876;stroke-linecap:round;stroke-linejoin:round;stroke-miterlimit:4;stroke-dasharray:none;stroke-opacity:1;paint-order:fill markers stroke" />
      <path
         style="fill:#c6fdff;fill-opacity:1;stroke:none;stroke-width:0.76330876;stroke-linecap:round;stroke-linejoin:round;stroke-miterlimit:4;stroke-dasharray:none;stroke-opacity:1;paint-order:fill markers stroke"
         d="m 119.95168,125.94726 v 18.33114 c 0,4.31447 3.45571,7.78765 7.74841,7.78765 4.2927,0 7.7484,-3.47318 7.7484,-7.78765 v -18.33114 z"
         id="path836"
         inkscape:connector-curvature="0" />
      <path
         inkscape:connector-curvature="0"
         id="path838"
         d="m 135.29761,125.94726 v 18.33114 c 0,4.31447 3.45571,7.78765 7.74841,7.78765 4.2927,0 7.7484,-3.47318 7.7484,-7.78765 v -18.33114 z"
         style="fill:#dd6060;fill-opacity:1;stroke:none;stroke-width:0.76330876;stroke-linecap:round;stroke-linejoin:round;stroke-miterlimit:4;stroke-dasharray:none;stroke-opacity:1;paint-order:fill markers stroke" />
      <path
         style="fill:#c6fdff;fill-opacity:1;stroke:none;stroke-width:0.76330876;stroke-linecap:round;stroke-linejoin:round;stroke-miterlimit:4;stroke-dasharray:none;stroke-opacity:1;paint-order:fill markers stroke"
         d="m 150.64354,125.94726 v 18.33114 c 0,4.31447 3.45571,7.78765 7.74841,7.78765 4.2927,0 7.7484,-3.47318 7.7484,-7.78765 v -18.33114 z"
         id="path840"
         inkscape:connector-curvature="0" />
      <path
         style="fill:#dd6060;fill-opacity:1;stroke:none;stroke-width:0.76330876;stroke-linecap:round;stroke-linejoin:round;stroke-miterlimit:4;stroke-dasharray:none;stroke-opacity:1;paint-order:fill markers stroke"
         d="m 165.98947,125.94726 v 18.33114 c 0,4.31447 3.45571,7.78765 7.74841,7.78765 4.2927,0 7.7484,-3.47318 7.7484,-7.78765 v -18.33114 z"
         id="path842"
         inkscape:connector-curvature="0" />
      <path
         inkscape:connector-curvature="0"
         id="path844"
         d="m 181.3354,125.94726 v 18.33114 c 0,4.31447 3.45571,7.78765 7.74841,7.78765 4.2927,0 7.7484,-3.47318 7.7484,-7.78765 v -18.33114 z"
         style="fill:#c6fdff;fill-opacity:1;stroke:none;stroke-width:0.76330876;stroke-linecap:round;stroke-linejoin:round;stroke-miterlimit:4;stroke-dasharray:none;stroke-opacity:1;paint-order:fill markers stroke" />
      <path
         style="fill:#dd6060;fill-opacity:1;stroke:none;stroke-width:0.76330876;stroke-linecap:round;stroke-linejoin:round;stroke-miterlimit:4;stroke-dasharray:none;stroke-opacity:1;paint-order:fill markers stroke"
         d="m 196.68133,125.94726 v 18.33114 c 0,4.31447 3.45571,7.78765 7.74841,7.78765 4.2927,0 7.7484,-3.47318 7.7484,-7.78765 v -18.33114 z"
         id="path846"
         inkscape:connector-curvature="0" />
      <rect
         rx="0.31097272"
         ry="0.29870829"
         y="117.33216"
         x="12.520758"
         height="9.0871639"
         width="199.65034"
         id="rect817"
         style="fill:#c67777;fill-opacity:1;stroke:none;stroke-width:0.76330876;stroke-linecap:round;stroke-linejoin:round;stroke-miterlimit:4;stroke-dasharray:none;stroke-opacity:1;paint-order:fill markers stroke" />
    </g>
    <g
       id="g883"
       transform="matrix(0.64199589,0,0,0.66835507,65.490568,6.6763661)"
       style="stroke-width:1.52661753">
      <rect
         ry="19.194784"
         rx="19.982887"
         y="247"
         x="0"
         height="50"
         width="50"
         id="rect869"
         style="fill:#7c6334;fill-opacity:1;stroke:none;stroke-width:0.76330876;stroke-linecap:round;stroke-linejoin:round;stroke-miterlimit:4;stroke-dasharray:none;stroke-opacity:1;paint-order:fill markers stroke" />
      <rect
         style="fill:#392e18;fill-opacity:1;stroke:none;stroke-width:0.76330864;stroke-linecap:round;stroke-linejoin:round;stroke-miterlimit:4;stroke-dasharray:none;stroke-opacity:1;paint-order:fill markers stroke"
         id="rect871"
         width="40"
         height="40"
         x="5"
         y="252"
         rx="19.982887"
         ry="19.194784" />
      <rect
         ry="0"
         rx="0"
         y="248.89148"
         x="22.049734"
         height="46.9058"
         width="6.1471987"
         id="rect873"
         style="fill:#7c6334;fill-opacity:1;stroke:none;stroke-width:0.76330876;stroke-linecap:round;stroke-linejoin:round;stroke-miterlimit:4;stroke-dasharray:none;stroke-opacity:1;paint-order:fill markers stroke" />
      <rect
         transform="rotate(-90)"
         style="fill:#7c6334;fill-opacity:1;stroke:none;stroke-width:0.76330876;stroke-linecap:round;stroke-linejoin:round;stroke-miterlimit:4;stroke-dasharray:none;stroke-opacity:1;paint-order:fill markers stroke"
         id="rect875"
         width="6.1471987"
         height="46.9058"
         x="-275.41797"
         y="1.6704335"
         rx="0"
         ry="0" />
    </g>
    <g
       id="g931"
       transform="matrix(0.64199589,0,0,0.66835507,37.350473,56.5144)"
       style="stroke-width:1.52661753">
      <path
         inkscape:connector-curvature="0"
         id="rect864"
         d="m 152.88747,179.93578 c -7.10723,0 -12.82868,8.24233 -12.82868,18.4801 v 46.1995 h 43.03045 v -46.1995 c 0,-10.23777 -5.72196,-18.4801 -12.82919,-18.4801 z"
         style="fill:#7c6334;fill-opacity:1;stroke:none;stroke-width:0.76330876;stroke-linecap:round;stroke-linejoin:round;stroke-miterlimit:4;stroke-dasharray:none;stroke-opacity:1;paint-order:fill markers stroke" />
      <path
         style="fill:#392e18;fill-opacity:1;stroke:none;stroke-width:0.76330876;stroke-linecap:round;stroke-linejoin:round;stroke-miterlimit:4;stroke-dasharray:none;stroke-opacity:1;paint-order:fill markers stroke"
         d="m 153.99561,183.33757 c -6.04593,0 -10.91301,7.80883 -10.91301,17.50815 v 43.76966 h 36.60485 v -43.76966 c 0,-9.69932 -4.86751,-17.50815 -10.91345,-17.50815 z"
         id="path885"
         inkscape:connector-curvature="0" />
    </g>
    <g
       id="g964"
       transform="matrix(0.64199589,0,0,0.66835507,-21.615703,57.272268)"
       style="stroke-width:1.52661753">
      <g
         id="g927"
         transform="translate(136.43637,-199.30034)"
         style="stroke-width:1.52661753">
        <rect
           ry="19.194784"
           rx="19.982887"
           y="247"
           x="0"
           height="50"
           width="50"
           id="rect919"
           style="fill:#7c6334;fill-opacity:1;stroke:none;stroke-width:0.76330876;stroke-linecap:round;stroke-linejoin:round;stroke-miterlimit:4;stroke-dasharray:none;stroke-opacity:1;paint-order:fill markers stroke" />
        <rect
           style="fill:#392e18;fill-opacity:1;stroke:none;stroke-width:0.76330864;stroke-linecap:round;stroke-linejoin:round;stroke-miterlimit:4;stroke-dasharray:none;stroke-opacity:1;paint-order:fill markers stroke"
           id="rect921"
           width="40"
           height="40"
           x="5"
           y="252"
           rx="19.982887"
           ry="19.194784" />
      </g>
      <rect
         rx="12.363787"
         ry="11.876171"
         y="48.29166"
         x="114.2244"
         height="49.703869"
         width="21.544643"
         id="rect943"
         style="fill:#7c6334;fill-opacity:1;stroke:none;stroke-width:0.76330876;stroke-linecap:round;stroke-linejoin:round;stroke-miterlimit:4;stroke-dasharray:none;stroke-opacity:1;paint-order:fill markers stroke" />
      <rect
         style="fill:#7c6334;fill-opacity:1;stroke:none;stroke-width:0.76330876;stroke-linecap:round;stroke-linejoin:round;stroke-miterlimit:4;stroke-dasharray:none;stroke-opacity:1;paint-order:fill markers stroke"
         id="rect945"
         width="21.544643"
         height="49.703869"
         x="187.2486"
         y="48.29166"
         ry="11.876171"
         rx="12.363787" />
      <rect
         ry="7.6346827"
         rx="12.363787"
         y="60.386902"
         x="133.04762"
         height="5.1026788"
         width="6.0476193"
         id="rect947"
         style="fill:#3d311a;fill-opacity:1;stroke:none;stroke-width:0.76330876;stroke-linecap:round;stroke-linejoin:round;stroke-miterlimit:4;stroke-dasharray:none;stroke-opacity:1;paint-order:fill markers stroke" />
      <rect
         style="fill:#3d311a;fill-opacity:1;stroke:none;stroke-width:0.76330876;stroke-linecap:round;stroke-linejoin:round;stroke-miterlimit:4;stroke-dasharray:none;stroke-opacity:1;paint-order:fill markers stroke"
         id="rect949"
         width="6.0476193"
         height="5.1026788"
         x="133.04762"
         y="84.199425"
         rx="12.363787"
         ry="7.6346827" />
      <rect
         style="fill:#3d311a;fill-opacity:1;stroke:none;stroke-width:0.76330876;stroke-linecap:round;stroke-linejoin:round;stroke-miterlimit:4;stroke-dasharray:none;stroke-opacity:1;paint-order:fill markers stroke"
         id="rect951"
         width="6.0476193"
         height="5.1026788"
         x="183.84694"
         y="60.386902"
         rx="12.363787"
         ry="7.6346827" />
      <rect
         ry="7.6346827"
         rx="12.363787"
         y="84.199425"
         x="183.84694"
         height="5.1026788"
         width="6.0476193"
         id="rect953"
         style="fill:#3d311a;fill-opacity:1;stroke:none;stroke-width:0.76330876;stroke-linecap:round;stroke-linejoin:round;stroke-miterlimit:4;stroke-dasharray:none;stroke-opacity:1;paint-order:fill markers stroke" />
    </g>
    <g
       transform="matrix(0.64199589,0,0,0.66835507,125.18472,-75.678508)"
       id="g974"
       style="stroke-width:1.52661753">
      <rect
         style="fill:#7c6334;fill-opacity:1;stroke:none;stroke-width:0.76330876;stroke-linecap:round;stroke-linejoin:round;stroke-miterlimit:4;stroke-dasharray:none;stroke-opacity:1;paint-order:fill markers stroke"
         id="rect966"
         width="50"
         height="50"
         x="0"
         y="247"
         rx="19.982887"
         ry="19.194784" />
      <rect
         ry="19.194784"
         rx="19.982887"
         y="252"
         x="5"
         height="40"
         width="40"
         id="rect968"
         style="fill:#392e18;fill-opacity:1;stroke:none;stroke-width:0.76330864;stroke-linecap:round;stroke-linejoin:round;stroke-miterlimit:4;stroke-dasharray:none;stroke-opacity:1;paint-order:fill markers stroke" />
      <rect
         style="fill:#7c6334;fill-opacity:1;stroke:none;stroke-width:0.76330876;stroke-linecap:round;stroke-linejoin:round;stroke-miterlimit:4;stroke-dasharray:none;stroke-opacity:1;paint-order:fill markers stroke"
         id="rect970"
         width="6.1471987"
         height="46.9058"
         x="22.049734"
         y="248.89148"
         rx="0"
         ry="0" />
      <rect
         ry="0"
         rx="0"
         y="1.6704335"
         x="-275.41797"
         height="46.9058"
         width="6.1471987"
         id="rect972"
         style="fill:#7c6334;fill-opacity:1;stroke:none;stroke-width:0.76330876;stroke-linecap:round;stroke-linejoin:round;stroke-miterlimit:4;stroke-dasharray:none;stroke-opacity:1;paint-order:fill markers stroke"
         transform="rotate(-90)" />
    </g>
  </g>
</svg>
