<?xml version="1.0" encoding="UTF-8" standalone="no"?>
<!-- Created with Inkscape (http://www.inkscape.org/) -->

<svg
   xmlns:dc="http://purl.org/dc/elements/1.1/"
   xmlns:cc="http://creativecommons.org/ns#"
   xmlns:rdf="http://www.w3.org/1999/02/22-rdf-syntax-ns#"
   xmlns:svg="http://www.w3.org/2000/svg"
   xmlns="http://www.w3.org/2000/svg"
   xmlns:sodipodi="http://sodipodi.sourceforge.net/DTD/sodipodi-0.dtd"
   xmlns:inkscape="http://www.inkscape.org/namespaces/inkscape"
   width="210mm"
   height="297mm"
   viewBox="0 0 210 297"
   version="1.1"
   id="svg8"
   inkscape:version="0.92.2 (5c3e80d, 2017-08-06)"
   sodipodi:docname="boos1.svg">
  <defs
     id="defs2" />
  <sodipodi:namedview
     id="base"
     pagecolor="#ffffff"
     bordercolor="#666666"
     borderopacity="1.0"
     inkscape:pageopacity="0.0"
     inkscape:pageshadow="2"
     inkscape:zoom="1.4"
     inkscape:cx="517.25463"
     inkscape:cy="472.98948"
     inkscape:document-units="mm"
     inkscape:current-layer="layer1"
     showgrid="false"
     inkscape:window-width="1920"
     inkscape:window-height="1017"
     inkscape:window-x="-8"
     inkscape:window-y="-8"
     inkscape:window-maximized="1"
     inkscape:snap-global="false"
     showguides="true"
     inkscape:guide-bbox="true" />
  <metadata
     id="metadata5">
    <rdf:RDF>
      <cc:Work
         rdf:about="">
        <dc:format>image/svg+xml</dc:format>
        <dc:type
           rdf:resource="http://purl.org/dc/dcmitype/StillImage" />
        <dc:title />
      </cc:Work>
    </rdf:RDF>
  </metadata>
  <g
     inkscape:label="Layer 1"
     inkscape:groupmode="layer"
     id="layer1">
    <g
       id="g1461">
      <path
         id="path1076-4"
         d="m 168.31437,112.24416 a 31.808422,28.002759 0 0 1 31.8086,28.00267 31.808422,28.002759 0 0 1 -2.36195,10.54144 25.446738,19.211195 0 0 1 0.97381,5.19667 25.446738,19.211195 0 0 1 -25.44669,19.21108 25.446738,19.211195 0 0 1 -23.75809,-12.39159 31.808422,28.002759 0 0 1 -13.02397,-22.5576 31.808422,28.002759 0 0 1 31.80829,-28.00267 z"
         style="fill:#ebc159;fill-opacity:1;stroke:#000000;stroke-width:1;stroke-linecap:round;stroke-linejoin:round;stroke-miterlimit:4;stroke-dasharray:none;stroke-opacity:1"
         inkscape:connector-curvature="0" />
      <path
         id="path1076"
         d="m 44.666499,113.11243 a 31.808421,28.002759 0 0 0 -31.808603,28.00267 31.808421,28.002759 0 0 0 2.361957,10.54144 25.446737,19.211195 0 0 0 -0.973817,5.19668 25.446737,19.211195 0 0 0 25.446692,19.21106 25.446737,19.211195 0 0 0 23.758089,-12.39158 31.808421,28.002759 0 0 0 13.023968,-22.5576 31.808421,28.002759 0 0 0 -31.808286,-28.00267 z"
         style="fill:#ebc159;fill-opacity:1;stroke:#000000;stroke-width:1;stroke-linecap:round;stroke-linejoin:round;stroke-miterlimit:4;stroke-dasharray:none;stroke-opacity:1"
         inkscape:connector-curvature="0" />
      <path
         id="path1051"
         d="m 155.19105,200.79552 a 76.881573,30.545638 0 0 0 -5.53959,-1.67326 76.881573,30.545638 0 0 0 -6.55168,-1.59581 76.881573,30.545638 0 0 0 -6.91982,-1.3281 76.881573,30.545638 0 0 0 -7.21902,-1.04706 76.881573,30.545638 0 0 0 -7.44611,-0.75531 76.881573,30.545638 0 0 0 -7.59855,-0.45645 76.881573,30.545638 0 0 0 -7.67541,-0.15254 76.881573,30.545638 0 0 0 -5.43838,0.0766 76.881573,30.545638 0 0 0 -7.628917,0.36802 76.881573,30.545638 0 0 0 -7.498293,0.66865 76.881573,30.545638 0 0 0 -7.29303,0.96277 76.881573,30.545638 0 0 0 -7.014706,1.24708 76.881573,30.545638 0 0 0 -6.665852,1.51923 76.881573,30.545638 0 0 0 -6.251212,1.77625 76.881573,30.545638 0 0 0 -4.955427,1.72965 c 6.214482,10.07232 17.80906,16.82522 31.153593,16.82522 h 38.604124 c 13.9281,0 25.95125,-7.35542 31.93828,-18.1649 z"
         style="fill:#ebc159;fill-opacity:1;stroke:#000000;stroke-width:1;stroke-linecap:round;stroke-linejoin:round;stroke-miterlimit:4;stroke-dasharray:none;stroke-opacity:1"
         inkscape:connector-curvature="0" />
      <path
         style="fill:#618f5e;fill-opacity:1;stroke:#000000;stroke-width:1;stroke-linecap:round;stroke-linejoin:round;stroke-miterlimit:4;stroke-dasharray:none;stroke-opacity:1"
         d="m 65.569873,107.73947 a 22.793861,42.763716 89.84834 0 0 -27.837746,6.04487 26.950408,26.266154 0 0 1 17.34431,24.50895 26.950408,26.266154 0 0 1 -3.872811,13.50452 22.793861,42.763716 89.84834 0 0 0.494025,0.1107 c -1.951638,4.16635 -3.036258,8.77732 -3.036258,13.63541 v 19.64763 c 0,6.18601 1.763643,11.96782 4.83366,16.94365 a 76.881573,30.545638 0 0 1 4.955427,-1.72965 76.881573,30.545638 0 0 1 6.251212,-1.77625 76.881573,30.545638 0 0 1 6.665852,-1.51923 76.881573,30.545638 0 0 1 7.014706,-1.24708 76.881573,30.545638 0 0 1 7.29303,-0.96277 76.881573,30.545638 0 0 1 7.498293,-0.66865 76.881573,30.545638 0 0 1 7.628917,-0.36802 76.881573,30.545638 0 0 1 5.43838,-0.0766 76.881573,30.545638 0 0 1 7.67541,0.15254 76.881573,30.545638 0 0 1 7.59855,0.45645 76.881573,30.545638 0 0 1 7.44611,0.75531 76.881573,30.545638 0 0 1 7.21902,1.04706 76.881573,30.545638 0 0 1 6.91982,1.3281 76.881573,30.545638 0 0 1 6.55168,1.59581 76.881573,30.545638 0 0 1 5.53959,1.67326 c 2.58288,-4.66334 4.04898,-9.96556 4.04898,-15.60397 v -19.64763 c 0,-4.6404 -0.9885,-9.05587 -2.77786,-13.0733 a 22.793861,42.763716 89.84834 0 0 0.71858,-0.13741 26.950408,26.266154 0 0 1 -5.75371,-16.21059 26.950408,26.266154 0 0 1 16.77785,-24.30357 22.793861,42.763716 89.84834 0 0 -25.05419,-3.91784 22.793861,42.763716 89.84834 0 0 -37.6262,13.17094 22.793861,42.763716 89.84834 0 0 -39.954627,-13.33268 z"
         id="path1014"
         inkscape:connector-curvature="0" />
      <path
         sodipodi:nodetypes="ccccccccccccccccccccccccccccc"
         style="fill:#315a2e;fill-opacity:1;stroke:none;stroke-width:1;stroke-linecap:round;stroke-linejoin:round;stroke-miterlimit:4;stroke-dasharray:none;stroke-opacity:1"
         d="m 66.224184,107.73898 c -10.332916,0.14844 -20.222034,2.16476 -27.837746,5.67591 2.296875,0.81049 4.70694,2.36564 6.679072,3.71393 l -0.166297,-0.94593 c 3.445295,-3.65154 7.078319,-4.39646 10.959628,-1.2972 l 7.524543,5.62101 c -2.559107,-10.14598 0.649619,-6.34481 3.598916,-3.17096 8.973018,-6.43852 7.407494,2.74757 5.725245,12.10672 -2.019096,5.58925 -3.255985,10.81149 -4.416807,15.99804 -0.904169,5.89249 3.45152,8.86014 8.342436,11.53016 2.518711,0.73679 4.736572,1.23471 12.759242,6.34165 -0.68421,3.77168 -0.583558,7.46971 1.7993,10.95359 3.998391,6.60439 8.982444,12.05897 13.836354,15.18463 5.06868,-3.02398 11.08298,-9.36803 14.1355,-13.74336 4.03037,-16.05455 5.74906,-18.00931 7.36102,-19.31307 10.16049,-1.18535 17.1276,-4.42096 21.42871,-9.36825 -12.48904,6.82563 -7.6695,-15.41292 -9.65119,-26.23101 -6.34162,-3.60339 -2.0014,-5.26675 0.81789,-7.20634 1.42714,-3.32625 3.39183,-2.61712 6.05228,3.31503 3.95717,-9.3047 7.6328,-5.92827 11.28697,-1.58534 1.65798,-0.99615 5.01211,-7.70791 2.14346,1.91502 3.71642,-3.37233 9.0738,-5.9111 9.92188,-5.52377 l 0.20305,-0.13878 0.004,0.0524 c 0.0427,-0.0179 0.0853,-0.0358 0.12809,-0.0535 -8.83006,-2.11481 -16.13671,-3.79099 -25.05439,-3.6787 -16.18271,0.23408 -30.74665,5.02096 -37.62619,12.367 -7.062955,-7.81687 -22.79494,-12.74613 -39.954635,-12.51887 z"
         id="path1126"
         inkscape:connector-curvature="0" />
      <path
         sodipodi:nodetypes="ccccccccccccc"
         inkscape:connector-curvature="0"
         id="path1112"
         d="m 129.64003,142.77026 1.07882,0.005 -7.83741,11.90265 -5.07839,9.32002 -4.47959,12.78075 -8.64906,8.32646 -10.371496,-12.95528 -2.757154,-8.15193 -9.558331,-8.59261 -3.357473,-12.63006 0.627818,-0.003 c 4.90648,2.00191 14.606992,3.25716 25.185446,3.25897 10.58465,-0.001 20.29109,-1.25756 25.19682,-3.26105 z"
         style="fill:#ebc159;fill-opacity:1;stroke:#000000;stroke-width:1;stroke-linecap:round;stroke-linejoin:round;stroke-miterlimit:4;stroke-dasharray:none;stroke-opacity:1" />
      <path
         sodipodi:nodetypes="ccccccc"
         inkscape:connector-curvature="0"
         id="path1120"
         d="m 83.258197,155.87362 8.870969,7.86666 c -1.194611,-3.66485 6.754975,-2.15516 12.675954,-0.42212 2.57831,0.82683 5.20504,1.44916 8.2133,0.46049 3.23464,-2.12487 5.89564,-3.65479 5.0376,-1.53496 l 7.24168,-12.81689 z"
         style="fill:#d68024;fill-opacity:1;stroke:none;stroke-width:1;stroke-linecap:butt;stroke-linejoin:miter;stroke-miterlimit:4;stroke-dasharray:none;stroke-opacity:1" />
      <g
         id="g1413">
        <path
           style="fill:#ebc159;fill-opacity:1;stroke:#000000;stroke-width:0.99999994;stroke-linecap:round;stroke-linejoin:round;stroke-miterlimit:4;stroke-dasharray:none;stroke-opacity:1"
           d="m 86.537629,97.020266 c 8.866235,-5.729307 20.555671,-3.261916 30.404831,-1.714155 8.91496,2.583954 17.2335,16.880909 10.69347,21.181659 l -7.46769,5.04095 7.46769,-5.04095 c -0.43999,10.80248 17.98244,24.9336 -3.18064,35.84413 -13.41926,5.93505 -27.797563,8.4569 -44.869108,1.39357 C 66.01205,150.56663 74.558,131.67636 77.2774,119.33942 l 6.086622,5.27162 -6.030926,-5.22153 c -5.869761,-10.14622 4.74149,-19.556381 9.204533,-22.369244 z"
           id="path866"
           inkscape:connector-curvature="0"
           sodipodi:nodetypes="ccccccccccc" />
        <path
           style="fill:#c5b5a1;fill-opacity:1;stroke:#000000;stroke-width:0.99999994;stroke-linecap:butt;stroke-linejoin:miter;stroke-miterlimit:4;stroke-dasharray:none;stroke-opacity:1"
           d="m 98.655805,93.277985 2.288995,-4.391956 c 1.1924,-1.440481 2.3286,-1.302201 3.42654,-0.08873 l 2.10761,4.534787 z"
           id="path870"
           inkscape:connector-curvature="0"
           sodipodi:nodetypes="ccccc" />
        <path
           style="fill:#ffffff;fill-opacity:1;stroke:#000000;stroke-width:0.99999994;stroke-linecap:butt;stroke-linejoin:miter;stroke-miterlimit:4;stroke-dasharray:none;stroke-opacity:1"
           d="m 94.123812,106.25903 c -1.934266,6.46743 -3.246604,12.83086 0.544768,18.34084 4.827329,-1.25538 9.33235,-1.64841 13.07438,0 3.93787,-6.39633 3.06177,-12.50644 1.63429,-18.58377 -5.08448,2.83194 -10.168958,2.58918 -15.253438,0.24293 z"
           id="path889"
           inkscape:connector-curvature="0"
           sodipodi:nodetypes="ccccc" />
        <path
           style="fill:#ebc159;fill-opacity:1;stroke:#000000;stroke-width:0.99999994;stroke-linecap:butt;stroke-linejoin:miter;stroke-miterlimit:4;stroke-dasharray:none;stroke-opacity:1"
           d="m 96.262695,94.563302 c 2.59454,-2.499592 9.065005,-3.955725 12.288425,0.578824"
           id="path868"
           inkscape:connector-curvature="0"
           sodipodi:nodetypes="cc" />
        <path
           style="fill:none;stroke:#000000;stroke-width:0.99999994;stroke-linecap:round;stroke-linejoin:round;stroke-miterlimit:4;stroke-dasharray:none;stroke-opacity:1"
           d="m 87.13271,121.57985 c 0.794301,1.00114 1.359149,1.75828 2.961287,2.63837 3.865119,1.17761 7.932793,-0.43313 11.869213,-0.78508 4.20143,0.48136 7.66945,1.94301 12.71185,0.92665 2.03816,-0.95587 1.88499,-1.66988 2.50384,-2.57402"
           id="path872-1"
           inkscape:connector-curvature="0"
           sodipodi:nodetypes="ccccc" />
        <path
           style="fill:none;stroke:#000000;stroke-width:0.99999994;stroke-linecap:round;stroke-linejoin:round;stroke-miterlimit:4;stroke-dasharray:none;stroke-opacity:1"
           d="m 87.161844,110.98157 c 0.794296,-1.67026 1.359145,-2.93342 2.961282,-4.40171 3.86512,-1.96466 7.932794,0.72261 11.869214,1.30978 4.20143,-0.80306 7.66945,-3.2416 12.71184,-1.54597 2.03817,1.59472 1.88499,2.78593 2.50385,4.29435"
           id="path872"
           inkscape:connector-curvature="0"
           sodipodi:nodetypes="ccccc" />
        <g
           id="g930"
           transform="matrix(1.0191318,0,0,0.90891428,188.64067,101.61605)"
           style="stroke-width:1.03901863;stroke-miterlimit:4;stroke-dasharray:none">
          <path
             sodipodi:nodetypes="cccc"
             inkscape:connector-curvature="0"
             id="path924"
             d="m -102.16312,44.958622 c -0.84729,-2.583304 -0.5066,-5.375744 0.0326,-8.178994 1.89876,-1.891257 7.132855,2.862069 9.862817,5.408391 z"
             style="fill:#d3dba4;fill-opacity:1;stroke:#000000;stroke-width:1.03901863;stroke-linecap:butt;stroke-linejoin:miter;stroke-miterlimit:4;stroke-dasharray:none;stroke-opacity:1" />
          <path
             sodipodi:nodetypes="cccc"
             inkscape:connector-curvature="0"
             id="path926"
             d="m -101.66651,37.080774 7.442803,5.478485 1.703758,-0.469604 c -2.753264,-2.169539 -7.008416,-6.799759 -9.146561,-5.008881 z"
             style="fill:#fcfcfc;fill-opacity:1;stroke:none;stroke-width:1.03901863;stroke-linecap:butt;stroke-linejoin:miter;stroke-miterlimit:4;stroke-dasharray:none;stroke-opacity:1" />
        </g>
        <g
           transform="matrix(-1.0144701,0.08683586,0.09736582,0.90475671,15.365398,109.28332)"
           id="g936"
           style="stroke-width:1.03901875;stroke-miterlimit:4;stroke-dasharray:none">
          <path
             style="fill:#d3dba4;fill-opacity:1;stroke:#000000;stroke-width:1.03901875;stroke-linecap:butt;stroke-linejoin:miter;stroke-miterlimit:4;stroke-dasharray:none;stroke-opacity:1"
             d="m -102.16312,44.958622 c -0.84729,-2.583304 -0.5066,-5.375744 0.0326,-8.178994 1.89876,-1.891257 7.132855,2.862069 9.862817,5.408391 z"
             id="path932"
             inkscape:connector-curvature="0"
             sodipodi:nodetypes="cccc" />
          <path
             style="fill:#fcfcfc;fill-opacity:1;stroke:none;stroke-width:1.03901875;stroke-linecap:butt;stroke-linejoin:miter;stroke-miterlimit:4;stroke-dasharray:none;stroke-opacity:1"
             d="m -101.66651,37.080774 7.442803,5.478485 1.703758,-0.469604 c -2.753264,-2.169539 -7.008416,-6.799759 -9.146561,-5.008881 z"
             id="path934"
             inkscape:connector-curvature="0"
             sodipodi:nodetypes="cccc" />
        </g>
        <path
           style="fill:none;stroke:#000000;stroke-width:0.99999994;stroke-linecap:round;stroke-linejoin:round;stroke-miterlimit:4;stroke-dasharray:none;stroke-opacity:1"
           d="m 82.191205,143.28371 c 14.717205,-5.09274 28.958105,-4.87556 42.950635,-1.88952"
           id="path922"
           inkscape:connector-curvature="0"
           sodipodi:nodetypes="cc" />
        <path
           style="fill:none;stroke:#000000;stroke-width:0.99999994;stroke-linecap:round;stroke-linejoin:round;stroke-miterlimit:4;stroke-dasharray:none;stroke-opacity:1"
           d="m 96.171524,97.168386 c 3.508468,1.984146 7.227206,3.311934 12.257226,0.546582"
           id="path940"
           inkscape:connector-curvature="0"
           sodipodi:nodetypes="cc" />
        <path
           style="fill:none;stroke:#cb822d;stroke-width:0.99999994;stroke-linecap:round;stroke-linejoin:round;stroke-miterlimit:4;stroke-dasharray:none;stroke-opacity:1"
           d="m 97.589849,103.21204 c 2.358263,0.67076 4.318601,1.79319 8.580061,0.30366"
           id="path944"
           inkscape:connector-curvature="0"
           sodipodi:nodetypes="cc" />
        <path
           style="fill:none;stroke:#000000;stroke-width:0.99999994;stroke-linecap:round;stroke-linejoin:round;stroke-miterlimit:4;stroke-dasharray:none;stroke-opacity:1"
           d="m 96.695099,143.91241 c 3.926671,-2.11305 8.516461,-2.46384 12.834701,-0.36438"
           id="path948"
           inkscape:connector-curvature="0"
           sodipodi:nodetypes="cc" />
        <path
           inkscape:connector-curvature="0"
           style="fill:#d68024;fill-opacity:1;stroke:none;stroke-width:1;stroke-linecap:round;stroke-linejoin:round;stroke-miterlimit:4;stroke-dasharray:none;stroke-opacity:1"
           d="m 97.634646,93.91576 c -0.944756,0.552194 -0.593155,0.452527 -1.25975,0.839344 -0.203526,0.118102 0.0056,-0.415367 -0.464505,-0.348983 -0.144112,0.02035 0.590658,-0.466686 0.421321,-0.448558 -2.607875,0.279179 -7.419689,1.642623 -9.721977,3.170438 -3.923488,3.087209 -15.14349,12.113099 -9.278538,22.257879 l -0.05372,-0.0465 c -2.719399,12.33695 -11.265295,31.22703 2.308838,34.38587 17.071545,7.06332 31.449825,4.54194 44.869085,-1.39312 21.12705,-10.89195 2.86413,-24.59515 3.23943,-35.39054 l -4.90312,3.52036 2.97926,-0.75104 c 2.36078,4.29176 6.26432,12.71354 6.81013,17.00529 0.83496,5.98797 -0.30303,5.41291 -2.77493,8.16799 -3.87131,3.11023 -9.33957,5.27077 -16.47943,6.43763 -7.3998,-2.84582 -14.799599,-2.22185 -22.199394,-2.30808 5.241511,1.31393 14.573484,0.92542 14.981114,4.2512 -10.61049,4.31776 -17.885687,-0.78399 -26.556902,-1.94312 -3.646303,-1.61951 -3.563163,-2.38877 -4.630843,-4.25121 -2.022622,-5.80649 0.746646,-18.05692 2.451561,-27.32917 l 6.400916,4.61522 -5.311276,-6.31598 c -1.000821,-10.99749 1.529255,-9.04895 3.677077,-8.50194 l 1.906476,10.32388 c 0.805811,2.44249 1.714971,4.8201 4.222162,6.1948 3.17557,0.96308 6.757306,1.03263 10.895355,-0.12165 1.074754,-0.49524 1.589974,-0.95888 2.230364,-1.73082 -3.605657,0.5514 -6.968126,1.36746 -10.434532,0.57396 -1.740549,-0.097 -3.24983,-1.62416 -3.916706,-3.21552 -0.738526,-3.97975 -3.41946,-8.09977 -0.176954,-10.46668 -0.813992,-1.09254 6.427931,-9.69839 9.165308,-14.068754 -0.241265,-0.94668 2.048355,0.893852 3.677603,1.278508 -1.275905,-0.921262 -3.698188,-1.77726 -2.179281,-2.857621 z m 19.515574,1.815369 c 8.94331,5.076911 14.83168,14.855221 10.45613,20.588121 5.98286,-4.31159 -2.06281,-17.953442 -10.45613,-20.588121 z"
           id="path950" />
        <path
           style="fill:#fff6b8;fill-opacity:1;stroke:none;stroke-width:0.99999994;stroke-linecap:butt;stroke-linejoin:miter;stroke-miterlimit:4;stroke-dasharray:none;stroke-opacity:1"
           d="m 110.62734,103.25083 c 6.02473,-0.92655 8.12476,0.0395 7.76787,6.22695 -1.59347,-8.76712 -5.17858,-4.1513 -7.76787,-6.22695 z"
           id="path955"
           inkscape:connector-curvature="0"
           sodipodi:nodetypes="ccc" />
      </g>
      <path
         sodipodi:nodetypes="ccc"
         inkscape:connector-curvature="0"
         id="path1122"
         d="m 90.619199,178.59098 c 3.604699,4.46673 6.691907,9.307 13.004441,11.81916 5.64886,1.62811 10.11936,-5.86605 14.96737,-10.4377"
         style="fill:none;stroke:#000000;stroke-width:1;stroke-linecap:round;stroke-linejoin:round;stroke-miterlimit:4;stroke-dasharray:none;stroke-opacity:1" />
      <path
         sodipodi:nodetypes="cc"
         inkscape:connector-curvature="0"
         id="path1134"
         d="m 43.162783,125.05166 c -2.701651,5.70125 -8.25823,8.27704 -16.193378,8.24887"
         style="fill:none;stroke:#000000;stroke-width:1;stroke-linecap:round;stroke-linejoin:round;stroke-miterlimit:4;stroke-dasharray:none;stroke-opacity:1" />
      <path
         sodipodi:nodetypes="cc"
         inkscape:connector-curvature="0"
         id="path1136"
         d="m 160.68044,124.6175 c 1.985,3.52457 4.62982,8.64827 13.18603,8.24888"
         style="fill:none;stroke:#000000;stroke-width:1;stroke-linecap:round;stroke-linejoin:round;stroke-miterlimit:4;stroke-dasharray:none;stroke-opacity:1" />
      <rect
         style="fill:#ebc159;fill-opacity:1;stroke:#000000;stroke-width:1;stroke-linecap:round;stroke-linejoin:round;stroke-miterlimit:4;stroke-dasharray:none;stroke-opacity:1"
         id="rect1140"
         width="54.59481"
         height="44.283432"
         x="147.01553"
         y="145.86359"
         rx="45.546169"
         ry="27.403162" />
      <rect
         style="fill:#ebc159;fill-opacity:1;stroke:#000000;stroke-width:1;stroke-linecap:round;stroke-linejoin:round;stroke-miterlimit:4;stroke-dasharray:none;stroke-opacity:1"
         id="rect1140-1"
         width="54.59481"
         height="44.283432"
         x="13.060293"
         y="145.49983"
         rx="45.546169"
         ry="27.403162" />
    </g>
    <g
       transform="translate(125.22083,-41.825656)"
       id="g841" />
    <g
       id="g920"
       transform="matrix(0.53145576,0,0,0.47263496,174.644,99.697634)"
       style="stroke-width:1.99527848;stroke-miterlimit:4;stroke-dasharray:none">
      <g
         id="g913"
         style="stroke-width:1.99527848;stroke-miterlimit:4;stroke-dasharray:none">
        <path
           style="fill:#e3971c;fill-opacity:1;stroke:none;stroke-width:7.54121017;stroke-linecap:round;stroke-linejoin:round;stroke-miterlimit:4;stroke-dasharray:none;stroke-opacity:1"
           d="m -566.97656,127.3125 a 47.244094,47.244094 0 0 0 -0.22461,4.48047 47.244094,47.244094 0 0 0 47.24414,47.24414 47.244094,47.244094 0 0 0 47.24414,-47.24414 47.244094,47.244094 0 0 0 -0.48828,-6.39649 z"
           id="path904"
           transform="scale(0.26458333)"
           inkscape:connector-curvature="0" />
        <path
           style="fill:#a1411c;fill-opacity:1;stroke:none;stroke-width:7.54121017;stroke-linecap:round;stroke-linejoin:round;stroke-miterlimit:4;stroke-dasharray:none;stroke-opacity:1"
           d="m -566.97656,127.3125 93.77539,-1.91602 a 47.244094,47.244094 0 0 0 -46.75586,-40.847652 47.244094,47.244094 0 0 0 -47.01953,42.763672 z"
           id="path891"
           transform="scale(0.26458333)"
           inkscape:connector-curvature="0" />
        <ellipse
           style="fill:#000000;fill-opacity:1;stroke:#000000;stroke-width:1.99527848;stroke-linecap:round;stroke-linejoin:round;stroke-miterlimit:4;stroke-dasharray:none;stroke-opacity:1"
           id="path906"
           cx="-137.63058"
           cy="35.204243"
           rx="6.9453125"
           ry="6.6618304" />
      </g>
      <path
         style="fill:#ffffff;fill-opacity:1;stroke:none;stroke-width:3.92699981;stroke-linecap:round;stroke-linejoin:round;stroke-miterlimit:4;stroke-dasharray:none;stroke-opacity:1"
         d="m -350.83008,58.064453 a 14.061306,3.8071391 0 0 0 -6.76367,0.474609 v 6.669922 a 14.061306,3.8071391 0 0 0 6.76367,0.46875 14.061306,3.8071391 0 0 0 14.06055,-3.80664 14.061306,3.8071391 0 0 0 -14.06055,-3.806641 z"
         transform="matrix(0.50737109,0,0,0.5088146,31.299491,3.2507057)"
         id="path908"
         inkscape:connector-curvature="0" />
    </g>
    <g
       id="g1316"
       transform="translate(3.3179409,1.391196)">
      <rect
         ry="27.403162"
         rx="45.546169"
         y="144.80554"
         x="11.238693"
         height="44.283432"
         width="52.281471"
         id="rect1138"
         style="fill:#ebc159;fill-opacity:1;stroke:#000000;stroke-width:1;stroke-linecap:round;stroke-linejoin:round;stroke-miterlimit:4;stroke-dasharray:none;stroke-opacity:1" />
      <g
         transform="matrix(0.6120332,0,0,0.57431041,110.48097,90.587904)"
         id="g1167"
         style="stroke-width:1.68670511;stroke-miterlimit:4;stroke-dasharray:none">
        <g
           id="g1154"
           transform="matrix(1,0,0,0.99294574,-0.37797592,2.6994973)"
           style="stroke-width:1.69268596;stroke-miterlimit:4;stroke-dasharray:none">
          <rect
             ry="48.053879"
             rx="74.417809"
             y="71.159241"
             x="-147.41071"
             height="33.639881"
             width="47.058037"
             id="rect1148"
             style="fill:#ebc159;fill-opacity:1;stroke:#000000;stroke-width:1.69268596;stroke-linecap:round;stroke-linejoin:round;stroke-miterlimit:4;stroke-dasharray:none;stroke-opacity:1" />
          <ellipse
             ry="5.6696429"
             rx="15.213541"
             cy="77.584824"
             cx="-124.25967"
             id="path1150"
             style="fill:#f8e8c3;fill-opacity:1;stroke:#000000;stroke-width:1.69268596;stroke-linecap:round;stroke-linejoin:round;stroke-miterlimit:4;stroke-dasharray:none;stroke-opacity:1" />
        </g>
        <rect
           style="fill:#ebc159;fill-opacity:1;stroke:#000000;stroke-width:1.68670511;stroke-linecap:round;stroke-linejoin:round;stroke-miterlimit:4;stroke-dasharray:none;stroke-opacity:1"
           id="rect1092"
           width="99.40773"
           height="112.63689"
           x="-173.1131"
           y="93.648811"
           ry="36.080715"
           rx="35.115524" />
        <path
           style="fill:none;stroke:#000000;stroke-width:1.68670511;stroke-linecap:round;stroke-linejoin:round;stroke-miterlimit:4;stroke-dasharray:none;stroke-opacity:1"
           d="m -120.1444,121.82119 45.375459,-0.29588"
           id="path1142"
           inkscape:connector-curvature="0" />
        <path
           inkscape:connector-curvature="0"
           id="path1156"
           d="m -119.91281,176.3257 45.375459,-0.29588"
           style="fill:none;stroke:#000000;stroke-width:1.68670511;stroke-linecap:round;stroke-linejoin:round;stroke-miterlimit:4;stroke-dasharray:none;stroke-opacity:1" />
        <path
           style="fill:none;stroke:#000000;stroke-width:1.68670511;stroke-linecap:round;stroke-linejoin:round;stroke-miterlimit:4;stroke-dasharray:none;stroke-opacity:1"
           d="m -119.44963,147.22135 45.37546,-0.29588"
           id="path1158"
           inkscape:connector-curvature="0" />
      </g>
      <path
         sodipodi:nodetypes="cc"
         inkscape:connector-curvature="0"
         id="path1241"
         d="m 45.593378,144.4866 c 17.758011,-0.74389 21.940968,5.40892 18.946055,15.73326"
         style="fill:#ebc159;fill-opacity:1;stroke:#000000;stroke-width:1;stroke-linecap:butt;stroke-linejoin:miter;stroke-miterlimit:4;stroke-dasharray:none;stroke-opacity:1" />
      <path
         sodipodi:nodetypes="cc"
         inkscape:connector-curvature="0"
         id="path1243"
         d="m 64.397692,160.26711 c 2.895795,4.73235 3.223349,9.49739 0.330729,14.59933"
         style="fill:#ebc159;fill-opacity:1;stroke:#000000;stroke-width:1;stroke-linecap:butt;stroke-linejoin:miter;stroke-miterlimit:4;stroke-dasharray:none;stroke-opacity:1" />
      <path
         sodipodi:nodetypes="cc"
         inkscape:connector-curvature="0"
         id="path1245"
         d="m 64.746043,175.12508 c 3.807038,5.38946 3.0555,11.36644 -0.06682,16.90481"
         style="fill:#ebc159;fill-opacity:1;stroke:#000000;stroke-width:1;stroke-linecap:butt;stroke-linejoin:miter;stroke-miterlimit:4;stroke-dasharray:none;stroke-opacity:1" />
      <path
         sodipodi:nodetypes="cc"
         inkscape:connector-curvature="0"
         id="path1247"
         d="m 65.013313,191.62899 c -0.569618,19.69818 -11.118226,16.11352 -18.441598,17.23888"
         style="fill:#ebc159;fill-opacity:1;stroke:#000000;stroke-width:1;stroke-linecap:butt;stroke-linejoin:miter;stroke-miterlimit:4;stroke-dasharray:none;stroke-opacity:1" />
    </g>
    <g
       id="g1344"
       transform="matrix(-1,0,0,1,207.64312,0.71120731)">
      <rect
         style="fill:#ebc159;fill-opacity:1;stroke:#000000;stroke-width:1;stroke-linecap:round;stroke-linejoin:round;stroke-miterlimit:4;stroke-dasharray:none;stroke-opacity:1"
         id="rect1318"
         width="52.281471"
         height="44.283432"
         x="11.238693"
         y="144.80554"
         rx="45.546169"
         ry="27.403162" />
      <g
         style="stroke-width:1.68670511;stroke-miterlimit:4;stroke-dasharray:none"
         id="g1334"
         transform="matrix(0.6120332,0,0,0.57431041,110.48097,90.587904)">
        <g
           style="stroke-width:1.69268596;stroke-miterlimit:4;stroke-dasharray:none"
           transform="matrix(1,0,0,0.99294574,-0.37797592,2.6994973)"
           id="g1324">
          <rect
             style="fill:#ebc159;fill-opacity:1;stroke:#000000;stroke-width:1.69268596;stroke-linecap:round;stroke-linejoin:round;stroke-miterlimit:4;stroke-dasharray:none;stroke-opacity:1"
             id="rect1320"
             width="47.058037"
             height="33.639881"
             x="-147.41071"
             y="71.159241"
             rx="74.417809"
             ry="48.053879" />
          <ellipse
             style="fill:#f8e8c3;fill-opacity:1;stroke:#000000;stroke-width:1.69268596;stroke-linecap:round;stroke-linejoin:round;stroke-miterlimit:4;stroke-dasharray:none;stroke-opacity:1"
             id="ellipse1322"
             cx="-124.25967"
             cy="77.584824"
             rx="15.213541"
             ry="5.6696429" />
        </g>
        <rect
           rx="35.115524"
           ry="36.080715"
           y="93.648811"
           x="-173.1131"
           height="112.63689"
           width="99.40773"
           id="rect1326"
           style="fill:#ebc159;fill-opacity:1;stroke:#000000;stroke-width:1.68670511;stroke-linecap:round;stroke-linejoin:round;stroke-miterlimit:4;stroke-dasharray:none;stroke-opacity:1" />
        <path
           inkscape:connector-curvature="0"
           id="path1328"
           d="m -120.1444,121.82119 45.375459,-0.29588"
           style="fill:none;stroke:#000000;stroke-width:1.68670511;stroke-linecap:round;stroke-linejoin:round;stroke-miterlimit:4;stroke-dasharray:none;stroke-opacity:1" />
        <path
           style="fill:none;stroke:#000000;stroke-width:1.68670511;stroke-linecap:round;stroke-linejoin:round;stroke-miterlimit:4;stroke-dasharray:none;stroke-opacity:1"
           d="m -119.91281,176.3257 45.375459,-0.29588"
           id="path1330"
           inkscape:connector-curvature="0" />
        <path
           inkscape:connector-curvature="0"
           id="path1332"
           d="m -119.44963,147.22135 45.37546,-0.29588"
           style="fill:none;stroke:#000000;stroke-width:1.68670511;stroke-linecap:round;stroke-linejoin:round;stroke-miterlimit:4;stroke-dasharray:none;stroke-opacity:1" />
      </g>
      <path
         style="fill:#ebc159;fill-opacity:1;stroke:#000000;stroke-width:1;stroke-linecap:butt;stroke-linejoin:miter;stroke-miterlimit:4;stroke-dasharray:none;stroke-opacity:1"
         d="m 45.593378,144.4866 c 17.758011,-0.74389 21.940968,5.40892 18.946055,15.73326"
         id="path1336"
         inkscape:connector-curvature="0"
         sodipodi:nodetypes="cc" />
      <path
         style="fill:#ebc159;fill-opacity:1;stroke:#000000;stroke-width:1;stroke-linecap:butt;stroke-linejoin:miter;stroke-miterlimit:4;stroke-dasharray:none;stroke-opacity:1"
         d="m 64.397692,160.26711 c 2.895795,4.73235 3.223349,9.49739 0.330729,14.59933"
         id="path1338"
         inkscape:connector-curvature="0"
         sodipodi:nodetypes="cc" />
      <path
         style="fill:#ebc159;fill-opacity:1;stroke:#000000;stroke-width:1;stroke-linecap:butt;stroke-linejoin:miter;stroke-miterlimit:4;stroke-dasharray:none;stroke-opacity:1"
         d="m 64.746043,175.12508 c 3.807038,5.38946 3.0555,11.36644 -0.06682,16.90481"
         id="path1340"
         inkscape:connector-curvature="0"
         sodipodi:nodetypes="cc" />
      <path
         style="fill:#ebc159;fill-opacity:1;stroke:#000000;stroke-width:1;stroke-linecap:butt;stroke-linejoin:miter;stroke-miterlimit:4;stroke-dasharray:none;stroke-opacity:1"
         d="m 65.013313,191.62899 c -0.569618,19.69818 -11.118226,16.11352 -18.441598,17.23888"
         id="path1342"
         inkscape:connector-curvature="0"
         sodipodi:nodetypes="cc" />
    </g>
  </g>
</svg>
